{"glyphs":{"0":{"ha":864,"x_min":0,"x_max":0,"o":"m 210 367 b 224 375 214 368 222 372 b 226 385 226 378 226 382 b 221 390 225 386 221 389 l 222 392 l 224 392 b 483 456 256 400 442 435 b 496 461 489 457 493 460 l 501 467 b 499 467 503 468 501 468 b 233 403 451 447 265 414 b 224 397 228 401 226 399 l 215 390 b 217 381 213 386 213 383 b 215 372 219 376 218 374 b 210 368 214 372 211 369 b 210 367 210 368 208 367 z m 15 0 l 17 0 l 83 86 l 15 86 z m 78 0 l 158 0 l 224 86 l 144 86 z m 44 142 l 58 142 l 58 190 l 75 142 l 90 142 l 90 210 l 79 210 l 78 164 l 63 210 l 46 210 z m 101 142 l 117 142 l 118 157 l 136 157 l 140 142 l 154 142 l 138 210 l 121 210 z m 218 0 l 299 0 l 364 86 l 286 86 z m 121 168 l 128 199 l 135 168 z m 167 142 l 178 142 l 179 197 l 192 142 l 201 142 l 214 197 l 213 142 l 226 142 l 226 210 l 207 210 l 196 161 l 188 210 l 167 210 z m 243 142 l 282 142 l 281 153 l 256 153 l 256 172 l 279 172 l 281 183 l 257 183 l 256 199 l 279 199 l 281 210 l 243 210 z m 360 0 l 439 0 l 506 86 l 425 86 z m 294 142 l 333 142 l 333 153 l 308 153 l 308 210 l 296 210 z m 342 142 l 354 142 l 358 157 l 376 157 l 379 142 l 393 142 l 376 210 l 358 210 z m 361 168 l 365 199 l 368 199 l 374 168 z m 199 335 l 199 269 b 211 272 199 269 208 269 b 215 281 215 275 215 281 l 215 335 b 222 343 217 339 219 342 b 235 347 226 344 231 347 b 249 340 242 347 244 344 b 253 322 251 336 253 331 l 253 281 b 254 272 253 281 254 275 b 269 269 258 268 269 269 l 268 325 b 240 360 268 349 258 360 b 215 347 229 360 219 356 b 201 340 211 343 208 344 b 199 335 199 339 199 335 z m 500 0 l 581 0 l 646 86 l 565 86 z m 411 142 l 425 142 l 424 199 l 439 199 l 440 210 l 397 210 l 396 199 l 411 199 z m 308 281 b 292 294 299 281 292 285 b 300 308 292 300 294 306 b 321 315 306 314 313 315 b 331 314 322 315 325 315 l 329 292 b 308 281 322 285 317 281 z m 301 268 b 329 278 314 268 322 272 b 338 283 332 281 335 281 b 344 292 342 285 346 289 l 344 324 b 336 351 346 335 342 344 b 314 360 331 357 324 358 b 286 342 308 360 292 347 b 288 339 283 336 288 339 b 310 344 293 343 300 344 b 329 325 324 344 329 339 b 318 326 325 325 322 326 b 288 317 307 326 296 324 b 276 294 279 311 276 303 b 285 275 276 286 281 281 b 301 268 290 269 296 268 z m 465 142 l 478 142 l 478 168 l 497 210 l 482 210 l 472 183 l 464 210 l 449 210 l 465 168 z m 279 356 b 292 378 281 356 293 376 b 279 393 285 381 279 386 b 276 393 278 394 276 393 b 274 386 275 392 274 390 l 267 374 b 279 356 265 365 274 358 z m 508 142 l 521 142 l 522 169 l 531 169 b 551 190 542 169 551 176 b 532 210 551 200 547 210 l 508 210 z m 51 540 l 58 540 l 58 560 l 74 560 l 72 565 l 58 565 l 58 576 l 75 576 l 74 583 l 51 583 z m 528 181 l 521 181 l 521 200 l 528 200 b 538 190 535 200 538 197 b 528 181 538 183 533 181 z m 640 0 l 719 0 l 786 86 l 707 86 z m 93 540 b 107 561 103 540 107 547 b 93 583 107 576 103 583 b 78 561 82 583 79 576 b 93 540 78 547 83 540 z m 93 544 b 86 561 88 544 86 547 b 93 578 88 576 88 578 b 100 561 96 578 100 576 b 93 544 100 547 96 544 z m 356 269 b 367 272 356 269 364 269 b 369 281 371 275 369 281 l 371 335 b 378 343 371 339 374 340 b 389 347 382 344 385 347 b 400 343 393 347 396 344 b 404 332 403 340 404 336 l 406 269 b 417 272 406 269 414 269 b 422 281 421 276 422 281 l 422 335 b 428 343 421 339 425 340 b 439 347 432 344 435 347 b 457 325 450 347 457 340 l 457 281 b 458 274 457 281 457 275 b 472 269 463 269 472 269 l 472 328 b 465 351 471 339 471 347 b 443 360 460 357 451 360 b 428 357 439 360 433 358 b 418 349 424 353 419 351 b 392 360 413 356 406 360 b 369 349 383 360 374 356 b 357 339 367 343 360 342 l 356 333 z m 565 142 l 603 142 l 603 153 l 578 153 l 578 172 l 599 172 l 600 183 l 579 183 l 578 199 l 601 199 l 601 210 l 565 210 z m 617 142 l 629 142 l 631 157 l 617 157 z m 113 540 l 121 540 l 121 558 l 126 558 b 132 551 131 558 133 557 b 133 543 133 549 133 547 l 133 540 l 142 540 b 140 543 142 542 140 542 l 140 553 b 133 561 139 558 136 561 b 139 572 139 561 140 567 b 128 583 140 581 135 583 l 113 583 z m 125 564 l 121 564 l 121 578 l 126 578 b 133 572 131 578 133 575 b 125 564 133 567 129 564 z m 175 540 b 189 556 185 540 188 547 l 182 556 b 174 544 181 551 179 544 b 168 561 169 544 168 549 b 175 578 168 575 169 578 b 182 569 179 578 182 575 l 189 569 b 174 583 189 575 186 583 b 160 561 163 583 161 576 b 175 540 160 547 163 540 z m 42 625 l 54 625 l 60 649 l 67 649 b 89 667 76 649 86 653 b 76 683 89 675 88 683 l 54 683 z m 782 0 l 850 0 l 850 86 l 847 86 z m 67 657 l 61 657 l 64 675 l 69 675 b 76 667 76 675 78 672 b 67 657 75 660 71 657 z m 668 142 b 690 168 685 142 689 153 l 675 168 b 667 151 675 153 672 151 b 658 175 663 151 658 156 b 667 201 658 194 660 201 b 675 186 674 201 675 197 l 688 186 b 668 211 689 197 686 211 b 644 176 646 211 646 197 b 668 142 644 156 646 142 z m 206 540 b 222 561 217 540 221 547 b 206 583 222 576 215 583 b 193 561 196 583 194 576 b 206 540 193 547 196 540 z m 206 544 b 200 561 203 544 200 547 b 206 578 200 576 203 578 b 214 561 210 578 214 576 b 206 544 213 547 210 544 z m 513 269 b 542 282 518 268 532 276 b 542 285 544 283 547 289 b 524 282 535 283 531 282 b 506 289 517 282 510 283 b 496 311 499 293 497 301 l 560 311 b 561 322 560 315 561 318 b 549 349 561 333 557 342 b 522 360 543 357 533 360 b 493 349 510 360 501 356 b 481 314 485 339 481 326 b 493 281 479 299 483 289 b 513 269 499 275 504 269 z m 90 625 l 124 625 l 126 635 l 104 635 l 106 650 l 126 650 l 131 660 l 110 660 l 113 674 l 133 674 l 135 683 l 101 683 z m 544 324 l 496 324 b 506 340 496 331 500 335 b 522 347 508 344 515 347 b 540 340 531 347 535 343 b 544 324 544 335 544 331 z m 228 540 l 233 540 l 233 576 l 243 540 l 247 540 l 257 576 l 256 540 l 263 540 l 263 583 l 253 583 l 246 551 l 244 551 l 238 583 l 228 583 z m 725 142 b 749 176 746 142 749 156 b 724 211 749 197 746 211 b 701 176 704 211 701 197 b 725 142 701 156 704 142 z m 725 151 b 717 176 717 151 717 158 b 725 201 717 194 717 201 b 735 176 733 201 735 194 b 725 151 735 158 733 151 z m 133 625 l 146 625 l 151 650 l 158 650 b 164 642 163 650 164 647 l 161 631 b 161 625 160 628 160 626 l 175 625 b 174 635 172 626 172 631 b 168 653 176 649 176 653 b 182 668 174 656 181 660 b 168 683 183 678 178 683 l 146 683 z m 158 658 l 153 658 l 156 675 l 161 675 b 168 667 168 675 169 672 b 158 658 168 660 163 658 z m 271 540 l 278 540 l 279 576 l 286 540 l 292 540 l 303 576 l 301 540 l 308 540 l 307 583 l 296 583 l 289 551 l 281 583 l 271 583 z m 626 281 b 610 294 615 281 610 285 b 618 308 610 300 613 306 b 638 315 624 314 629 315 b 647 314 639 315 643 315 l 646 292 b 626 281 642 285 635 281 z m 201 624 b 225 642 213 624 224 628 b 217 657 226 649 225 653 l 208 661 b 204 669 204 664 203 665 b 213 676 206 674 206 676 b 218 667 217 676 218 674 l 228 667 l 231 668 b 215 685 232 681 225 685 b 192 668 203 685 196 681 b 203 650 190 658 193 653 b 211 640 211 647 213 644 b 203 632 213 635 207 632 b 199 642 196 632 197 635 l 197 643 l 186 643 l 185 640 b 201 624 182 631 186 624 z m 763 142 l 776 142 l 776 197 l 788 142 l 799 142 l 813 197 l 811 142 l 824 142 l 824 210 l 804 210 l 793 161 l 783 210 l 764 210 z m 14 747 l 15 747 l 83 833 l 14 833 z m 314 540 l 338 540 l 338 547 l 321 547 l 321 560 l 338 560 l 338 565 l 321 565 l 322 576 l 339 576 l 338 583 l 314 583 z m 621 268 b 646 278 632 268 642 272 b 656 283 650 281 653 281 b 663 292 660 285 664 289 l 663 324 b 654 351 664 335 660 344 b 632 360 650 357 642 358 b 604 342 626 360 608 347 b 604 339 601 336 604 339 b 628 344 611 343 618 344 b 646 325 642 344 646 339 b 636 326 643 325 640 326 b 606 317 624 326 613 324 b 596 294 599 311 594 303 b 601 275 594 286 597 281 b 621 268 607 269 614 268 z m 600 268 b 597 272 600 268 603 272 b 585 297 590 274 585 285 l 585 482 b 572 478 585 482 575 481 b 569 468 569 475 569 468 l 571 294 b 600 268 569 276 581 268 z m 344 540 l 351 540 l 351 558 l 356 558 b 363 551 361 558 364 557 b 364 543 364 549 363 547 b 364 540 364 542 365 542 l 372 540 b 371 543 372 542 369 542 b 369 553 369 547 371 550 b 364 561 369 558 368 561 b 369 572 368 561 369 567 b 360 583 369 581 365 583 l 344 583 z m 356 564 l 350 564 l 351 578 l 356 578 b 363 572 361 578 364 575 b 356 564 363 567 361 564 z m 249 624 b 278 656 268 624 272 636 b 263 685 282 672 282 685 b 236 656 246 685 242 672 b 249 624 232 636 232 624 z m 253 632 b 247 656 244 632 244 639 b 261 676 251 669 254 676 b 264 656 268 676 268 669 b 253 632 261 639 260 632 z m 389 540 b 403 556 401 540 403 547 l 397 556 b 389 544 396 551 396 544 b 383 561 385 544 383 549 b 389 578 383 575 385 578 b 397 569 394 578 397 575 l 404 569 b 390 583 403 575 403 583 b 376 561 379 583 378 576 b 389 540 376 547 379 540 z m 408 540 l 417 540 l 415 583 l 407 583 z m 282 625 l 293 625 l 301 667 l 308 625 l 321 625 l 335 683 l 322 683 l 314 643 l 308 683 l 294 683 z m 78 747 l 157 747 l 222 833 l 143 833 z m 419 540 l 426 540 l 429 550 l 442 550 l 444 540 l 451 540 l 439 583 l 431 583 z m 431 557 l 436 576 l 440 557 z m 597 406 l 594 403 b 649 425 615 411 628 415 b 657 433 651 425 654 431 b 664 439 660 433 665 439 l 611 418 b 601 410 608 417 604 414 b 597 406 600 410 594 406 z m 483 535 l 482 532 b 489 540 488 532 490 535 l 490 549 l 483 549 l 483 540 l 485 540 b 483 535 485 536 485 535 z m 454 540 l 478 540 l 478 547 l 461 547 l 461 583 l 454 583 z m 329 625 l 343 625 l 347 636 l 363 636 l 363 625 l 376 625 l 372 683 l 358 683 z m 351 647 l 364 674 l 364 647 z m 385 625 l 418 625 l 421 635 l 399 635 l 410 683 l 397 683 z m 510 540 l 517 540 l 517 558 l 522 558 b 535 569 531 558 533 564 b 522 583 535 578 531 583 l 510 583 z m 521 564 l 515 564 l 517 578 l 521 578 b 529 569 526 578 528 575 b 521 564 528 565 524 564 z m 539 540 l 563 540 l 563 547 l 546 547 l 546 583 l 539 583 z m 218 747 l 297 747 l 363 833 l 285 833 z m 568 540 l 592 540 l 592 547 l 575 547 l 575 560 l 590 560 l 589 565 l 575 565 l 575 576 l 592 576 l 590 583 l 568 583 z m 469 624 b 493 642 479 624 490 626 l 501 683 l 489 683 l 482 642 b 471 632 479 636 476 632 b 467 642 467 632 464 636 l 475 683 l 463 683 l 456 642 b 469 624 451 626 460 624 z m 593 540 l 600 540 l 604 550 l 615 550 l 618 540 l 625 540 l 614 583 l 604 583 z m 606 557 l 611 576 l 615 557 z m 515 624 b 542 642 529 624 539 628 b 533 657 543 649 542 653 l 525 661 b 521 669 519 664 519 665 b 529 676 522 674 522 676 b 533 667 533 676 535 674 l 544 667 l 546 668 b 529 685 549 681 542 685 b 508 668 519 685 513 681 b 519 650 507 658 510 653 b 528 640 528 647 529 644 b 519 632 529 635 524 632 b 514 642 513 632 514 635 l 514 643 l 501 643 l 501 640 b 515 624 499 631 503 624 z m 639 540 b 654 551 650 540 656 543 b 646 564 654 558 651 561 l 642 565 b 635 574 636 567 635 568 b 639 578 636 576 638 578 b 646 574 644 578 647 576 l 646 572 l 653 572 l 653 574 b 640 583 654 576 651 583 b 628 572 632 583 628 581 b 636 560 628 565 632 561 l 642 558 b 649 550 646 557 649 556 b 640 544 649 549 644 544 b 635 551 636 544 635 547 l 635 553 l 628 553 b 639 540 628 547 629 540 z m 661 540 l 685 540 l 685 547 l 668 547 l 668 560 l 683 560 l 683 565 l 668 565 l 669 576 l 683 576 l 682 583 l 661 583 z m 549 625 l 582 625 l 585 635 l 563 635 l 564 650 l 585 650 l 589 660 l 568 660 l 572 674 l 592 674 l 594 683 l 561 683 z m 360 747 l 438 747 l 504 833 l 425 833 z m 710 540 l 718 540 l 728 583 l 721 583 l 714 549 l 706 583 l 699 583 z m 731 540 l 738 540 l 738 583 l 731 583 z m 635 624 b 661 656 653 624 657 636 b 649 685 667 672 667 685 b 621 656 629 685 625 672 b 635 624 618 636 615 624 z m 636 632 b 632 656 629 632 629 639 b 646 676 636 669 639 676 b 649 656 653 676 653 669 b 636 632 646 639 644 632 z m 758 540 b 771 551 767 540 772 543 b 763 564 771 558 769 561 l 758 565 b 751 574 754 567 751 568 b 758 578 753 576 754 578 b 763 574 761 578 764 576 l 763 572 l 771 572 l 771 574 b 757 583 772 576 769 583 b 744 572 749 583 744 581 b 754 560 744 565 749 561 l 758 558 b 765 550 764 557 765 556 b 757 544 765 549 763 544 b 751 551 753 544 751 547 l 751 553 l 744 553 b 758 540 744 547 746 540 z m 778 540 l 785 540 l 785 583 l 778 583 z m 797 540 l 806 540 l 807 576 l 817 576 l 815 583 l 788 583 l 789 576 l 799 576 z m 667 625 l 678 625 l 686 667 l 693 625 l 707 625 l 719 683 l 708 683 l 700 643 l 693 683 l 679 683 z m 719 625 l 751 625 l 756 635 l 733 635 l 743 683 l 731 683 z m 499 747 l 579 747 l 644 833 l 564 833 z m 804 625 l 815 625 l 818 635 l 807 635 z m 765 625 l 778 625 l 783 649 l 806 683 l 793 683 l 781 661 l 776 683 l 763 683 l 771 649 z m 810 642 l 818 642 l 825 665 l 828 683 l 817 683 l 813 665 z m 639 747 l 719 747 l 785 833 l 706 833 z m 781 747 l 849 747 l 850 833 l 846 833 z "},"1":{"ha":864,"x_min":0,"x_max":0,"o":"m 210 367 b 224 375 214 368 222 372 b 226 385 226 378 226 382 b 221 390 225 386 221 389 l 222 392 l 224 392 b 483 456 256 400 442 435 b 496 461 489 457 493 460 l 501 467 b 499 467 503 468 501 468 b 233 403 451 447 265 414 b 224 397 228 401 226 399 l 215 390 b 217 381 213 386 213 383 b 215 372 219 376 218 374 b 210 368 214 372 211 369 b 210 367 210 368 208 367 z m 15 0 l 17 0 l 83 86 l 15 86 z m 78 0 l 158 0 l 224 86 l 144 86 z m 44 142 l 58 142 l 58 190 l 75 142 l 90 142 l 90 210 l 79 210 l 78 164 l 63 210 l 46 210 z m 101 142 l 117 142 l 118 157 l 136 157 l 140 142 l 154 142 l 138 210 l 121 210 z m 218 0 l 299 0 l 364 86 l 286 86 z m 121 168 l 128 199 l 135 168 z m 167 142 l 178 142 l 179 197 l 192 142 l 201 142 l 214 197 l 213 142 l 226 142 l 226 210 l 207 210 l 196 161 l 188 210 l 167 210 z m 243 142 l 282 142 l 281 153 l 256 153 l 256 172 l 279 172 l 281 183 l 257 183 l 256 199 l 279 199 l 281 210 l 243 210 z m 360 0 l 439 0 l 506 86 l 425 86 z m 294 142 l 333 142 l 333 153 l 308 153 l 308 210 l 296 210 z m 342 142 l 354 142 l 358 157 l 376 157 l 379 142 l 393 142 l 376 210 l 358 210 z m 361 168 l 365 199 l 368 199 l 374 168 z m 199 335 l 199 269 b 211 272 199 269 208 269 b 215 281 215 275 215 281 l 215 335 b 222 343 217 339 219 342 b 235 347 226 344 231 347 b 249 340 242 347 244 344 b 253 322 251 336 253 331 l 253 281 b 254 272 253 281 254 275 b 269 269 258 268 269 269 l 268 325 b 240 360 268 349 258 360 b 215 347 229 360 219 356 b 201 340 211 343 208 344 b 199 335 199 339 199 335 z m 500 0 l 581 0 l 646 86 l 565 86 z m 411 142 l 425 142 l 424 199 l 439 199 l 440 210 l 397 210 l 396 199 l 411 199 z m 308 281 b 292 294 299 281 292 285 b 300 308 292 300 294 306 b 321 315 306 314 313 315 b 331 314 322 315 325 315 l 329 292 b 308 281 322 285 317 281 z m 301 268 b 329 278 314 268 322 272 b 338 283 332 281 335 281 b 344 292 342 285 346 289 l 344 324 b 336 351 346 335 342 344 b 314 360 331 357 324 358 b 286 342 308 360 292 347 b 288 339 283 336 288 339 b 310 344 293 343 300 344 b 329 325 324 344 329 339 b 318 326 325 325 322 326 b 288 317 307 326 296 324 b 276 294 279 311 276 303 b 285 275 276 286 281 281 b 301 268 290 269 296 268 z m 465 142 l 478 142 l 478 168 l 497 210 l 482 210 l 472 183 l 464 210 l 449 210 l 465 168 z m 279 356 b 292 378 281 356 293 376 b 279 393 285 381 279 386 b 276 393 278 394 276 393 b 274 386 275 392 274 390 l 267 374 b 279 356 265 365 274 358 z m 508 142 l 521 142 l 522 169 l 531 169 b 551 190 542 169 551 176 b 532 210 551 200 547 210 l 508 210 z m 51 540 l 58 540 l 58 560 l 74 560 l 72 565 l 58 565 l 58 576 l 75 576 l 74 583 l 51 583 z m 528 181 l 521 181 l 521 200 l 528 200 b 538 190 535 200 538 197 b 528 181 538 183 533 181 z m 640 0 l 719 0 l 786 86 l 707 86 z m 93 540 b 107 561 103 540 107 547 b 93 583 107 576 103 583 b 78 561 82 583 79 576 b 93 540 78 547 83 540 z m 93 544 b 86 561 88 544 86 547 b 93 578 88 576 88 578 b 100 561 96 578 100 576 b 93 544 100 547 96 544 z m 356 269 b 367 272 356 269 364 269 b 369 281 371 275 369 281 l 371 335 b 378 343 371 339 374 340 b 389 347 382 344 385 347 b 400 343 393 347 396 344 b 404 332 403 340 404 336 l 406 269 b 417 272 406 269 414 269 b 422 281 421 276 422 281 l 422 335 b 428 343 421 339 425 340 b 439 347 432 344 435 347 b 457 325 450 347 457 340 l 457 281 b 458 274 457 281 457 275 b 472 269 463 269 472 269 l 472 328 b 465 351 471 339 471 347 b 443 360 460 357 451 360 b 428 357 439 360 433 358 b 418 349 424 353 419 351 b 392 360 413 356 406 360 b 369 349 383 360 374 356 b 357 339 367 343 360 342 l 356 333 z m 565 142 l 603 142 l 603 153 l 578 153 l 578 172 l 599 172 l 600 183 l 579 183 l 578 199 l 601 199 l 601 210 l 565 210 z m 617 142 l 629 142 l 631 157 l 617 157 z m 113 540 l 121 540 l 121 558 l 126 558 b 132 551 131 558 133 557 b 133 543 133 549 133 547 l 133 540 l 142 540 b 140 543 142 542 140 542 l 140 553 b 133 561 139 558 136 561 b 139 572 139 561 140 567 b 128 583 140 581 135 583 l 113 583 z m 125 564 l 121 564 l 121 578 l 126 578 b 133 572 131 578 133 575 b 125 564 133 567 129 564 z m 175 540 b 189 556 185 540 188 547 l 182 556 b 174 544 181 551 179 544 b 168 561 169 544 168 549 b 175 578 168 575 169 578 b 182 569 179 578 182 575 l 189 569 b 174 583 189 575 186 583 b 160 561 163 583 161 576 b 175 540 160 547 163 540 z m 42 625 l 54 625 l 60 649 l 67 649 b 89 667 76 649 86 653 b 76 683 89 675 88 683 l 54 683 z m 782 0 l 850 0 l 850 86 l 847 86 z m 67 657 l 61 657 l 64 675 l 69 675 b 76 667 76 675 78 672 b 67 657 75 660 71 657 z m 668 142 b 690 168 685 142 689 153 l 675 168 b 667 151 675 153 672 151 b 658 175 663 151 658 156 b 667 201 658 194 660 201 b 675 186 674 201 675 197 l 688 186 b 668 211 689 197 686 211 b 644 176 646 211 646 197 b 668 142 644 156 646 142 z m 206 540 b 222 561 217 540 221 547 b 206 583 222 576 215 583 b 193 561 196 583 194 576 b 206 540 193 547 196 540 z m 206 544 b 200 561 203 544 200 547 b 206 578 200 576 203 578 b 214 561 210 578 214 576 b 206 544 213 547 210 544 z m 513 269 b 542 282 518 268 532 276 b 542 285 544 283 547 289 b 524 282 535 283 531 282 b 506 289 517 282 510 283 b 496 311 499 293 497 301 l 560 311 b 561 322 560 315 561 318 b 549 349 561 333 557 342 b 522 360 543 357 533 360 b 493 349 510 360 501 356 b 481 314 485 339 481 326 b 493 281 479 299 483 289 b 513 269 499 275 504 269 z m 90 625 l 124 625 l 126 635 l 104 635 l 106 650 l 126 650 l 131 660 l 110 660 l 113 674 l 133 674 l 135 683 l 101 683 z m 544 324 l 496 324 b 506 340 496 331 500 335 b 522 347 508 344 515 347 b 540 340 531 347 535 343 b 544 324 544 335 544 331 z m 228 540 l 233 540 l 233 576 l 243 540 l 247 540 l 257 576 l 256 540 l 263 540 l 263 583 l 253 583 l 246 551 l 244 551 l 238 583 l 228 583 z m 725 142 b 749 176 746 142 749 156 b 724 211 749 197 746 211 b 701 176 704 211 701 197 b 725 142 701 156 704 142 z m 725 151 b 717 176 717 151 717 158 b 725 201 717 194 717 201 b 735 176 733 201 735 194 b 725 151 735 158 733 151 z m 133 625 l 146 625 l 151 650 l 158 650 b 164 642 163 650 164 647 l 161 631 b 161 625 160 628 160 626 l 175 625 b 174 635 172 626 172 631 b 168 653 176 649 176 653 b 182 668 174 656 181 660 b 168 683 183 678 178 683 l 146 683 z m 158 658 l 153 658 l 156 675 l 161 675 b 168 667 168 675 169 672 b 158 658 168 660 163 658 z m 271 540 l 278 540 l 279 576 l 286 540 l 292 540 l 303 576 l 301 540 l 308 540 l 307 583 l 296 583 l 289 551 l 281 583 l 271 583 z m 626 281 b 610 294 615 281 610 285 b 618 308 610 300 613 306 b 638 315 624 314 629 315 b 647 314 639 315 643 315 l 646 292 b 626 281 642 285 635 281 z m 201 624 b 225 642 213 624 224 628 b 217 657 226 649 225 653 l 208 661 b 204 669 204 664 203 665 b 213 676 206 674 206 676 b 218 667 217 676 218 674 l 228 667 l 231 668 b 215 685 232 681 225 685 b 192 668 203 685 196 681 b 203 650 190 658 193 653 b 211 640 211 647 213 644 b 203 632 213 635 207 632 b 199 642 196 632 197 635 l 197 643 l 186 643 l 185 640 b 201 624 182 631 186 624 z m 763 142 l 776 142 l 776 197 l 788 142 l 799 142 l 813 197 l 811 142 l 824 142 l 824 210 l 804 210 l 793 161 l 783 210 l 764 210 z m 14 747 l 15 747 l 83 833 l 14 833 z m 314 540 l 338 540 l 338 547 l 321 547 l 321 560 l 338 560 l 338 565 l 321 565 l 322 576 l 339 576 l 338 583 l 314 583 z m 621 268 b 646 278 632 268 642 272 b 656 283 650 281 653 281 b 663 292 660 285 664 289 l 663 324 b 654 351 664 335 660 344 b 632 360 650 357 642 358 b 604 342 626 360 608 347 b 604 339 601 336 604 339 b 628 344 611 343 618 344 b 646 325 642 344 646 339 b 636 326 643 325 640 326 b 606 317 624 326 613 324 b 596 294 599 311 594 303 b 601 275 594 286 597 281 b 621 268 607 269 614 268 z m 600 268 b 597 272 600 268 603 272 b 585 297 590 274 585 285 l 585 482 b 572 478 585 482 575 481 b 569 468 569 475 569 468 l 571 294 b 600 268 569 276 581 268 z m 344 540 l 351 540 l 351 558 l 356 558 b 363 551 361 558 364 557 b 364 543 364 549 363 547 b 364 540 364 542 365 542 l 372 540 b 371 543 372 542 369 542 b 369 553 369 547 371 550 b 364 561 369 558 368 561 b 369 572 368 561 369 567 b 360 583 369 581 365 583 l 344 583 z m 356 564 l 350 564 l 351 578 l 356 578 b 363 572 361 578 364 575 b 356 564 363 567 361 564 z m 249 624 b 278 656 268 624 272 636 b 263 685 282 672 282 685 b 236 656 246 685 242 672 b 249 624 232 636 232 624 z m 253 632 b 247 656 244 632 244 639 b 261 676 251 669 254 676 b 264 656 268 676 268 669 b 253 632 261 639 260 632 z m 389 540 b 403 556 401 540 403 547 l 397 556 b 389 544 396 551 396 544 b 383 561 385 544 383 549 b 389 578 383 575 385 578 b 397 569 394 578 397 575 l 404 569 b 390 583 403 575 403 583 b 376 561 379 583 378 576 b 389 540 376 547 379 540 z m 408 540 l 417 540 l 415 583 l 407 583 z m 282 625 l 293 625 l 301 667 l 308 625 l 321 625 l 335 683 l 322 683 l 314 643 l 308 683 l 294 683 z m 78 747 l 157 747 l 222 833 l 143 833 z m 419 540 l 426 540 l 429 550 l 442 550 l 444 540 l 451 540 l 439 583 l 431 583 z m 431 557 l 436 576 l 440 557 z m 597 406 l 594 403 b 649 425 615 411 628 415 b 657 433 651 425 654 431 b 664 439 660 433 665 439 l 611 418 b 601 410 608 417 604 414 b 597 406 600 410 594 406 z m 483 535 l 482 532 b 489 540 488 532 490 535 l 490 549 l 483 549 l 483 540 l 485 540 b 483 535 485 536 485 535 z m 454 540 l 478 540 l 478 547 l 461 547 l 461 583 l 454 583 z m 329 625 l 343 625 l 347 636 l 363 636 l 363 625 l 376 625 l 372 683 l 358 683 z m 351 647 l 364 674 l 364 647 z m 385 625 l 418 625 l 421 635 l 399 635 l 410 683 l 397 683 z m 510 540 l 517 540 l 517 558 l 522 558 b 535 569 531 558 533 564 b 522 583 535 578 531 583 l 510 583 z m 521 564 l 515 564 l 517 578 l 521 578 b 529 569 526 578 528 575 b 521 564 528 565 524 564 z m 539 540 l 563 540 l 563 547 l 546 547 l 546 583 l 539 583 z m 218 747 l 297 747 l 363 833 l 285 833 z m 568 540 l 592 540 l 592 547 l 575 547 l 575 560 l 590 560 l 589 565 l 575 565 l 575 576 l 592 576 l 590 583 l 568 583 z m 469 624 b 493 642 479 624 490 626 l 501 683 l 489 683 l 482 642 b 471 632 479 636 476 632 b 467 642 467 632 464 636 l 475 683 l 463 683 l 456 642 b 469 624 451 626 460 624 z m 593 540 l 600 540 l 604 550 l 615 550 l 618 540 l 625 540 l 614 583 l 604 583 z m 606 557 l 611 576 l 615 557 z m 515 624 b 542 642 529 624 539 628 b 533 657 543 649 542 653 l 525 661 b 521 669 519 664 519 665 b 529 676 522 674 522 676 b 533 667 533 676 535 674 l 544 667 l 546 668 b 529 685 549 681 542 685 b 508 668 519 685 513 681 b 519 650 507 658 510 653 b 528 640 528 647 529 644 b 519 632 529 635 524 632 b 514 642 513 632 514 635 l 514 643 l 501 643 l 501 640 b 515 624 499 631 503 624 z m 639 540 b 654 551 650 540 656 543 b 646 564 654 558 651 561 l 642 565 b 635 574 636 567 635 568 b 639 578 636 576 638 578 b 646 574 644 578 647 576 l 646 572 l 653 572 l 653 574 b 640 583 654 576 651 583 b 628 572 632 583 628 581 b 636 560 628 565 632 561 l 642 558 b 649 550 646 557 649 556 b 640 544 649 549 644 544 b 635 551 636 544 635 547 l 635 553 l 628 553 b 639 540 628 547 629 540 z m 661 540 l 685 540 l 685 547 l 668 547 l 668 560 l 683 560 l 683 565 l 668 565 l 669 576 l 683 576 l 682 583 l 661 583 z m 549 625 l 582 625 l 585 635 l 563 635 l 564 650 l 585 650 l 589 660 l 568 660 l 572 674 l 592 674 l 594 683 l 561 683 z m 360 747 l 438 747 l 504 833 l 425 833 z m 710 540 l 718 540 l 728 583 l 721 583 l 714 549 l 706 583 l 699 583 z m 731 540 l 738 540 l 738 583 l 731 583 z m 635 624 b 661 656 653 624 657 636 b 649 685 667 672 667 685 b 621 656 629 685 625 672 b 635 624 618 636 615 624 z m 636 632 b 632 656 629 632 629 639 b 646 676 636 669 639 676 b 649 656 653 676 653 669 b 636 632 646 639 644 632 z m 758 540 b 771 551 767 540 772 543 b 763 564 771 558 769 561 l 758 565 b 751 574 754 567 751 568 b 758 578 753 576 754 578 b 763 574 761 578 764 576 l 763 572 l 771 572 l 771 574 b 757 583 772 576 769 583 b 744 572 749 583 744 581 b 754 560 744 565 749 561 l 758 558 b 765 550 764 557 765 556 b 757 544 765 549 763 544 b 751 551 753 544 751 547 l 751 553 l 744 553 b 758 540 744 547 746 540 z m 778 540 l 785 540 l 785 583 l 778 583 z m 797 540 l 806 540 l 807 576 l 817 576 l 815 583 l 788 583 l 789 576 l 799 576 z m 667 625 l 678 625 l 686 667 l 693 625 l 707 625 l 719 683 l 708 683 l 700 643 l 693 683 l 679 683 z m 719 625 l 751 625 l 756 635 l 733 635 l 743 683 l 731 683 z m 499 747 l 579 747 l 644 833 l 564 833 z m 804 625 l 815 625 l 818 635 l 807 635 z m 765 625 l 778 625 l 783 649 l 806 683 l 793 683 l 781 661 l 776 683 l 763 683 l 771 649 z m 810 642 l 818 642 l 825 665 l 828 683 l 817 683 l 813 665 z m 639 747 l 719 747 l 785 833 l 706 833 z m 781 747 l 849 747 l 850 833 l 846 833 z "},"2":{"ha":864,"x_min":0,"x_max":0,"o":"m 210 367 b 224 375 214 368 222 372 b 226 385 226 378 226 382 b 221 390 225 386 221 389 l 222 392 l 224 392 b 483 456 256 400 442 435 b 496 461 489 457 493 460 l 501 467 b 499 467 503 468 501 468 b 233 403 451 447 265 414 b 224 397 228 401 226 399 l 215 390 b 217 381 213 386 213 383 b 215 372 219 376 218 374 b 210 368 214 372 211 369 b 210 367 210 368 208 367 z m 15 0 l 17 0 l 83 86 l 15 86 z m 78 0 l 158 0 l 224 86 l 144 86 z m 44 142 l 58 142 l 58 190 l 75 142 l 90 142 l 90 210 l 79 210 l 78 164 l 63 210 l 46 210 z m 101 142 l 117 142 l 118 157 l 136 157 l 140 142 l 154 142 l 138 210 l 121 210 z m 218 0 l 299 0 l 364 86 l 286 86 z m 121 168 l 128 199 l 135 168 z m 167 142 l 178 142 l 179 197 l 192 142 l 201 142 l 214 197 l 213 142 l 226 142 l 226 210 l 207 210 l 196 161 l 188 210 l 167 210 z m 243 142 l 282 142 l 281 153 l 256 153 l 256 172 l 279 172 l 281 183 l 257 183 l 256 199 l 279 199 l 281 210 l 243 210 z m 360 0 l 439 0 l 506 86 l 425 86 z m 294 142 l 333 142 l 333 153 l 308 153 l 308 210 l 296 210 z m 342 142 l 354 142 l 358 157 l 376 157 l 379 142 l 393 142 l 376 210 l 358 210 z m 361 168 l 365 199 l 368 199 l 374 168 z m 199 335 l 199 269 b 211 272 199 269 208 269 b 215 281 215 275 215 281 l 215 335 b 222 343 217 339 219 342 b 235 347 226 344 231 347 b 249 340 242 347 244 344 b 253 322 251 336 253 331 l 253 281 b 254 272 253 281 254 275 b 269 269 258 268 269 269 l 268 325 b 240 360 268 349 258 360 b 215 347 229 360 219 356 b 201 340 211 343 208 344 b 199 335 199 339 199 335 z m 500 0 l 581 0 l 646 86 l 565 86 z m 411 142 l 425 142 l 424 199 l 439 199 l 440 210 l 397 210 l 396 199 l 411 199 z m 308 281 b 292 294 299 281 292 285 b 300 308 292 300 294 306 b 321 315 306 314 313 315 b 331 314 322 315 325 315 l 329 292 b 308 281 322 285 317 281 z m 301 268 b 329 278 314 268 322 272 b 338 283 332 281 335 281 b 344 292 342 285 346 289 l 344 324 b 336 351 346 335 342 344 b 314 360 331 357 324 358 b 286 342 308 360 292 347 b 288 339 283 336 288 339 b 310 344 293 343 300 344 b 329 325 324 344 329 339 b 318 326 325 325 322 326 b 288 317 307 326 296 324 b 276 294 279 311 276 303 b 285 275 276 286 281 281 b 301 268 290 269 296 268 z m 465 142 l 478 142 l 478 168 l 497 210 l 482 210 l 472 183 l 464 210 l 449 210 l 465 168 z m 279 356 b 292 378 281 356 293 376 b 279 393 285 381 279 386 b 276 393 278 394 276 393 b 274 386 275 392 274 390 l 267 374 b 279 356 265 365 274 358 z m 508 142 l 521 142 l 522 169 l 531 169 b 551 190 542 169 551 176 b 532 210 551 200 547 210 l 508 210 z m 51 540 l 58 540 l 58 560 l 74 560 l 72 565 l 58 565 l 58 576 l 75 576 l 74 583 l 51 583 z m 528 181 l 521 181 l 521 200 l 528 200 b 538 190 535 200 538 197 b 528 181 538 183 533 181 z m 640 0 l 719 0 l 786 86 l 707 86 z m 93 540 b 107 561 103 540 107 547 b 93 583 107 576 103 583 b 78 561 82 583 79 576 b 93 540 78 547 83 540 z m 93 544 b 86 561 88 544 86 547 b 93 578 88 576 88 578 b 100 561 96 578 100 576 b 93 544 100 547 96 544 z m 356 269 b 367 272 356 269 364 269 b 369 281 371 275 369 281 l 371 335 b 378 343 371 339 374 340 b 389 347 382 344 385 347 b 400 343 393 347 396 344 b 404 332 403 340 404 336 l 406 269 b 417 272 406 269 414 269 b 422 281 421 276 422 281 l 422 335 b 428 343 421 339 425 340 b 439 347 432 344 435 347 b 457 325 450 347 457 340 l 457 281 b 458 274 457 281 457 275 b 472 269 463 269 472 269 l 472 328 b 465 351 471 339 471 347 b 443 360 460 357 451 360 b 428 357 439 360 433 358 b 418 349 424 353 419 351 b 392 360 413 356 406 360 b 369 349 383 360 374 356 b 357 339 367 343 360 342 l 356 333 z m 565 142 l 603 142 l 603 153 l 578 153 l 578 172 l 599 172 l 600 183 l 579 183 l 578 199 l 601 199 l 601 210 l 565 210 z m 617 142 l 629 142 l 631 157 l 617 157 z m 113 540 l 121 540 l 121 558 l 126 558 b 132 551 131 558 133 557 b 133 543 133 549 133 547 l 133 540 l 142 540 b 140 543 142 542 140 542 l 140 553 b 133 561 139 558 136 561 b 139 572 139 561 140 567 b 128 583 140 581 135 583 l 113 583 z m 125 564 l 121 564 l 121 578 l 126 578 b 133 572 131 578 133 575 b 125 564 133 567 129 564 z m 175 540 b 189 556 185 540 188 547 l 182 556 b 174 544 181 551 179 544 b 168 561 169 544 168 549 b 175 578 168 575 169 578 b 182 569 179 578 182 575 l 189 569 b 174 583 189 575 186 583 b 160 561 163 583 161 576 b 175 540 160 547 163 540 z m 42 625 l 54 625 l 60 649 l 67 649 b 89 667 76 649 86 653 b 76 683 89 675 88 683 l 54 683 z m 782 0 l 850 0 l 850 86 l 847 86 z m 67 657 l 61 657 l 64 675 l 69 675 b 76 667 76 675 78 672 b 67 657 75 660 71 657 z m 668 142 b 690 168 685 142 689 153 l 675 168 b 667 151 675 153 672 151 b 658 175 663 151 658 156 b 667 201 658 194 660 201 b 675 186 674 201 675 197 l 688 186 b 668 211 689 197 686 211 b 644 176 646 211 646 197 b 668 142 644 156 646 142 z m 206 540 b 222 561 217 540 221 547 b 206 583 222 576 215 583 b 193 561 196 583 194 576 b 206 540 193 547 196 540 z m 206 544 b 200 561 203 544 200 547 b 206 578 200 576 203 578 b 214 561 210 578 214 576 b 206 544 213 547 210 544 z m 513 269 b 542 282 518 268 532 276 b 542 285 544 283 547 289 b 524 282 535 283 531 282 b 506 289 517 282 510 283 b 496 311 499 293 497 301 l 560 311 b 561 322 560 315 561 318 b 549 349 561 333 557 342 b 522 360 543 357 533 360 b 493 349 510 360 501 356 b 481 314 485 339 481 326 b 493 281 479 299 483 289 b 513 269 499 275 504 269 z m 90 625 l 124 625 l 126 635 l 104 635 l 106 650 l 126 650 l 131 660 l 110 660 l 113 674 l 133 674 l 135 683 l 101 683 z m 544 324 l 496 324 b 506 340 496 331 500 335 b 522 347 508 344 515 347 b 540 340 531 347 535 343 b 544 324 544 335 544 331 z m 228 540 l 233 540 l 233 576 l 243 540 l 247 540 l 257 576 l 256 540 l 263 540 l 263 583 l 253 583 l 246 551 l 244 551 l 238 583 l 228 583 z m 725 142 b 749 176 746 142 749 156 b 724 211 749 197 746 211 b 701 176 704 211 701 197 b 725 142 701 156 704 142 z m 725 151 b 717 176 717 151 717 158 b 725 201 717 194 717 201 b 735 176 733 201 735 194 b 725 151 735 158 733 151 z m 133 625 l 146 625 l 151 650 l 158 650 b 164 642 163 650 164 647 l 161 631 b 161 625 160 628 160 626 l 175 625 b 174 635 172 626 172 631 b 168 653 176 649 176 653 b 182 668 174 656 181 660 b 168 683 183 678 178 683 l 146 683 z m 158 658 l 153 658 l 156 675 l 161 675 b 168 667 168 675 169 672 b 158 658 168 660 163 658 z m 271 540 l 278 540 l 279 576 l 286 540 l 292 540 l 303 576 l 301 540 l 308 540 l 307 583 l 296 583 l 289 551 l 281 583 l 271 583 z m 626 281 b 610 294 615 281 610 285 b 618 308 610 300 613 306 b 638 315 624 314 629 315 b 647 314 639 315 643 315 l 646 292 b 626 281 642 285 635 281 z m 201 624 b 225 642 213 624 224 628 b 217 657 226 649 225 653 l 208 661 b 204 669 204 664 203 665 b 213 676 206 674 206 676 b 218 667 217 676 218 674 l 228 667 l 231 668 b 215 685 232 681 225 685 b 192 668 203 685 196 681 b 203 650 190 658 193 653 b 211 640 211 647 213 644 b 203 632 213 635 207 632 b 199 642 196 632 197 635 l 197 643 l 186 643 l 185 640 b 201 624 182 631 186 624 z m 763 142 l 776 142 l 776 197 l 788 142 l 799 142 l 813 197 l 811 142 l 824 142 l 824 210 l 804 210 l 793 161 l 783 210 l 764 210 z m 14 747 l 15 747 l 83 833 l 14 833 z m 314 540 l 338 540 l 338 547 l 321 547 l 321 560 l 338 560 l 338 565 l 321 565 l 322 576 l 339 576 l 338 583 l 314 583 z m 621 268 b 646 278 632 268 642 272 b 656 283 650 281 653 281 b 663 292 660 285 664 289 l 663 324 b 654 351 664 335 660 344 b 632 360 650 357 642 358 b 604 342 626 360 608 347 b 604 339 601 336 604 339 b 628 344 611 343 618 344 b 646 325 642 344 646 339 b 636 326 643 325 640 326 b 606 317 624 326 613 324 b 596 294 599 311 594 303 b 601 275 594 286 597 281 b 621 268 607 269 614 268 z m 600 268 b 597 272 600 268 603 272 b 585 297 590 274 585 285 l 585 482 b 572 478 585 482 575 481 b 569 468 569 475 569 468 l 571 294 b 600 268 569 276 581 268 z m 344 540 l 351 540 l 351 558 l 356 558 b 363 551 361 558 364 557 b 364 543 364 549 363 547 b 364 540 364 542 365 542 l 372 540 b 371 543 372 542 369 542 b 369 553 369 547 371 550 b 364 561 369 558 368 561 b 369 572 368 561 369 567 b 360 583 369 581 365 583 l 344 583 z m 356 564 l 350 564 l 351 578 l 356 578 b 363 572 361 578 364 575 b 356 564 363 567 361 564 z m 249 624 b 278 656 268 624 272 636 b 263 685 282 672 282 685 b 236 656 246 685 242 672 b 249 624 232 636 232 624 z m 253 632 b 247 656 244 632 244 639 b 261 676 251 669 254 676 b 264 656 268 676 268 669 b 253 632 261 639 260 632 z m 389 540 b 403 556 401 540 403 547 l 397 556 b 389 544 396 551 396 544 b 383 561 385 544 383 549 b 389 578 383 575 385 578 b 397 569 394 578 397 575 l 404 569 b 390 583 403 575 403 583 b 376 561 379 583 378 576 b 389 540 376 547 379 540 z m 408 540 l 417 540 l 415 583 l 407 583 z m 282 625 l 293 625 l 301 667 l 308 625 l 321 625 l 335 683 l 322 683 l 314 643 l 308 683 l 294 683 z m 78 747 l 157 747 l 222 833 l 143 833 z m 419 540 l 426 540 l 429 550 l 442 550 l 444 540 l 451 540 l 439 583 l 431 583 z m 431 557 l 436 576 l 440 557 z m 597 406 l 594 403 b 649 425 615 411 628 415 b 657 433 651 425 654 431 b 664 439 660 433 665 439 l 611 418 b 601 410 608 417 604 414 b 597 406 600 410 594 406 z m 483 535 l 482 532 b 489 540 488 532 490 535 l 490 549 l 483 549 l 483 540 l 485 540 b 483 535 485 536 485 535 z m 454 540 l 478 540 l 478 547 l 461 547 l 461 583 l 454 583 z m 329 625 l 343 625 l 347 636 l 363 636 l 363 625 l 376 625 l 372 683 l 358 683 z m 351 647 l 364 674 l 364 647 z m 385 625 l 418 625 l 421 635 l 399 635 l 410 683 l 397 683 z m 510 540 l 517 540 l 517 558 l 522 558 b 535 569 531 558 533 564 b 522 583 535 578 531 583 l 510 583 z m 521 564 l 515 564 l 517 578 l 521 578 b 529 569 526 578 528 575 b 521 564 528 565 524 564 z m 539 540 l 563 540 l 563 547 l 546 547 l 546 583 l 539 583 z m 218 747 l 297 747 l 363 833 l 285 833 z m 568 540 l 592 540 l 592 547 l 575 547 l 575 560 l 590 560 l 589 565 l 575 565 l 575 576 l 592 576 l 590 583 l 568 583 z m 469 624 b 493 642 479 624 490 626 l 501 683 l 489 683 l 482 642 b 471 632 479 636 476 632 b 467 642 467 632 464 636 l 475 683 l 463 683 l 456 642 b 469 624 451 626 460 624 z m 593 540 l 600 540 l 604 550 l 615 550 l 618 540 l 625 540 l 614 583 l 604 583 z m 606 557 l 611 576 l 615 557 z m 515 624 b 542 642 529 624 539 628 b 533 657 543 649 542 653 l 525 661 b 521 669 519 664 519 665 b 529 676 522 674 522 676 b 533 667 533 676 535 674 l 544 667 l 546 668 b 529 685 549 681 542 685 b 508 668 519 685 513 681 b 519 650 507 658 510 653 b 528 640 528 647 529 644 b 519 632 529 635 524 632 b 514 642 513 632 514 635 l 514 643 l 501 643 l 501 640 b 515 624 499 631 503 624 z m 639 540 b 654 551 650 540 656 543 b 646 564 654 558 651 561 l 642 565 b 635 574 636 567 635 568 b 639 578 636 576 638 578 b 646 574 644 578 647 576 l 646 572 l 653 572 l 653 574 b 640 583 654 576 651 583 b 628 572 632 583 628 581 b 636 560 628 565 632 561 l 642 558 b 649 550 646 557 649 556 b 640 544 649 549 644 544 b 635 551 636 544 635 547 l 635 553 l 628 553 b 639 540 628 547 629 540 z m 661 540 l 685 540 l 685 547 l 668 547 l 668 560 l 683 560 l 683 565 l 668 565 l 669 576 l 683 576 l 682 583 l 661 583 z m 549 625 l 582 625 l 585 635 l 563 635 l 564 650 l 585 650 l 589 660 l 568 660 l 572 674 l 592 674 l 594 683 l 561 683 z m 360 747 l 438 747 l 504 833 l 425 833 z m 710 540 l 718 540 l 728 583 l 721 583 l 714 549 l 706 583 l 699 583 z m 731 540 l 738 540 l 738 583 l 731 583 z m 635 624 b 661 656 653 624 657 636 b 649 685 667 672 667 685 b 621 656 629 685 625 672 b 635 624 618 636 615 624 z m 636 632 b 632 656 629 632 629 639 b 646 676 636 669 639 676 b 649 656 653 676 653 669 b 636 632 646 639 644 632 z m 758 540 b 771 551 767 540 772 543 b 763 564 771 558 769 561 l 758 565 b 751 574 754 567 751 568 b 758 578 753 576 754 578 b 763 574 761 578 764 576 l 763 572 l 771 572 l 771 574 b 757 583 772 576 769 583 b 744 572 749 583 744 581 b 754 560 744 565 749 561 l 758 558 b 765 550 764 557 765 556 b 757 544 765 549 763 544 b 751 551 753 544 751 547 l 751 553 l 744 553 b 758 540 744 547 746 540 z m 778 540 l 785 540 l 785 583 l 778 583 z m 797 540 l 806 540 l 807 576 l 817 576 l 815 583 l 788 583 l 789 576 l 799 576 z m 667 625 l 678 625 l 686 667 l 693 625 l 707 625 l 719 683 l 708 683 l 700 643 l 693 683 l 679 683 z m 719 625 l 751 625 l 756 635 l 733 635 l 743 683 l 731 683 z m 499 747 l 579 747 l 644 833 l 564 833 z m 804 625 l 815 625 l 818 635 l 807 635 z m 765 625 l 778 625 l 783 649 l 806 683 l 793 683 l 781 661 l 776 683 l 763 683 l 771 649 z m 810 642 l 818 642 l 825 665 l 828 683 l 817 683 l 813 665 z m 639 747 l 719 747 l 785 833 l 706 833 z m 781 747 l 849 747 l 850 833 l 846 833 z "},"3":{"ha":864,"x_min":0,"x_max":0,"o":"m 210 367 b 224 375 214 368 222 372 b 226 385 226 378 226 382 b 221 390 225 386 221 389 l 222 392 l 224 392 b 483 456 256 400 442 435 b 496 461 489 457 493 460 l 501 467 b 499 467 503 468 501 468 b 233 403 451 447 265 414 b 224 397 228 401 226 399 l 215 390 b 217 381 213 386 213 383 b 215 372 219 376 218 374 b 210 368 214 372 211 369 b 210 367 210 368 208 367 z m 15 0 l 17 0 l 83 86 l 15 86 z m 78 0 l 158 0 l 224 86 l 144 86 z m 44 142 l 58 142 l 58 190 l 75 142 l 90 142 l 90 210 l 79 210 l 78 164 l 63 210 l 46 210 z m 101 142 l 117 142 l 118 157 l 136 157 l 140 142 l 154 142 l 138 210 l 121 210 z m 218 0 l 299 0 l 364 86 l 286 86 z m 121 168 l 128 199 l 135 168 z m 167 142 l 178 142 l 179 197 l 192 142 l 201 142 l 214 197 l 213 142 l 226 142 l 226 210 l 207 210 l 196 161 l 188 210 l 167 210 z m 243 142 l 282 142 l 281 153 l 256 153 l 256 172 l 279 172 l 281 183 l 257 183 l 256 199 l 279 199 l 281 210 l 243 210 z m 360 0 l 439 0 l 506 86 l 425 86 z m 294 142 l 333 142 l 333 153 l 308 153 l 308 210 l 296 210 z m 342 142 l 354 142 l 358 157 l 376 157 l 379 142 l 393 142 l 376 210 l 358 210 z m 361 168 l 365 199 l 368 199 l 374 168 z m 199 335 l 199 269 b 211 272 199 269 208 269 b 215 281 215 275 215 281 l 215 335 b 222 343 217 339 219 342 b 235 347 226 344 231 347 b 249 340 242 347 244 344 b 253 322 251 336 253 331 l 253 281 b 254 272 253 281 254 275 b 269 269 258 268 269 269 l 268 325 b 240 360 268 349 258 360 b 215 347 229 360 219 356 b 201 340 211 343 208 344 b 199 335 199 339 199 335 z m 500 0 l 581 0 l 646 86 l 565 86 z m 411 142 l 425 142 l 424 199 l 439 199 l 440 210 l 397 210 l 396 199 l 411 199 z m 308 281 b 292 294 299 281 292 285 b 300 308 292 300 294 306 b 321 315 306 314 313 315 b 331 314 322 315 325 315 l 329 292 b 308 281 322 285 317 281 z m 301 268 b 329 278 314 268 322 272 b 338 283 332 281 335 281 b 344 292 342 285 346 289 l 344 324 b 336 351 346 335 342 344 b 314 360 331 357 324 358 b 286 342 308 360 292 347 b 288 339 283 336 288 339 b 310 344 293 343 300 344 b 329 325 324 344 329 339 b 318 326 325 325 322 326 b 288 317 307 326 296 324 b 276 294 279 311 276 303 b 285 275 276 286 281 281 b 301 268 290 269 296 268 z m 465 142 l 478 142 l 478 168 l 497 210 l 482 210 l 472 183 l 464 210 l 449 210 l 465 168 z m 279 356 b 292 378 281 356 293 376 b 279 393 285 381 279 386 b 276 393 278 394 276 393 b 274 386 275 392 274 390 l 267 374 b 279 356 265 365 274 358 z m 508 142 l 521 142 l 522 169 l 531 169 b 551 190 542 169 551 176 b 532 210 551 200 547 210 l 508 210 z m 51 540 l 58 540 l 58 560 l 74 560 l 72 565 l 58 565 l 58 576 l 75 576 l 74 583 l 51 583 z m 528 181 l 521 181 l 521 200 l 528 200 b 538 190 535 200 538 197 b 528 181 538 183 533 181 z m 640 0 l 719 0 l 786 86 l 707 86 z m 93 540 b 107 561 103 540 107 547 b 93 583 107 576 103 583 b 78 561 82 583 79 576 b 93 540 78 547 83 540 z m 93 544 b 86 561 88 544 86 547 b 93 578 88 576 88 578 b 100 561 96 578 100 576 b 93 544 100 547 96 544 z m 356 269 b 367 272 356 269 364 269 b 369 281 371 275 369 281 l 371 335 b 378 343 371 339 374 340 b 389 347 382 344 385 347 b 400 343 393 347 396 344 b 404 332 403 340 404 336 l 406 269 b 417 272 406 269 414 269 b 422 281 421 276 422 281 l 422 335 b 428 343 421 339 425 340 b 439 347 432 344 435 347 b 457 325 450 347 457 340 l 457 281 b 458 274 457 281 457 275 b 472 269 463 269 472 269 l 472 328 b 465 351 471 339 471 347 b 443 360 460 357 451 360 b 428 357 439 360 433 358 b 418 349 424 353 419 351 b 392 360 413 356 406 360 b 369 349 383 360 374 356 b 357 339 367 343 360 342 l 356 333 z m 565 142 l 603 142 l 603 153 l 578 153 l 578 172 l 599 172 l 600 183 l 579 183 l 578 199 l 601 199 l 601 210 l 565 210 z m 617 142 l 629 142 l 631 157 l 617 157 z m 113 540 l 121 540 l 121 558 l 126 558 b 132 551 131 558 133 557 b 133 543 133 549 133 547 l 133 540 l 142 540 b 140 543 142 542 140 542 l 140 553 b 133 561 139 558 136 561 b 139 572 139 561 140 567 b 128 583 140 581 135 583 l 113 583 z m 125 564 l 121 564 l 121 578 l 126 578 b 133 572 131 578 133 575 b 125 564 133 567 129 564 z m 175 540 b 189 556 185 540 188 547 l 182 556 b 174 544 181 551 179 544 b 168 561 169 544 168 549 b 175 578 168 575 169 578 b 182 569 179 578 182 575 l 189 569 b 174 583 189 575 186 583 b 160 561 163 583 161 576 b 175 540 160 547 163 540 z m 42 625 l 54 625 l 60 649 l 67 649 b 89 667 76 649 86 653 b 76 683 89 675 88 683 l 54 683 z m 782 0 l 850 0 l 850 86 l 847 86 z m 67 657 l 61 657 l 64 675 l 69 675 b 76 667 76 675 78 672 b 67 657 75 660 71 657 z m 668 142 b 690 168 685 142 689 153 l 675 168 b 667 151 675 153 672 151 b 658 175 663 151 658 156 b 667 201 658 194 660 201 b 675 186 674 201 675 197 l 688 186 b 668 211 689 197 686 211 b 644 176 646 211 646 197 b 668 142 644 156 646 142 z m 206 540 b 222 561 217 540 221 547 b 206 583 222 576 215 583 b 193 561 196 583 194 576 b 206 540 193 547 196 540 z m 206 544 b 200 561 203 544 200 547 b 206 578 200 576 203 578 b 214 561 210 578 214 576 b 206 544 213 547 210 544 z m 513 269 b 542 282 518 268 532 276 b 542 285 544 283 547 289 b 524 282 535 283 531 282 b 506 289 517 282 510 283 b 496 311 499 293 497 301 l 560 311 b 561 322 560 315 561 318 b 549 349 561 333 557 342 b 522 360 543 357 533 360 b 493 349 510 360 501 356 b 481 314 485 339 481 326 b 493 281 479 299 483 289 b 513 269 499 275 504 269 z m 90 625 l 124 625 l 126 635 l 104 635 l 106 650 l 126 650 l 131 660 l 110 660 l 113 674 l 133 674 l 135 683 l 101 683 z m 544 324 l 496 324 b 506 340 496 331 500 335 b 522 347 508 344 515 347 b 540 340 531 347 535 343 b 544 324 544 335 544 331 z m 228 540 l 233 540 l 233 576 l 243 540 l 247 540 l 257 576 l 256 540 l 263 540 l 263 583 l 253 583 l 246 551 l 244 551 l 238 583 l 228 583 z m 725 142 b 749 176 746 142 749 156 b 724 211 749 197 746 211 b 701 176 704 211 701 197 b 725 142 701 156 704 142 z m 725 151 b 717 176 717 151 717 158 b 725 201 717 194 717 201 b 735 176 733 201 735 194 b 725 151 735 158 733 151 z m 133 625 l 146 625 l 151 650 l 158 650 b 164 642 163 650 164 647 l 161 631 b 161 625 160 628 160 626 l 175 625 b 174 635 172 626 172 631 b 168 653 176 649 176 653 b 182 668 174 656 181 660 b 168 683 183 678 178 683 l 146 683 z m 158 658 l 153 658 l 156 675 l 161 675 b 168 667 168 675 169 672 b 158 658 168 660 163 658 z m 271 540 l 278 540 l 279 576 l 286 540 l 292 540 l 303 576 l 301 540 l 308 540 l 307 583 l 296 583 l 289 551 l 281 583 l 271 583 z m 626 281 b 610 294 615 281 610 285 b 618 308 610 300 613 306 b 638 315 624 314 629 315 b 647 314 639 315 643 315 l 646 292 b 626 281 642 285 635 281 z m 201 624 b 225 642 213 624 224 628 b 217 657 226 649 225 653 l 208 661 b 204 669 204 664 203 665 b 213 676 206 674 206 676 b 218 667 217 676 218 674 l 228 667 l 231 668 b 215 685 232 681 225 685 b 192 668 203 685 196 681 b 203 650 190 658 193 653 b 211 640 211 647 213 644 b 203 632 213 635 207 632 b 199 642 196 632 197 635 l 197 643 l 186 643 l 185 640 b 201 624 182 631 186 624 z m 763 142 l 776 142 l 776 197 l 788 142 l 799 142 l 813 197 l 811 142 l 824 142 l 824 210 l 804 210 l 793 161 l 783 210 l 764 210 z m 14 747 l 15 747 l 83 833 l 14 833 z m 314 540 l 338 540 l 338 547 l 321 547 l 321 560 l 338 560 l 338 565 l 321 565 l 322 576 l 339 576 l 338 583 l 314 583 z m 621 268 b 646 278 632 268 642 272 b 656 283 650 281 653 281 b 663 292 660 285 664 289 l 663 324 b 654 351 664 335 660 344 b 632 360 650 357 642 358 b 604 342 626 360 608 347 b 604 339 601 336 604 339 b 628 344 611 343 618 344 b 646 325 642 344 646 339 b 636 326 643 325 640 326 b 606 317 624 326 613 324 b 596 294 599 311 594 303 b 601 275 594 286 597 281 b 621 268 607 269 614 268 z m 600 268 b 597 272 600 268 603 272 b 585 297 590 274 585 285 l 585 482 b 572 478 585 482 575 481 b 569 468 569 475 569 468 l 571 294 b 600 268 569 276 581 268 z m 344 540 l 351 540 l 351 558 l 356 558 b 363 551 361 558 364 557 b 364 543 364 549 363 547 b 364 540 364 542 365 542 l 372 540 b 371 543 372 542 369 542 b 369 553 369 547 371 550 b 364 561 369 558 368 561 b 369 572 368 561 369 567 b 360 583 369 581 365 583 l 344 583 z m 356 564 l 350 564 l 351 578 l 356 578 b 363 572 361 578 364 575 b 356 564 363 567 361 564 z m 249 624 b 278 656 268 624 272 636 b 263 685 282 672 282 685 b 236 656 246 685 242 672 b 249 624 232 636 232 624 z m 253 632 b 247 656 244 632 244 639 b 261 676 251 669 254 676 b 264 656 268 676 268 669 b 253 632 261 639 260 632 z m 389 540 b 403 556 401 540 403 547 l 397 556 b 389 544 396 551 396 544 b 383 561 385 544 383 549 b 389 578 383 575 385 578 b 397 569 394 578 397 575 l 404 569 b 390 583 403 575 403 583 b 376 561 379 583 378 576 b 389 540 376 547 379 540 z m 408 540 l 417 540 l 415 583 l 407 583 z m 282 625 l 293 625 l 301 667 l 308 625 l 321 625 l 335 683 l 322 683 l 314 643 l 308 683 l 294 683 z m 78 747 l 157 747 l 222 833 l 143 833 z m 419 540 l 426 540 l 429 550 l 442 550 l 444 540 l 451 540 l 439 583 l 431 583 z m 431 557 l 436 576 l 440 557 z m 597 406 l 594 403 b 649 425 615 411 628 415 b 657 433 651 425 654 431 b 664 439 660 433 665 439 l 611 418 b 601 410 608 417 604 414 b 597 406 600 410 594 406 z m 483 535 l 482 532 b 489 540 488 532 490 535 l 490 549 l 483 549 l 483 540 l 485 540 b 483 535 485 536 485 535 z m 454 540 l 478 540 l 478 547 l 461 547 l 461 583 l 454 583 z m 329 625 l 343 625 l 347 636 l 363 636 l 363 625 l 376 625 l 372 683 l 358 683 z m 351 647 l 364 674 l 364 647 z m 385 625 l 418 625 l 421 635 l 399 635 l 410 683 l 397 683 z m 510 540 l 517 540 l 517 558 l 522 558 b 535 569 531 558 533 564 b 522 583 535 578 531 583 l 510 583 z m 521 564 l 515 564 l 517 578 l 521 578 b 529 569 526 578 528 575 b 521 564 528 565 524 564 z m 539 540 l 563 540 l 563 547 l 546 547 l 546 583 l 539 583 z m 218 747 l 297 747 l 363 833 l 285 833 z m 568 540 l 592 540 l 592 547 l 575 547 l 575 560 l 590 560 l 589 565 l 575 565 l 575 576 l 592 576 l 590 583 l 568 583 z m 469 624 b 493 642 479 624 490 626 l 501 683 l 489 683 l 482 642 b 471 632 479 636 476 632 b 467 642 467 632 464 636 l 475 683 l 463 683 l 456 642 b 469 624 451 626 460 624 z m 593 540 l 600 540 l 604 550 l 615 550 l 618 540 l 625 540 l 614 583 l 604 583 z m 606 557 l 611 576 l 615 557 z m 515 624 b 542 642 529 624 539 628 b 533 657 543 649 542 653 l 525 661 b 521 669 519 664 519 665 b 529 676 522 674 522 676 b 533 667 533 676 535 674 l 544 667 l 546 668 b 529 685 549 681 542 685 b 508 668 519 685 513 681 b 519 650 507 658 510 653 b 528 640 528 647 529 644 b 519 632 529 635 524 632 b 514 642 513 632 514 635 l 514 643 l 501 643 l 501 640 b 515 624 499 631 503 624 z m 639 540 b 654 551 650 540 656 543 b 646 564 654 558 651 561 l 642 565 b 635 574 636 567 635 568 b 639 578 636 576 638 578 b 646 574 644 578 647 576 l 646 572 l 653 572 l 653 574 b 640 583 654 576 651 583 b 628 572 632 583 628 581 b 636 560 628 565 632 561 l 642 558 b 649 550 646 557 649 556 b 640 544 649 549 644 544 b 635 551 636 544 635 547 l 635 553 l 628 553 b 639 540 628 547 629 540 z m 661 540 l 685 540 l 685 547 l 668 547 l 668 560 l 683 560 l 683 565 l 668 565 l 669 576 l 683 576 l 682 583 l 661 583 z m 549 625 l 582 625 l 585 635 l 563 635 l 564 650 l 585 650 l 589 660 l 568 660 l 572 674 l 592 674 l 594 683 l 561 683 z m 360 747 l 438 747 l 504 833 l 425 833 z m 710 540 l 718 540 l 728 583 l 721 583 l 714 549 l 706 583 l 699 583 z m 731 540 l 738 540 l 738 583 l 731 583 z m 635 624 b 661 656 653 624 657 636 b 649 685 667 672 667 685 b 621 656 629 685 625 672 b 635 624 618 636 615 624 z m 636 632 b 632 656 629 632 629 639 b 646 676 636 669 639 676 b 649 656 653 676 653 669 b 636 632 646 639 644 632 z m 758 540 b 771 551 767 540 772 543 b 763 564 771 558 769 561 l 758 565 b 751 574 754 567 751 568 b 758 578 753 576 754 578 b 763 574 761 578 764 576 l 763 572 l 771 572 l 771 574 b 757 583 772 576 769 583 b 744 572 749 583 744 581 b 754 560 744 565 749 561 l 758 558 b 765 550 764 557 765 556 b 757 544 765 549 763 544 b 751 551 753 544 751 547 l 751 553 l 744 553 b 758 540 744 547 746 540 z m 778 540 l 785 540 l 785 583 l 778 583 z m 797 540 l 806 540 l 807 576 l 817 576 l 815 583 l 788 583 l 789 576 l 799 576 z m 667 625 l 678 625 l 686 667 l 693 625 l 707 625 l 719 683 l 708 683 l 700 643 l 693 683 l 679 683 z m 719 625 l 751 625 l 756 635 l 733 635 l 743 683 l 731 683 z m 499 747 l 579 747 l 644 833 l 564 833 z m 804 625 l 815 625 l 818 635 l 807 635 z m 765 625 l 778 625 l 783 649 l 806 683 l 793 683 l 781 661 l 776 683 l 763 683 l 771 649 z m 810 642 l 818 642 l 825 665 l 828 683 l 817 683 l 813 665 z m 639 747 l 719 747 l 785 833 l 706 833 z m 781 747 l 849 747 l 850 833 l 846 833 z "},"4":{"ha":864,"x_min":0,"x_max":0,"o":"m 210 367 b 224 375 214 368 222 372 b 226 385 226 378 226 382 b 221 390 225 386 221 389 l 222 392 l 224 392 b 483 456 256 400 442 435 b 496 461 489 457 493 460 l 501 467 b 499 467 503 468 501 468 b 233 403 451 447 265 414 b 224 397 228 401 226 399 l 215 390 b 217 381 213 386 213 383 b 215 372 219 376 218 374 b 210 368 214 372 211 369 b 210 367 210 368 208 367 z m 15 0 l 17 0 l 83 86 l 15 86 z m 78 0 l 158 0 l 224 86 l 144 86 z m 44 142 l 58 142 l 58 190 l 75 142 l 90 142 l 90 210 l 79 210 l 78 164 l 63 210 l 46 210 z m 101 142 l 117 142 l 118 157 l 136 157 l 140 142 l 154 142 l 138 210 l 121 210 z m 218 0 l 299 0 l 364 86 l 286 86 z m 121 168 l 128 199 l 135 168 z m 167 142 l 178 142 l 179 197 l 192 142 l 201 142 l 214 197 l 213 142 l 226 142 l 226 210 l 207 210 l 196 161 l 188 210 l 167 210 z m 243 142 l 282 142 l 281 153 l 256 153 l 256 172 l 279 172 l 281 183 l 257 183 l 256 199 l 279 199 l 281 210 l 243 210 z m 360 0 l 439 0 l 506 86 l 425 86 z m 294 142 l 333 142 l 333 153 l 308 153 l 308 210 l 296 210 z m 342 142 l 354 142 l 358 157 l 376 157 l 379 142 l 393 142 l 376 210 l 358 210 z m 361 168 l 365 199 l 368 199 l 374 168 z m 199 335 l 199 269 b 211 272 199 269 208 269 b 215 281 215 275 215 281 l 215 335 b 222 343 217 339 219 342 b 235 347 226 344 231 347 b 249 340 242 347 244 344 b 253 322 251 336 253 331 l 253 281 b 254 272 253 281 254 275 b 269 269 258 268 269 269 l 268 325 b 240 360 268 349 258 360 b 215 347 229 360 219 356 b 201 340 211 343 208 344 b 199 335 199 339 199 335 z m 500 0 l 581 0 l 646 86 l 565 86 z m 411 142 l 425 142 l 424 199 l 439 199 l 440 210 l 397 210 l 396 199 l 411 199 z m 308 281 b 292 294 299 281 292 285 b 300 308 292 300 294 306 b 321 315 306 314 313 315 b 331 314 322 315 325 315 l 329 292 b 308 281 322 285 317 281 z m 301 268 b 329 278 314 268 322 272 b 338 283 332 281 335 281 b 344 292 342 285 346 289 l 344 324 b 336 351 346 335 342 344 b 314 360 331 357 324 358 b 286 342 308 360 292 347 b 288 339 283 336 288 339 b 310 344 293 343 300 344 b 329 325 324 344 329 339 b 318 326 325 325 322 326 b 288 317 307 326 296 324 b 276 294 279 311 276 303 b 285 275 276 286 281 281 b 301 268 290 269 296 268 z m 465 142 l 478 142 l 478 168 l 497 210 l 482 210 l 472 183 l 464 210 l 449 210 l 465 168 z m 279 356 b 292 378 281 356 293 376 b 279 393 285 381 279 386 b 276 393 278 394 276 393 b 274 386 275 392 274 390 l 267 374 b 279 356 265 365 274 358 z m 508 142 l 521 142 l 522 169 l 531 169 b 551 190 542 169 551 176 b 532 210 551 200 547 210 l 508 210 z m 51 540 l 58 540 l 58 560 l 74 560 l 72 565 l 58 565 l 58 576 l 75 576 l 74 583 l 51 583 z m 528 181 l 521 181 l 521 200 l 528 200 b 538 190 535 200 538 197 b 528 181 538 183 533 181 z m 640 0 l 719 0 l 786 86 l 707 86 z m 93 540 b 107 561 103 540 107 547 b 93 583 107 576 103 583 b 78 561 82 583 79 576 b 93 540 78 547 83 540 z m 93 544 b 86 561 88 544 86 547 b 93 578 88 576 88 578 b 100 561 96 578 100 576 b 93 544 100 547 96 544 z m 356 269 b 367 272 356 269 364 269 b 369 281 371 275 369 281 l 371 335 b 378 343 371 339 374 340 b 389 347 382 344 385 347 b 400 343 393 347 396 344 b 404 332 403 340 404 336 l 406 269 b 417 272 406 269 414 269 b 422 281 421 276 422 281 l 422 335 b 428 343 421 339 425 340 b 439 347 432 344 435 347 b 457 325 450 347 457 340 l 457 281 b 458 274 457 281 457 275 b 472 269 463 269 472 269 l 472 328 b 465 351 471 339 471 347 b 443 360 460 357 451 360 b 428 357 439 360 433 358 b 418 349 424 353 419 351 b 392 360 413 356 406 360 b 369 349 383 360 374 356 b 357 339 367 343 360 342 l 356 333 z m 565 142 l 603 142 l 603 153 l 578 153 l 578 172 l 599 172 l 600 183 l 579 183 l 578 199 l 601 199 l 601 210 l 565 210 z m 617 142 l 629 142 l 631 157 l 617 157 z m 113 540 l 121 540 l 121 558 l 126 558 b 132 551 131 558 133 557 b 133 543 133 549 133 547 l 133 540 l 142 540 b 140 543 142 542 140 542 l 140 553 b 133 561 139 558 136 561 b 139 572 139 561 140 567 b 128 583 140 581 135 583 l 113 583 z m 125 564 l 121 564 l 121 578 l 126 578 b 133 572 131 578 133 575 b 125 564 133 567 129 564 z m 175 540 b 189 556 185 540 188 547 l 182 556 b 174 544 181 551 179 544 b 168 561 169 544 168 549 b 175 578 168 575 169 578 b 182 569 179 578 182 575 l 189 569 b 174 583 189 575 186 583 b 160 561 163 583 161 576 b 175 540 160 547 163 540 z m 42 625 l 54 625 l 60 649 l 67 649 b 89 667 76 649 86 653 b 76 683 89 675 88 683 l 54 683 z m 782 0 l 850 0 l 850 86 l 847 86 z m 67 657 l 61 657 l 64 675 l 69 675 b 76 667 76 675 78 672 b 67 657 75 660 71 657 z m 668 142 b 690 168 685 142 689 153 l 675 168 b 667 151 675 153 672 151 b 658 175 663 151 658 156 b 667 201 658 194 660 201 b 675 186 674 201 675 197 l 688 186 b 668 211 689 197 686 211 b 644 176 646 211 646 197 b 668 142 644 156 646 142 z m 206 540 b 222 561 217 540 221 547 b 206 583 222 576 215 583 b 193 561 196 583 194 576 b 206 540 193 547 196 540 z m 206 544 b 200 561 203 544 200 547 b 206 578 200 576 203 578 b 214 561 210 578 214 576 b 206 544 213 547 210 544 z m 513 269 b 542 282 518 268 532 276 b 542 285 544 283 547 289 b 524 282 535 283 531 282 b 506 289 517 282 510 283 b 496 311 499 293 497 301 l 560 311 b 561 322 560 315 561 318 b 549 349 561 333 557 342 b 522 360 543 357 533 360 b 493 349 510 360 501 356 b 481 314 485 339 481 326 b 493 281 479 299 483 289 b 513 269 499 275 504 269 z m 90 625 l 124 625 l 126 635 l 104 635 l 106 650 l 126 650 l 131 660 l 110 660 l 113 674 l 133 674 l 135 683 l 101 683 z m 544 324 l 496 324 b 506 340 496 331 500 335 b 522 347 508 344 515 347 b 540 340 531 347 535 343 b 544 324 544 335 544 331 z m 228 540 l 233 540 l 233 576 l 243 540 l 247 540 l 257 576 l 256 540 l 263 540 l 263 583 l 253 583 l 246 551 l 244 551 l 238 583 l 228 583 z m 725 142 b 749 176 746 142 749 156 b 724 211 749 197 746 211 b 701 176 704 211 701 197 b 725 142 701 156 704 142 z m 725 151 b 717 176 717 151 717 158 b 725 201 717 194 717 201 b 735 176 733 201 735 194 b 725 151 735 158 733 151 z m 133 625 l 146 625 l 151 650 l 158 650 b 164 642 163 650 164 647 l 161 631 b 161 625 160 628 160 626 l 175 625 b 174 635 172 626 172 631 b 168 653 176 649 176 653 b 182 668 174 656 181 660 b 168 683 183 678 178 683 l 146 683 z m 158 658 l 153 658 l 156 675 l 161 675 b 168 667 168 675 169 672 b 158 658 168 660 163 658 z m 271 540 l 278 540 l 279 576 l 286 540 l 292 540 l 303 576 l 301 540 l 308 540 l 307 583 l 296 583 l 289 551 l 281 583 l 271 583 z m 626 281 b 610 294 615 281 610 285 b 618 308 610 300 613 306 b 638 315 624 314 629 315 b 647 314 639 315 643 315 l 646 292 b 626 281 642 285 635 281 z m 201 624 b 225 642 213 624 224 628 b 217 657 226 649 225 653 l 208 661 b 204 669 204 664 203 665 b 213 676 206 674 206 676 b 218 667 217 676 218 674 l 228 667 l 231 668 b 215 685 232 681 225 685 b 192 668 203 685 196 681 b 203 650 190 658 193 653 b 211 640 211 647 213 644 b 203 632 213 635 207 632 b 199 642 196 632 197 635 l 197 643 l 186 643 l 185 640 b 201 624 182 631 186 624 z m 763 142 l 776 142 l 776 197 l 788 142 l 799 142 l 813 197 l 811 142 l 824 142 l 824 210 l 804 210 l 793 161 l 783 210 l 764 210 z m 14 747 l 15 747 l 83 833 l 14 833 z m 314 540 l 338 540 l 338 547 l 321 547 l 321 560 l 338 560 l 338 565 l 321 565 l 322 576 l 339 576 l 338 583 l 314 583 z m 621 268 b 646 278 632 268 642 272 b 656 283 650 281 653 281 b 663 292 660 285 664 289 l 663 324 b 654 351 664 335 660 344 b 632 360 650 357 642 358 b 604 342 626 360 608 347 b 604 339 601 336 604 339 b 628 344 611 343 618 344 b 646 325 642 344 646 339 b 636 326 643 325 640 326 b 606 317 624 326 613 324 b 596 294 599 311 594 303 b 601 275 594 286 597 281 b 621 268 607 269 614 268 z m 600 268 b 597 272 600 268 603 272 b 585 297 590 274 585 285 l 585 482 b 572 478 585 482 575 481 b 569 468 569 475 569 468 l 571 294 b 600 268 569 276 581 268 z m 344 540 l 351 540 l 351 558 l 356 558 b 363 551 361 558 364 557 b 364 543 364 549 363 547 b 364 540 364 542 365 542 l 372 540 b 371 543 372 542 369 542 b 369 553 369 547 371 550 b 364 561 369 558 368 561 b 369 572 368 561 369 567 b 360 583 369 581 365 583 l 344 583 z m 356 564 l 350 564 l 351 578 l 356 578 b 363 572 361 578 364 575 b 356 564 363 567 361 564 z m 249 624 b 278 656 268 624 272 636 b 263 685 282 672 282 685 b 236 656 246 685 242 672 b 249 624 232 636 232 624 z m 253 632 b 247 656 244 632 244 639 b 261 676 251 669 254 676 b 264 656 268 676 268 669 b 253 632 261 639 260 632 z m 389 540 b 403 556 401 540 403 547 l 397 556 b 389 544 396 551 396 544 b 383 561 385 544 383 549 b 389 578 383 575 385 578 b 397 569 394 578 397 575 l 404 569 b 390 583 403 575 403 583 b 376 561 379 583 378 576 b 389 540 376 547 379 540 z m 408 540 l 417 540 l 415 583 l 407 583 z m 282 625 l 293 625 l 301 667 l 308 625 l 321 625 l 335 683 l 322 683 l 314 643 l 308 683 l 294 683 z m 78 747 l 157 747 l 222 833 l 143 833 z m 419 540 l 426 540 l 429 550 l 442 550 l 444 540 l 451 540 l 439 583 l 431 583 z m 431 557 l 436 576 l 440 557 z m 597 406 l 594 403 b 649 425 615 411 628 415 b 657 433 651 425 654 431 b 664 439 660 433 665 439 l 611 418 b 601 410 608 417 604 414 b 597 406 600 410 594 406 z m 483 535 l 482 532 b 489 540 488 532 490 535 l 490 549 l 483 549 l 483 540 l 485 540 b 483 535 485 536 485 535 z m 454 540 l 478 540 l 478 547 l 461 547 l 461 583 l 454 583 z m 329 625 l 343 625 l 347 636 l 363 636 l 363 625 l 376 625 l 372 683 l 358 683 z m 351 647 l 364 674 l 364 647 z m 385 625 l 418 625 l 421 635 l 399 635 l 410 683 l 397 683 z m 510 540 l 517 540 l 517 558 l 522 558 b 535 569 531 558 533 564 b 522 583 535 578 531 583 l 510 583 z m 521 564 l 515 564 l 517 578 l 521 578 b 529 569 526 578 528 575 b 521 564 528 565 524 564 z m 539 540 l 563 540 l 563 547 l 546 547 l 546 583 l 539 583 z m 218 747 l 297 747 l 363 833 l 285 833 z m 568 540 l 592 540 l 592 547 l 575 547 l 575 560 l 590 560 l 589 565 l 575 565 l 575 576 l 592 576 l 590 583 l 568 583 z m 469 624 b 493 642 479 624 490 626 l 501 683 l 489 683 l 482 642 b 471 632 479 636 476 632 b 467 642 467 632 464 636 l 475 683 l 463 683 l 456 642 b 469 624 451 626 460 624 z m 593 540 l 600 540 l 604 550 l 615 550 l 618 540 l 625 540 l 614 583 l 604 583 z m 606 557 l 611 576 l 615 557 z m 515 624 b 542 642 529 624 539 628 b 533 657 543 649 542 653 l 525 661 b 521 669 519 664 519 665 b 529 676 522 674 522 676 b 533 667 533 676 535 674 l 544 667 l 546 668 b 529 685 549 681 542 685 b 508 668 519 685 513 681 b 519 650 507 658 510 653 b 528 640 528 647 529 644 b 519 632 529 635 524 632 b 514 642 513 632 514 635 l 514 643 l 501 643 l 501 640 b 515 624 499 631 503 624 z m 639 540 b 654 551 650 540 656 543 b 646 564 654 558 651 561 l 642 565 b 635 574 636 567 635 568 b 639 578 636 576 638 578 b 646 574 644 578 647 576 l 646 572 l 653 572 l 653 574 b 640 583 654 576 651 583 b 628 572 632 583 628 581 b 636 560 628 565 632 561 l 642 558 b 649 550 646 557 649 556 b 640 544 649 549 644 544 b 635 551 636 544 635 547 l 635 553 l 628 553 b 639 540 628 547 629 540 z m 661 540 l 685 540 l 685 547 l 668 547 l 668 560 l 683 560 l 683 565 l 668 565 l 669 576 l 683 576 l 682 583 l 661 583 z m 549 625 l 582 625 l 585 635 l 563 635 l 564 650 l 585 650 l 589 660 l 568 660 l 572 674 l 592 674 l 594 683 l 561 683 z m 360 747 l 438 747 l 504 833 l 425 833 z m 710 540 l 718 540 l 728 583 l 721 583 l 714 549 l 706 583 l 699 583 z m 731 540 l 738 540 l 738 583 l 731 583 z m 635 624 b 661 656 653 624 657 636 b 649 685 667 672 667 685 b 621 656 629 685 625 672 b 635 624 618 636 615 624 z m 636 632 b 632 656 629 632 629 639 b 646 676 636 669 639 676 b 649 656 653 676 653 669 b 636 632 646 639 644 632 z m 758 540 b 771 551 767 540 772 543 b 763 564 771 558 769 561 l 758 565 b 751 574 754 567 751 568 b 758 578 753 576 754 578 b 763 574 761 578 764 576 l 763 572 l 771 572 l 771 574 b 757 583 772 576 769 583 b 744 572 749 583 744 581 b 754 560 744 565 749 561 l 758 558 b 765 550 764 557 765 556 b 757 544 765 549 763 544 b 751 551 753 544 751 547 l 751 553 l 744 553 b 758 540 744 547 746 540 z m 778 540 l 785 540 l 785 583 l 778 583 z m 797 540 l 806 540 l 807 576 l 817 576 l 815 583 l 788 583 l 789 576 l 799 576 z m 667 625 l 678 625 l 686 667 l 693 625 l 707 625 l 719 683 l 708 683 l 700 643 l 693 683 l 679 683 z m 719 625 l 751 625 l 756 635 l 733 635 l 743 683 l 731 683 z m 499 747 l 579 747 l 644 833 l 564 833 z m 804 625 l 815 625 l 818 635 l 807 635 z m 765 625 l 778 625 l 783 649 l 806 683 l 793 683 l 781 661 l 776 683 l 763 683 l 771 649 z m 810 642 l 818 642 l 825 665 l 828 683 l 817 683 l 813 665 z m 639 747 l 719 747 l 785 833 l 706 833 z m 781 747 l 849 747 l 850 833 l 846 833 z "},"5":{"ha":864,"x_min":0,"x_max":0,"o":"m 210 367 b 224 375 214 368 222 372 b 226 385 226 378 226 382 b 221 390 225 386 221 389 l 222 392 l 224 392 b 483 456 256 400 442 435 b 496 461 489 457 493 460 l 501 467 b 499 467 503 468 501 468 b 233 403 451 447 265 414 b 224 397 228 401 226 399 l 215 390 b 217 381 213 386 213 383 b 215 372 219 376 218 374 b 210 368 214 372 211 369 b 210 367 210 368 208 367 z m 15 0 l 17 0 l 83 86 l 15 86 z m 78 0 l 158 0 l 224 86 l 144 86 z m 44 142 l 58 142 l 58 190 l 75 142 l 90 142 l 90 210 l 79 210 l 78 164 l 63 210 l 46 210 z m 101 142 l 117 142 l 118 157 l 136 157 l 140 142 l 154 142 l 138 210 l 121 210 z m 218 0 l 299 0 l 364 86 l 286 86 z m 121 168 l 128 199 l 135 168 z m 167 142 l 178 142 l 179 197 l 192 142 l 201 142 l 214 197 l 213 142 l 226 142 l 226 210 l 207 210 l 196 161 l 188 210 l 167 210 z m 243 142 l 282 142 l 281 153 l 256 153 l 256 172 l 279 172 l 281 183 l 257 183 l 256 199 l 279 199 l 281 210 l 243 210 z m 360 0 l 439 0 l 506 86 l 425 86 z m 294 142 l 333 142 l 333 153 l 308 153 l 308 210 l 296 210 z m 342 142 l 354 142 l 358 157 l 376 157 l 379 142 l 393 142 l 376 210 l 358 210 z m 361 168 l 365 199 l 368 199 l 374 168 z m 199 335 l 199 269 b 211 272 199 269 208 269 b 215 281 215 275 215 281 l 215 335 b 222 343 217 339 219 342 b 235 347 226 344 231 347 b 249 340 242 347 244 344 b 253 322 251 336 253 331 l 253 281 b 254 272 253 281 254 275 b 269 269 258 268 269 269 l 268 325 b 240 360 268 349 258 360 b 215 347 229 360 219 356 b 201 340 211 343 208 344 b 199 335 199 339 199 335 z m 500 0 l 581 0 l 646 86 l 565 86 z m 411 142 l 425 142 l 424 199 l 439 199 l 440 210 l 397 210 l 396 199 l 411 199 z m 308 281 b 292 294 299 281 292 285 b 300 308 292 300 294 306 b 321 315 306 314 313 315 b 331 314 322 315 325 315 l 329 292 b 308 281 322 285 317 281 z m 301 268 b 329 278 314 268 322 272 b 338 283 332 281 335 281 b 344 292 342 285 346 289 l 344 324 b 336 351 346 335 342 344 b 314 360 331 357 324 358 b 286 342 308 360 292 347 b 288 339 283 336 288 339 b 310 344 293 343 300 344 b 329 325 324 344 329 339 b 318 326 325 325 322 326 b 288 317 307 326 296 324 b 276 294 279 311 276 303 b 285 275 276 286 281 281 b 301 268 290 269 296 268 z m 465 142 l 478 142 l 478 168 l 497 210 l 482 210 l 472 183 l 464 210 l 449 210 l 465 168 z m 279 356 b 292 378 281 356 293 376 b 279 393 285 381 279 386 b 276 393 278 394 276 393 b 274 386 275 392 274 390 l 267 374 b 279 356 265 365 274 358 z m 508 142 l 521 142 l 522 169 l 531 169 b 551 190 542 169 551 176 b 532 210 551 200 547 210 l 508 210 z m 51 540 l 58 540 l 58 560 l 74 560 l 72 565 l 58 565 l 58 576 l 75 576 l 74 583 l 51 583 z m 528 181 l 521 181 l 521 200 l 528 200 b 538 190 535 200 538 197 b 528 181 538 183 533 181 z m 640 0 l 719 0 l 786 86 l 707 86 z m 93 540 b 107 561 103 540 107 547 b 93 583 107 576 103 583 b 78 561 82 583 79 576 b 93 540 78 547 83 540 z m 93 544 b 86 561 88 544 86 547 b 93 578 88 576 88 578 b 100 561 96 578 100 576 b 93 544 100 547 96 544 z m 356 269 b 367 272 356 269 364 269 b 369 281 371 275 369 281 l 371 335 b 378 343 371 339 374 340 b 389 347 382 344 385 347 b 400 343 393 347 396 344 b 404 332 403 340 404 336 l 406 269 b 417 272 406 269 414 269 b 422 281 421 276 422 281 l 422 335 b 428 343 421 339 425 340 b 439 347 432 344 435 347 b 457 325 450 347 457 340 l 457 281 b 458 274 457 281 457 275 b 472 269 463 269 472 269 l 472 328 b 465 351 471 339 471 347 b 443 360 460 357 451 360 b 428 357 439 360 433 358 b 418 349 424 353 419 351 b 392 360 413 356 406 360 b 369 349 383 360 374 356 b 357 339 367 343 360 342 l 356 333 z m 565 142 l 603 142 l 603 153 l 578 153 l 578 172 l 599 172 l 600 183 l 579 183 l 578 199 l 601 199 l 601 210 l 565 210 z m 617 142 l 629 142 l 631 157 l 617 157 z m 113 540 l 121 540 l 121 558 l 126 558 b 132 551 131 558 133 557 b 133 543 133 549 133 547 l 133 540 l 142 540 b 140 543 142 542 140 542 l 140 553 b 133 561 139 558 136 561 b 139 572 139 561 140 567 b 128 583 140 581 135 583 l 113 583 z m 125 564 l 121 564 l 121 578 l 126 578 b 133 572 131 578 133 575 b 125 564 133 567 129 564 z m 175 540 b 189 556 185 540 188 547 l 182 556 b 174 544 181 551 179 544 b 168 561 169 544 168 549 b 175 578 168 575 169 578 b 182 569 179 578 182 575 l 189 569 b 174 583 189 575 186 583 b 160 561 163 583 161 576 b 175 540 160 547 163 540 z m 42 625 l 54 625 l 60 649 l 67 649 b 89 667 76 649 86 653 b 76 683 89 675 88 683 l 54 683 z m 782 0 l 850 0 l 850 86 l 847 86 z m 67 657 l 61 657 l 64 675 l 69 675 b 76 667 76 675 78 672 b 67 657 75 660 71 657 z m 668 142 b 690 168 685 142 689 153 l 675 168 b 667 151 675 153 672 151 b 658 175 663 151 658 156 b 667 201 658 194 660 201 b 675 186 674 201 675 197 l 688 186 b 668 211 689 197 686 211 b 644 176 646 211 646 197 b 668 142 644 156 646 142 z m 206 540 b 222 561 217 540 221 547 b 206 583 222 576 215 583 b 193 561 196 583 194 576 b 206 540 193 547 196 540 z m 206 544 b 200 561 203 544 200 547 b 206 578 200 576 203 578 b 214 561 210 578 214 576 b 206 544 213 547 210 544 z m 513 269 b 542 282 518 268 532 276 b 542 285 544 283 547 289 b 524 282 535 283 531 282 b 506 289 517 282 510 283 b 496 311 499 293 497 301 l 560 311 b 561 322 560 315 561 318 b 549 349 561 333 557 342 b 522 360 543 357 533 360 b 493 349 510 360 501 356 b 481 314 485 339 481 326 b 493 281 479 299 483 289 b 513 269 499 275 504 269 z m 90 625 l 124 625 l 126 635 l 104 635 l 106 650 l 126 650 l 131 660 l 110 660 l 113 674 l 133 674 l 135 683 l 101 683 z m 544 324 l 496 324 b 506 340 496 331 500 335 b 522 347 508 344 515 347 b 540 340 531 347 535 343 b 544 324 544 335 544 331 z m 228 540 l 233 540 l 233 576 l 243 540 l 247 540 l 257 576 l 256 540 l 263 540 l 263 583 l 253 583 l 246 551 l 244 551 l 238 583 l 228 583 z m 725 142 b 749 176 746 142 749 156 b 724 211 749 197 746 211 b 701 176 704 211 701 197 b 725 142 701 156 704 142 z m 725 151 b 717 176 717 151 717 158 b 725 201 717 194 717 201 b 735 176 733 201 735 194 b 725 151 735 158 733 151 z m 133 625 l 146 625 l 151 650 l 158 650 b 164 642 163 650 164 647 l 161 631 b 161 625 160 628 160 626 l 175 625 b 174 635 172 626 172 631 b 168 653 176 649 176 653 b 182 668 174 656 181 660 b 168 683 183 678 178 683 l 146 683 z m 158 658 l 153 658 l 156 675 l 161 675 b 168 667 168 675 169 672 b 158 658 168 660 163 658 z m 271 540 l 278 540 l 279 576 l 286 540 l 292 540 l 303 576 l 301 540 l 308 540 l 307 583 l 296 583 l 289 551 l 281 583 l 271 583 z m 626 281 b 610 294 615 281 610 285 b 618 308 610 300 613 306 b 638 315 624 314 629 315 b 647 314 639 315 643 315 l 646 292 b 626 281 642 285 635 281 z m 201 624 b 225 642 213 624 224 628 b 217 657 226 649 225 653 l 208 661 b 204 669 204 664 203 665 b 213 676 206 674 206 676 b 218 667 217 676 218 674 l 228 667 l 231 668 b 215 685 232 681 225 685 b 192 668 203 685 196 681 b 203 650 190 658 193 653 b 211 640 211 647 213 644 b 203 632 213 635 207 632 b 199 642 196 632 197 635 l 197 643 l 186 643 l 185 640 b 201 624 182 631 186 624 z m 763 142 l 776 142 l 776 197 l 788 142 l 799 142 l 813 197 l 811 142 l 824 142 l 824 210 l 804 210 l 793 161 l 783 210 l 764 210 z m 14 747 l 15 747 l 83 833 l 14 833 z m 314 540 l 338 540 l 338 547 l 321 547 l 321 560 l 338 560 l 338 565 l 321 565 l 322 576 l 339 576 l 338 583 l 314 583 z m 621 268 b 646 278 632 268 642 272 b 656 283 650 281 653 281 b 663 292 660 285 664 289 l 663 324 b 654 351 664 335 660 344 b 632 360 650 357 642 358 b 604 342 626 360 608 347 b 604 339 601 336 604 339 b 628 344 611 343 618 344 b 646 325 642 344 646 339 b 636 326 643 325 640 326 b 606 317 624 326 613 324 b 596 294 599 311 594 303 b 601 275 594 286 597 281 b 621 268 607 269 614 268 z m 600 268 b 597 272 600 268 603 272 b 585 297 590 274 585 285 l 585 482 b 572 478 585 482 575 481 b 569 468 569 475 569 468 l 571 294 b 600 268 569 276 581 268 z m 344 540 l 351 540 l 351 558 l 356 558 b 363 551 361 558 364 557 b 364 543 364 549 363 547 b 364 540 364 542 365 542 l 372 540 b 371 543 372 542 369 542 b 369 553 369 547 371 550 b 364 561 369 558 368 561 b 369 572 368 561 369 567 b 360 583 369 581 365 583 l 344 583 z m 356 564 l 350 564 l 351 578 l 356 578 b 363 572 361 578 364 575 b 356 564 363 567 361 564 z m 249 624 b 278 656 268 624 272 636 b 263 685 282 672 282 685 b 236 656 246 685 242 672 b 249 624 232 636 232 624 z m 253 632 b 247 656 244 632 244 639 b 261 676 251 669 254 676 b 264 656 268 676 268 669 b 253 632 261 639 260 632 z m 389 540 b 403 556 401 540 403 547 l 397 556 b 389 544 396 551 396 544 b 383 561 385 544 383 549 b 389 578 383 575 385 578 b 397 569 394 578 397 575 l 404 569 b 390 583 403 575 403 583 b 376 561 379 583 378 576 b 389 540 376 547 379 540 z m 408 540 l 417 540 l 415 583 l 407 583 z m 282 625 l 293 625 l 301 667 l 308 625 l 321 625 l 335 683 l 322 683 l 314 643 l 308 683 l 294 683 z m 78 747 l 157 747 l 222 833 l 143 833 z m 419 540 l 426 540 l 429 550 l 442 550 l 444 540 l 451 540 l 439 583 l 431 583 z m 431 557 l 436 576 l 440 557 z m 597 406 l 594 403 b 649 425 615 411 628 415 b 657 433 651 425 654 431 b 664 439 660 433 665 439 l 611 418 b 601 410 608 417 604 414 b 597 406 600 410 594 406 z m 483 535 l 482 532 b 489 540 488 532 490 535 l 490 549 l 483 549 l 483 540 l 485 540 b 483 535 485 536 485 535 z m 454 540 l 478 540 l 478 547 l 461 547 l 461 583 l 454 583 z m 329 625 l 343 625 l 347 636 l 363 636 l 363 625 l 376 625 l 372 683 l 358 683 z m 351 647 l 364 674 l 364 647 z m 385 625 l 418 625 l 421 635 l 399 635 l 410 683 l 397 683 z m 510 540 l 517 540 l 517 558 l 522 558 b 535 569 531 558 533 564 b 522 583 535 578 531 583 l 510 583 z m 521 564 l 515 564 l 517 578 l 521 578 b 529 569 526 578 528 575 b 521 564 528 565 524 564 z m 539 540 l 563 540 l 563 547 l 546 547 l 546 583 l 539 583 z m 218 747 l 297 747 l 363 833 l 285 833 z m 568 540 l 592 540 l 592 547 l 575 547 l 575 560 l 590 560 l 589 565 l 575 565 l 575 576 l 592 576 l 590 583 l 568 583 z m 469 624 b 493 642 479 624 490 626 l 501 683 l 489 683 l 482 642 b 471 632 479 636 476 632 b 467 642 467 632 464 636 l 475 683 l 463 683 l 456 642 b 469 624 451 626 460 624 z m 593 540 l 600 540 l 604 550 l 615 550 l 618 540 l 625 540 l 614 583 l 604 583 z m 606 557 l 611 576 l 615 557 z m 515 624 b 542 642 529 624 539 628 b 533 657 543 649 542 653 l 525 661 b 521 669 519 664 519 665 b 529 676 522 674 522 676 b 533 667 533 676 535 674 l 544 667 l 546 668 b 529 685 549 681 542 685 b 508 668 519 685 513 681 b 519 650 507 658 510 653 b 528 640 528 647 529 644 b 519 632 529 635 524 632 b 514 642 513 632 514 635 l 514 643 l 501 643 l 501 640 b 515 624 499 631 503 624 z m 639 540 b 654 551 650 540 656 543 b 646 564 654 558 651 561 l 642 565 b 635 574 636 567 635 568 b 639 578 636 576 638 578 b 646 574 644 578 647 576 l 646 572 l 653 572 l 653 574 b 640 583 654 576 651 583 b 628 572 632 583 628 581 b 636 560 628 565 632 561 l 642 558 b 649 550 646 557 649 556 b 640 544 649 549 644 544 b 635 551 636 544 635 547 l 635 553 l 628 553 b 639 540 628 547 629 540 z m 661 540 l 685 540 l 685 547 l 668 547 l 668 560 l 683 560 l 683 565 l 668 565 l 669 576 l 683 576 l 682 583 l 661 583 z m 549 625 l 582 625 l 585 635 l 563 635 l 564 650 l 585 650 l 589 660 l 568 660 l 572 674 l 592 674 l 594 683 l 561 683 z m 360 747 l 438 747 l 504 833 l 425 833 z m 710 540 l 718 540 l 728 583 l 721 583 l 714 549 l 706 583 l 699 583 z m 731 540 l 738 540 l 738 583 l 731 583 z m 635 624 b 661 656 653 624 657 636 b 649 685 667 672 667 685 b 621 656 629 685 625 672 b 635 624 618 636 615 624 z m 636 632 b 632 656 629 632 629 639 b 646 676 636 669 639 676 b 649 656 653 676 653 669 b 636 632 646 639 644 632 z m 758 540 b 771 551 767 540 772 543 b 763 564 771 558 769 561 l 758 565 b 751 574 754 567 751 568 b 758 578 753 576 754 578 b 763 574 761 578 764 576 l 763 572 l 771 572 l 771 574 b 757 583 772 576 769 583 b 744 572 749 583 744 581 b 754 560 744 565 749 561 l 758 558 b 765 550 764 557 765 556 b 757 544 765 549 763 544 b 751 551 753 544 751 547 l 751 553 l 744 553 b 758 540 744 547 746 540 z m 778 540 l 785 540 l 785 583 l 778 583 z m 797 540 l 806 540 l 807 576 l 817 576 l 815 583 l 788 583 l 789 576 l 799 576 z m 667 625 l 678 625 l 686 667 l 693 625 l 707 625 l 719 683 l 708 683 l 700 643 l 693 683 l 679 683 z m 719 625 l 751 625 l 756 635 l 733 635 l 743 683 l 731 683 z m 499 747 l 579 747 l 644 833 l 564 833 z m 804 625 l 815 625 l 818 635 l 807 635 z m 765 625 l 778 625 l 783 649 l 806 683 l 793 683 l 781 661 l 776 683 l 763 683 l 771 649 z m 810 642 l 818 642 l 825 665 l 828 683 l 817 683 l 813 665 z m 639 747 l 719 747 l 785 833 l 706 833 z m 781 747 l 849 747 l 850 833 l 846 833 z "},"6":{"ha":864,"x_min":0,"x_max":0,"o":"m 210 367 b 224 375 214 368 222 372 b 226 385 226 378 226 382 b 221 390 225 386 221 389 l 222 392 l 224 392 b 483 456 256 400 442 435 b 496 461 489 457 493 460 l 501 467 b 499 467 503 468 501 468 b 233 403 451 447 265 414 b 224 397 228 401 226 399 l 215 390 b 217 381 213 386 213 383 b 215 372 219 376 218 374 b 210 368 214 372 211 369 b 210 367 210 368 208 367 z m 15 0 l 17 0 l 83 86 l 15 86 z m 78 0 l 158 0 l 224 86 l 144 86 z m 44 142 l 58 142 l 58 190 l 75 142 l 90 142 l 90 210 l 79 210 l 78 164 l 63 210 l 46 210 z m 101 142 l 117 142 l 118 157 l 136 157 l 140 142 l 154 142 l 138 210 l 121 210 z m 218 0 l 299 0 l 364 86 l 286 86 z m 121 168 l 128 199 l 135 168 z m 167 142 l 178 142 l 179 197 l 192 142 l 201 142 l 214 197 l 213 142 l 226 142 l 226 210 l 207 210 l 196 161 l 188 210 l 167 210 z m 243 142 l 282 142 l 281 153 l 256 153 l 256 172 l 279 172 l 281 183 l 257 183 l 256 199 l 279 199 l 281 210 l 243 210 z m 360 0 l 439 0 l 506 86 l 425 86 z m 294 142 l 333 142 l 333 153 l 308 153 l 308 210 l 296 210 z m 342 142 l 354 142 l 358 157 l 376 157 l 379 142 l 393 142 l 376 210 l 358 210 z m 361 168 l 365 199 l 368 199 l 374 168 z m 199 335 l 199 269 b 211 272 199 269 208 269 b 215 281 215 275 215 281 l 215 335 b 222 343 217 339 219 342 b 235 347 226 344 231 347 b 249 340 242 347 244 344 b 253 322 251 336 253 331 l 253 281 b 254 272 253 281 254 275 b 269 269 258 268 269 269 l 268 325 b 240 360 268 349 258 360 b 215 347 229 360 219 356 b 201 340 211 343 208 344 b 199 335 199 339 199 335 z m 500 0 l 581 0 l 646 86 l 565 86 z m 411 142 l 425 142 l 424 199 l 439 199 l 440 210 l 397 210 l 396 199 l 411 199 z m 308 281 b 292 294 299 281 292 285 b 300 308 292 300 294 306 b 321 315 306 314 313 315 b 331 314 322 315 325 315 l 329 292 b 308 281 322 285 317 281 z m 301 268 b 329 278 314 268 322 272 b 338 283 332 281 335 281 b 344 292 342 285 346 289 l 344 324 b 336 351 346 335 342 344 b 314 360 331 357 324 358 b 286 342 308 360 292 347 b 288 339 283 336 288 339 b 310 344 293 343 300 344 b 329 325 324 344 329 339 b 318 326 325 325 322 326 b 288 317 307 326 296 324 b 276 294 279 311 276 303 b 285 275 276 286 281 281 b 301 268 290 269 296 268 z m 465 142 l 478 142 l 478 168 l 497 210 l 482 210 l 472 183 l 464 210 l 449 210 l 465 168 z m 279 356 b 292 378 281 356 293 376 b 279 393 285 381 279 386 b 276 393 278 394 276 393 b 274 386 275 392 274 390 l 267 374 b 279 356 265 365 274 358 z m 508 142 l 521 142 l 522 169 l 531 169 b 551 190 542 169 551 176 b 532 210 551 200 547 210 l 508 210 z m 51 540 l 58 540 l 58 560 l 74 560 l 72 565 l 58 565 l 58 576 l 75 576 l 74 583 l 51 583 z m 528 181 l 521 181 l 521 200 l 528 200 b 538 190 535 200 538 197 b 528 181 538 183 533 181 z m 640 0 l 719 0 l 786 86 l 707 86 z m 93 540 b 107 561 103 540 107 547 b 93 583 107 576 103 583 b 78 561 82 583 79 576 b 93 540 78 547 83 540 z m 93 544 b 86 561 88 544 86 547 b 93 578 88 576 88 578 b 100 561 96 578 100 576 b 93 544 100 547 96 544 z m 356 269 b 367 272 356 269 364 269 b 369 281 371 275 369 281 l 371 335 b 378 343 371 339 374 340 b 389 347 382 344 385 347 b 400 343 393 347 396 344 b 404 332 403 340 404 336 l 406 269 b 417 272 406 269 414 269 b 422 281 421 276 422 281 l 422 335 b 428 343 421 339 425 340 b 439 347 432 344 435 347 b 457 325 450 347 457 340 l 457 281 b 458 274 457 281 457 275 b 472 269 463 269 472 269 l 472 328 b 465 351 471 339 471 347 b 443 360 460 357 451 360 b 428 357 439 360 433 358 b 418 349 424 353 419 351 b 392 360 413 356 406 360 b 369 349 383 360 374 356 b 357 339 367 343 360 342 l 356 333 z m 565 142 l 603 142 l 603 153 l 578 153 l 578 172 l 599 172 l 600 183 l 579 183 l 578 199 l 601 199 l 601 210 l 565 210 z m 617 142 l 629 142 l 631 157 l 617 157 z m 113 540 l 121 540 l 121 558 l 126 558 b 132 551 131 558 133 557 b 133 543 133 549 133 547 l 133 540 l 142 540 b 140 543 142 542 140 542 l 140 553 b 133 561 139 558 136 561 b 139 572 139 561 140 567 b 128 583 140 581 135 583 l 113 583 z m 125 564 l 121 564 l 121 578 l 126 578 b 133 572 131 578 133 575 b 125 564 133 567 129 564 z m 175 540 b 189 556 185 540 188 547 l 182 556 b 174 544 181 551 179 544 b 168 561 169 544 168 549 b 175 578 168 575 169 578 b 182 569 179 578 182 575 l 189 569 b 174 583 189 575 186 583 b 160 561 163 583 161 576 b 175 540 160 547 163 540 z m 42 625 l 54 625 l 60 649 l 67 649 b 89 667 76 649 86 653 b 76 683 89 675 88 683 l 54 683 z m 782 0 l 850 0 l 850 86 l 847 86 z m 67 657 l 61 657 l 64 675 l 69 675 b 76 667 76 675 78 672 b 67 657 75 660 71 657 z m 668 142 b 690 168 685 142 689 153 l 675 168 b 667 151 675 153 672 151 b 658 175 663 151 658 156 b 667 201 658 194 660 201 b 675 186 674 201 675 197 l 688 186 b 668 211 689 197 686 211 b 644 176 646 211 646 197 b 668 142 644 156 646 142 z m 206 540 b 222 561 217 540 221 547 b 206 583 222 576 215 583 b 193 561 196 583 194 576 b 206 540 193 547 196 540 z m 206 544 b 200 561 203 544 200 547 b 206 578 200 576 203 578 b 214 561 210 578 214 576 b 206 544 213 547 210 544 z m 513 269 b 542 282 518 268 532 276 b 542 285 544 283 547 289 b 524 282 535 283 531 282 b 506 289 517 282 510 283 b 496 311 499 293 497 301 l 560 311 b 561 322 560 315 561 318 b 549 349 561 333 557 342 b 522 360 543 357 533 360 b 493 349 510 360 501 356 b 481 314 485 339 481 326 b 493 281 479 299 483 289 b 513 269 499 275 504 269 z m 90 625 l 124 625 l 126 635 l 104 635 l 106 650 l 126 650 l 131 660 l 110 660 l 113 674 l 133 674 l 135 683 l 101 683 z m 544 324 l 496 324 b 506 340 496 331 500 335 b 522 347 508 344 515 347 b 540 340 531 347 535 343 b 544 324 544 335 544 331 z m 228 540 l 233 540 l 233 576 l 243 540 l 247 540 l 257 576 l 256 540 l 263 540 l 263 583 l 253 583 l 246 551 l 244 551 l 238 583 l 228 583 z m 725 142 b 749 176 746 142 749 156 b 724 211 749 197 746 211 b 701 176 704 211 701 197 b 725 142 701 156 704 142 z m 725 151 b 717 176 717 151 717 158 b 725 201 717 194 717 201 b 735 176 733 201 735 194 b 725 151 735 158 733 151 z m 133 625 l 146 625 l 151 650 l 158 650 b 164 642 163 650 164 647 l 161 631 b 161 625 160 628 160 626 l 175 625 b 174 635 172 626 172 631 b 168 653 176 649 176 653 b 182 668 174 656 181 660 b 168 683 183 678 178 683 l 146 683 z m 158 658 l 153 658 l 156 675 l 161 675 b 168 667 168 675 169 672 b 158 658 168 660 163 658 z m 271 540 l 278 540 l 279 576 l 286 540 l 292 540 l 303 576 l 301 540 l 308 540 l 307 583 l 296 583 l 289 551 l 281 583 l 271 583 z m 626 281 b 610 294 615 281 610 285 b 618 308 610 300 613 306 b 638 315 624 314 629 315 b 647 314 639 315 643 315 l 646 292 b 626 281 642 285 635 281 z m 201 624 b 225 642 213 624 224 628 b 217 657 226 649 225 653 l 208 661 b 204 669 204 664 203 665 b 213 676 206 674 206 676 b 218 667 217 676 218 674 l 228 667 l 231 668 b 215 685 232 681 225 685 b 192 668 203 685 196 681 b 203 650 190 658 193 653 b 211 640 211 647 213 644 b 203 632 213 635 207 632 b 199 642 196 632 197 635 l 197 643 l 186 643 l 185 640 b 201 624 182 631 186 624 z m 763 142 l 776 142 l 776 197 l 788 142 l 799 142 l 813 197 l 811 142 l 824 142 l 824 210 l 804 210 l 793 161 l 783 210 l 764 210 z m 14 747 l 15 747 l 83 833 l 14 833 z m 314 540 l 338 540 l 338 547 l 321 547 l 321 560 l 338 560 l 338 565 l 321 565 l 322 576 l 339 576 l 338 583 l 314 583 z m 621 268 b 646 278 632 268 642 272 b 656 283 650 281 653 281 b 663 292 660 285 664 289 l 663 324 b 654 351 664 335 660 344 b 632 360 650 357 642 358 b 604 342 626 360 608 347 b 604 339 601 336 604 339 b 628 344 611 343 618 344 b 646 325 642 344 646 339 b 636 326 643 325 640 326 b 606 317 624 326 613 324 b 596 294 599 311 594 303 b 601 275 594 286 597 281 b 621 268 607 269 614 268 z m 600 268 b 597 272 600 268 603 272 b 585 297 590 274 585 285 l 585 482 b 572 478 585 482 575 481 b 569 468 569 475 569 468 l 571 294 b 600 268 569 276 581 268 z m 344 540 l 351 540 l 351 558 l 356 558 b 363 551 361 558 364 557 b 364 543 364 549 363 547 b 364 540 364 542 365 542 l 372 540 b 371 543 372 542 369 542 b 369 553 369 547 371 550 b 364 561 369 558 368 561 b 369 572 368 561 369 567 b 360 583 369 581 365 583 l 344 583 z m 356 564 l 350 564 l 351 578 l 356 578 b 363 572 361 578 364 575 b 356 564 363 567 361 564 z m 249 624 b 278 656 268 624 272 636 b 263 685 282 672 282 685 b 236 656 246 685 242 672 b 249 624 232 636 232 624 z m 253 632 b 247 656 244 632 244 639 b 261 676 251 669 254 676 b 264 656 268 676 268 669 b 253 632 261 639 260 632 z m 389 540 b 403 556 401 540 403 547 l 397 556 b 389 544 396 551 396 544 b 383 561 385 544 383 549 b 389 578 383 575 385 578 b 397 569 394 578 397 575 l 404 569 b 390 583 403 575 403 583 b 376 561 379 583 378 576 b 389 540 376 547 379 540 z m 408 540 l 417 540 l 415 583 l 407 583 z m 282 625 l 293 625 l 301 667 l 308 625 l 321 625 l 335 683 l 322 683 l 314 643 l 308 683 l 294 683 z m 78 747 l 157 747 l 222 833 l 143 833 z m 419 540 l 426 540 l 429 550 l 442 550 l 444 540 l 451 540 l 439 583 l 431 583 z m 431 557 l 436 576 l 440 557 z m 597 406 l 594 403 b 649 425 615 411 628 415 b 657 433 651 425 654 431 b 664 439 660 433 665 439 l 611 418 b 601 410 608 417 604 414 b 597 406 600 410 594 406 z m 483 535 l 482 532 b 489 540 488 532 490 535 l 490 549 l 483 549 l 483 540 l 485 540 b 483 535 485 536 485 535 z m 454 540 l 478 540 l 478 547 l 461 547 l 461 583 l 454 583 z m 329 625 l 343 625 l 347 636 l 363 636 l 363 625 l 376 625 l 372 683 l 358 683 z m 351 647 l 364 674 l 364 647 z m 385 625 l 418 625 l 421 635 l 399 635 l 410 683 l 397 683 z m 510 540 l 517 540 l 517 558 l 522 558 b 535 569 531 558 533 564 b 522 583 535 578 531 583 l 510 583 z m 521 564 l 515 564 l 517 578 l 521 578 b 529 569 526 578 528 575 b 521 564 528 565 524 564 z m 539 540 l 563 540 l 563 547 l 546 547 l 546 583 l 539 583 z m 218 747 l 297 747 l 363 833 l 285 833 z m 568 540 l 592 540 l 592 547 l 575 547 l 575 560 l 590 560 l 589 565 l 575 565 l 575 576 l 592 576 l 590 583 l 568 583 z m 469 624 b 493 642 479 624 490 626 l 501 683 l 489 683 l 482 642 b 471 632 479 636 476 632 b 467 642 467 632 464 636 l 475 683 l 463 683 l 456 642 b 469 624 451 626 460 624 z m 593 540 l 600 540 l 604 550 l 615 550 l 618 540 l 625 540 l 614 583 l 604 583 z m 606 557 l 611 576 l 615 557 z m 515 624 b 542 642 529 624 539 628 b 533 657 543 649 542 653 l 525 661 b 521 669 519 664 519 665 b 529 676 522 674 522 676 b 533 667 533 676 535 674 l 544 667 l 546 668 b 529 685 549 681 542 685 b 508 668 519 685 513 681 b 519 650 507 658 510 653 b 528 640 528 647 529 644 b 519 632 529 635 524 632 b 514 642 513 632 514 635 l 514 643 l 501 643 l 501 640 b 515 624 499 631 503 624 z m 639 540 b 654 551 650 540 656 543 b 646 564 654 558 651 561 l 642 565 b 635 574 636 567 635 568 b 639 578 636 576 638 578 b 646 574 644 578 647 576 l 646 572 l 653 572 l 653 574 b 640 583 654 576 651 583 b 628 572 632 583 628 581 b 636 560 628 565 632 561 l 642 558 b 649 550 646 557 649 556 b 640 544 649 549 644 544 b 635 551 636 544 635 547 l 635 553 l 628 553 b 639 540 628 547 629 540 z m 661 540 l 685 540 l 685 547 l 668 547 l 668 560 l 683 560 l 683 565 l 668 565 l 669 576 l 683 576 l 682 583 l 661 583 z m 549 625 l 582 625 l 585 635 l 563 635 l 564 650 l 585 650 l 589 660 l 568 660 l 572 674 l 592 674 l 594 683 l 561 683 z m 360 747 l 438 747 l 504 833 l 425 833 z m 710 540 l 718 540 l 728 583 l 721 583 l 714 549 l 706 583 l 699 583 z m 731 540 l 738 540 l 738 583 l 731 583 z m 635 624 b 661 656 653 624 657 636 b 649 685 667 672 667 685 b 621 656 629 685 625 672 b 635 624 618 636 615 624 z m 636 632 b 632 656 629 632 629 639 b 646 676 636 669 639 676 b 649 656 653 676 653 669 b 636 632 646 639 644 632 z m 758 540 b 771 551 767 540 772 543 b 763 564 771 558 769 561 l 758 565 b 751 574 754 567 751 568 b 758 578 753 576 754 578 b 763 574 761 578 764 576 l 763 572 l 771 572 l 771 574 b 757 583 772 576 769 583 b 744 572 749 583 744 581 b 754 560 744 565 749 561 l 758 558 b 765 550 764 557 765 556 b 757 544 765 549 763 544 b 751 551 753 544 751 547 l 751 553 l 744 553 b 758 540 744 547 746 540 z m 778 540 l 785 540 l 785 583 l 778 583 z m 797 540 l 806 540 l 807 576 l 817 576 l 815 583 l 788 583 l 789 576 l 799 576 z m 667 625 l 678 625 l 686 667 l 693 625 l 707 625 l 719 683 l 708 683 l 700 643 l 693 683 l 679 683 z m 719 625 l 751 625 l 756 635 l 733 635 l 743 683 l 731 683 z m 499 747 l 579 747 l 644 833 l 564 833 z m 804 625 l 815 625 l 818 635 l 807 635 z m 765 625 l 778 625 l 783 649 l 806 683 l 793 683 l 781 661 l 776 683 l 763 683 l 771 649 z m 810 642 l 818 642 l 825 665 l 828 683 l 817 683 l 813 665 z m 639 747 l 719 747 l 785 833 l 706 833 z m 781 747 l 849 747 l 850 833 l 846 833 z "},"7":{"ha":864,"x_min":0,"x_max":0,"o":"m 210 367 b 224 375 214 368 222 372 b 226 385 226 378 226 382 b 221 390 225 386 221 389 l 222 392 l 224 392 b 483 456 256 400 442 435 b 496 461 489 457 493 460 l 501 467 b 499 467 503 468 501 468 b 233 403 451 447 265 414 b 224 397 228 401 226 399 l 215 390 b 217 381 213 386 213 383 b 215 372 219 376 218 374 b 210 368 214 372 211 369 b 210 367 210 368 208 367 z m 15 0 l 17 0 l 83 86 l 15 86 z m 78 0 l 158 0 l 224 86 l 144 86 z m 44 142 l 58 142 l 58 190 l 75 142 l 90 142 l 90 210 l 79 210 l 78 164 l 63 210 l 46 210 z m 101 142 l 117 142 l 118 157 l 136 157 l 140 142 l 154 142 l 138 210 l 121 210 z m 218 0 l 299 0 l 364 86 l 286 86 z m 121 168 l 128 199 l 135 168 z m 167 142 l 178 142 l 179 197 l 192 142 l 201 142 l 214 197 l 213 142 l 226 142 l 226 210 l 207 210 l 196 161 l 188 210 l 167 210 z m 243 142 l 282 142 l 281 153 l 256 153 l 256 172 l 279 172 l 281 183 l 257 183 l 256 199 l 279 199 l 281 210 l 243 210 z m 360 0 l 439 0 l 506 86 l 425 86 z m 294 142 l 333 142 l 333 153 l 308 153 l 308 210 l 296 210 z m 342 142 l 354 142 l 358 157 l 376 157 l 379 142 l 393 142 l 376 210 l 358 210 z m 361 168 l 365 199 l 368 199 l 374 168 z m 199 335 l 199 269 b 211 272 199 269 208 269 b 215 281 215 275 215 281 l 215 335 b 222 343 217 339 219 342 b 235 347 226 344 231 347 b 249 340 242 347 244 344 b 253 322 251 336 253 331 l 253 281 b 254 272 253 281 254 275 b 269 269 258 268 269 269 l 268 325 b 240 360 268 349 258 360 b 215 347 229 360 219 356 b 201 340 211 343 208 344 b 199 335 199 339 199 335 z m 500 0 l 581 0 l 646 86 l 565 86 z m 411 142 l 425 142 l 424 199 l 439 199 l 440 210 l 397 210 l 396 199 l 411 199 z m 308 281 b 292 294 299 281 292 285 b 300 308 292 300 294 306 b 321 315 306 314 313 315 b 331 314 322 315 325 315 l 329 292 b 308 281 322 285 317 281 z m 301 268 b 329 278 314 268 322 272 b 338 283 332 281 335 281 b 344 292 342 285 346 289 l 344 324 b 336 351 346 335 342 344 b 314 360 331 357 324 358 b 286 342 308 360 292 347 b 288 339 283 336 288 339 b 310 344 293 343 300 344 b 329 325 324 344 329 339 b 318 326 325 325 322 326 b 288 317 307 326 296 324 b 276 294 279 311 276 303 b 285 275 276 286 281 281 b 301 268 290 269 296 268 z m 465 142 l 478 142 l 478 168 l 497 210 l 482 210 l 472 183 l 464 210 l 449 210 l 465 168 z m 279 356 b 292 378 281 356 293 376 b 279 393 285 381 279 386 b 276 393 278 394 276 393 b 274 386 275 392 274 390 l 267 374 b 279 356 265 365 274 358 z m 508 142 l 521 142 l 522 169 l 531 169 b 551 190 542 169 551 176 b 532 210 551 200 547 210 l 508 210 z m 51 540 l 58 540 l 58 560 l 74 560 l 72 565 l 58 565 l 58 576 l 75 576 l 74 583 l 51 583 z m 528 181 l 521 181 l 521 200 l 528 200 b 538 190 535 200 538 197 b 528 181 538 183 533 181 z m 640 0 l 719 0 l 786 86 l 707 86 z m 93 540 b 107 561 103 540 107 547 b 93 583 107 576 103 583 b 78 561 82 583 79 576 b 93 540 78 547 83 540 z m 93 544 b 86 561 88 544 86 547 b 93 578 88 576 88 578 b 100 561 96 578 100 576 b 93 544 100 547 96 544 z m 356 269 b 367 272 356 269 364 269 b 369 281 371 275 369 281 l 371 335 b 378 343 371 339 374 340 b 389 347 382 344 385 347 b 400 343 393 347 396 344 b 404 332 403 340 404 336 l 406 269 b 417 272 406 269 414 269 b 422 281 421 276 422 281 l 422 335 b 428 343 421 339 425 340 b 439 347 432 344 435 347 b 457 325 450 347 457 340 l 457 281 b 458 274 457 281 457 275 b 472 269 463 269 472 269 l 472 328 b 465 351 471 339 471 347 b 443 360 460 357 451 360 b 428 357 439 360 433 358 b 418 349 424 353 419 351 b 392 360 413 356 406 360 b 369 349 383 360 374 356 b 357 339 367 343 360 342 l 356 333 z m 565 142 l 603 142 l 603 153 l 578 153 l 578 172 l 599 172 l 600 183 l 579 183 l 578 199 l 601 199 l 601 210 l 565 210 z m 617 142 l 629 142 l 631 157 l 617 157 z m 113 540 l 121 540 l 121 558 l 126 558 b 132 551 131 558 133 557 b 133 543 133 549 133 547 l 133 540 l 142 540 b 140 543 142 542 140 542 l 140 553 b 133 561 139 558 136 561 b 139 572 139 561 140 567 b 128 583 140 581 135 583 l 113 583 z m 125 564 l 121 564 l 121 578 l 126 578 b 133 572 131 578 133 575 b 125 564 133 567 129 564 z m 175 540 b 189 556 185 540 188 547 l 182 556 b 174 544 181 551 179 544 b 168 561 169 544 168 549 b 175 578 168 575 169 578 b 182 569 179 578 182 575 l 189 569 b 174 583 189 575 186 583 b 160 561 163 583 161 576 b 175 540 160 547 163 540 z m 42 625 l 54 625 l 60 649 l 67 649 b 89 667 76 649 86 653 b 76 683 89 675 88 683 l 54 683 z m 782 0 l 850 0 l 850 86 l 847 86 z m 67 657 l 61 657 l 64 675 l 69 675 b 76 667 76 675 78 672 b 67 657 75 660 71 657 z m 668 142 b 690 168 685 142 689 153 l 675 168 b 667 151 675 153 672 151 b 658 175 663 151 658 156 b 667 201 658 194 660 201 b 675 186 674 201 675 197 l 688 186 b 668 211 689 197 686 211 b 644 176 646 211 646 197 b 668 142 644 156 646 142 z m 206 540 b 222 561 217 540 221 547 b 206 583 222 576 215 583 b 193 561 196 583 194 576 b 206 540 193 547 196 540 z m 206 544 b 200 561 203 544 200 547 b 206 578 200 576 203 578 b 214 561 210 578 214 576 b 206 544 213 547 210 544 z m 513 269 b 542 282 518 268 532 276 b 542 285 544 283 547 289 b 524 282 535 283 531 282 b 506 289 517 282 510 283 b 496 311 499 293 497 301 l 560 311 b 561 322 560 315 561 318 b 549 349 561 333 557 342 b 522 360 543 357 533 360 b 493 349 510 360 501 356 b 481 314 485 339 481 326 b 493 281 479 299 483 289 b 513 269 499 275 504 269 z m 90 625 l 124 625 l 126 635 l 104 635 l 106 650 l 126 650 l 131 660 l 110 660 l 113 674 l 133 674 l 135 683 l 101 683 z m 544 324 l 496 324 b 506 340 496 331 500 335 b 522 347 508 344 515 347 b 540 340 531 347 535 343 b 544 324 544 335 544 331 z m 228 540 l 233 540 l 233 576 l 243 540 l 247 540 l 257 576 l 256 540 l 263 540 l 263 583 l 253 583 l 246 551 l 244 551 l 238 583 l 228 583 z m 725 142 b 749 176 746 142 749 156 b 724 211 749 197 746 211 b 701 176 704 211 701 197 b 725 142 701 156 704 142 z m 725 151 b 717 176 717 151 717 158 b 725 201 717 194 717 201 b 735 176 733 201 735 194 b 725 151 735 158 733 151 z m 133 625 l 146 625 l 151 650 l 158 650 b 164 642 163 650 164 647 l 161 631 b 161 625 160 628 160 626 l 175 625 b 174 635 172 626 172 631 b 168 653 176 649 176 653 b 182 668 174 656 181 660 b 168 683 183 678 178 683 l 146 683 z m 158 658 l 153 658 l 156 675 l 161 675 b 168 667 168 675 169 672 b 158 658 168 660 163 658 z m 271 540 l 278 540 l 279 576 l 286 540 l 292 540 l 303 576 l 301 540 l 308 540 l 307 583 l 296 583 l 289 551 l 281 583 l 271 583 z m 626 281 b 610 294 615 281 610 285 b 618 308 610 300 613 306 b 638 315 624 314 629 315 b 647 314 639 315 643 315 l 646 292 b 626 281 642 285 635 281 z m 201 624 b 225 642 213 624 224 628 b 217 657 226 649 225 653 l 208 661 b 204 669 204 664 203 665 b 213 676 206 674 206 676 b 218 667 217 676 218 674 l 228 667 l 231 668 b 215 685 232 681 225 685 b 192 668 203 685 196 681 b 203 650 190 658 193 653 b 211 640 211 647 213 644 b 203 632 213 635 207 632 b 199 642 196 632 197 635 l 197 643 l 186 643 l 185 640 b 201 624 182 631 186 624 z m 763 142 l 776 142 l 776 197 l 788 142 l 799 142 l 813 197 l 811 142 l 824 142 l 824 210 l 804 210 l 793 161 l 783 210 l 764 210 z m 14 747 l 15 747 l 83 833 l 14 833 z m 314 540 l 338 540 l 338 547 l 321 547 l 321 560 l 338 560 l 338 565 l 321 565 l 322 576 l 339 576 l 338 583 l 314 583 z m 621 268 b 646 278 632 268 642 272 b 656 283 650 281 653 281 b 663 292 660 285 664 289 l 663 324 b 654 351 664 335 660 344 b 632 360 650 357 642 358 b 604 342 626 360 608 347 b 604 339 601 336 604 339 b 628 344 611 343 618 344 b 646 325 642 344 646 339 b 636 326 643 325 640 326 b 606 317 624 326 613 324 b 596 294 599 311 594 303 b 601 275 594 286 597 281 b 621 268 607 269 614 268 z m 600 268 b 597 272 600 268 603 272 b 585 297 590 274 585 285 l 585 482 b 572 478 585 482 575 481 b 569 468 569 475 569 468 l 571 294 b 600 268 569 276 581 268 z m 344 540 l 351 540 l 351 558 l 356 558 b 363 551 361 558 364 557 b 364 543 364 549 363 547 b 364 540 364 542 365 542 l 372 540 b 371 543 372 542 369 542 b 369 553 369 547 371 550 b 364 561 369 558 368 561 b 369 572 368 561 369 567 b 360 583 369 581 365 583 l 344 583 z m 356 564 l 350 564 l 351 578 l 356 578 b 363 572 361 578 364 575 b 356 564 363 567 361 564 z m 249 624 b 278 656 268 624 272 636 b 263 685 282 672 282 685 b 236 656 246 685 242 672 b 249 624 232 636 232 624 z m 253 632 b 247 656 244 632 244 639 b 261 676 251 669 254 676 b 264 656 268 676 268 669 b 253 632 261 639 260 632 z m 389 540 b 403 556 401 540 403 547 l 397 556 b 389 544 396 551 396 544 b 383 561 385 544 383 549 b 389 578 383 575 385 578 b 397 569 394 578 397 575 l 404 569 b 390 583 403 575 403 583 b 376 561 379 583 378 576 b 389 540 376 547 379 540 z m 408 540 l 417 540 l 415 583 l 407 583 z m 282 625 l 293 625 l 301 667 l 308 625 l 321 625 l 335 683 l 322 683 l 314 643 l 308 683 l 294 683 z m 78 747 l 157 747 l 222 833 l 143 833 z m 419 540 l 426 540 l 429 550 l 442 550 l 444 540 l 451 540 l 439 583 l 431 583 z m 431 557 l 436 576 l 440 557 z m 597 406 l 594 403 b 649 425 615 411 628 415 b 657 433 651 425 654 431 b 664 439 660 433 665 439 l 611 418 b 601 410 608 417 604 414 b 597 406 600 410 594 406 z m 483 535 l 482 532 b 489 540 488 532 490 535 l 490 549 l 483 549 l 483 540 l 485 540 b 483 535 485 536 485 535 z m 454 540 l 478 540 l 478 547 l 461 547 l 461 583 l 454 583 z m 329 625 l 343 625 l 347 636 l 363 636 l 363 625 l 376 625 l 372 683 l 358 683 z m 351 647 l 364 674 l 364 647 z m 385 625 l 418 625 l 421 635 l 399 635 l 410 683 l 397 683 z m 510 540 l 517 540 l 517 558 l 522 558 b 535 569 531 558 533 564 b 522 583 535 578 531 583 l 510 583 z m 521 564 l 515 564 l 517 578 l 521 578 b 529 569 526 578 528 575 b 521 564 528 565 524 564 z m 539 540 l 563 540 l 563 547 l 546 547 l 546 583 l 539 583 z m 218 747 l 297 747 l 363 833 l 285 833 z m 568 540 l 592 540 l 592 547 l 575 547 l 575 560 l 590 560 l 589 565 l 575 565 l 575 576 l 592 576 l 590 583 l 568 583 z m 469 624 b 493 642 479 624 490 626 l 501 683 l 489 683 l 482 642 b 471 632 479 636 476 632 b 467 642 467 632 464 636 l 475 683 l 463 683 l 456 642 b 469 624 451 626 460 624 z m 593 540 l 600 540 l 604 550 l 615 550 l 618 540 l 625 540 l 614 583 l 604 583 z m 606 557 l 611 576 l 615 557 z m 515 624 b 542 642 529 624 539 628 b 533 657 543 649 542 653 l 525 661 b 521 669 519 664 519 665 b 529 676 522 674 522 676 b 533 667 533 676 535 674 l 544 667 l 546 668 b 529 685 549 681 542 685 b 508 668 519 685 513 681 b 519 650 507 658 510 653 b 528 640 528 647 529 644 b 519 632 529 635 524 632 b 514 642 513 632 514 635 l 514 643 l 501 643 l 501 640 b 515 624 499 631 503 624 z m 639 540 b 654 551 650 540 656 543 b 646 564 654 558 651 561 l 642 565 b 635 574 636 567 635 568 b 639 578 636 576 638 578 b 646 574 644 578 647 576 l 646 572 l 653 572 l 653 574 b 640 583 654 576 651 583 b 628 572 632 583 628 581 b 636 560 628 565 632 561 l 642 558 b 649 550 646 557 649 556 b 640 544 649 549 644 544 b 635 551 636 544 635 547 l 635 553 l 628 553 b 639 540 628 547 629 540 z m 661 540 l 685 540 l 685 547 l 668 547 l 668 560 l 683 560 l 683 565 l 668 565 l 669 576 l 683 576 l 682 583 l 661 583 z m 549 625 l 582 625 l 585 635 l 563 635 l 564 650 l 585 650 l 589 660 l 568 660 l 572 674 l 592 674 l 594 683 l 561 683 z m 360 747 l 438 747 l 504 833 l 425 833 z m 710 540 l 718 540 l 728 583 l 721 583 l 714 549 l 706 583 l 699 583 z m 731 540 l 738 540 l 738 583 l 731 583 z m 635 624 b 661 656 653 624 657 636 b 649 685 667 672 667 685 b 621 656 629 685 625 672 b 635 624 618 636 615 624 z m 636 632 b 632 656 629 632 629 639 b 646 676 636 669 639 676 b 649 656 653 676 653 669 b 636 632 646 639 644 632 z m 758 540 b 771 551 767 540 772 543 b 763 564 771 558 769 561 l 758 565 b 751 574 754 567 751 568 b 758 578 753 576 754 578 b 763 574 761 578 764 576 l 763 572 l 771 572 l 771 574 b 757 583 772 576 769 583 b 744 572 749 583 744 581 b 754 560 744 565 749 561 l 758 558 b 765 550 764 557 765 556 b 757 544 765 549 763 544 b 751 551 753 544 751 547 l 751 553 l 744 553 b 758 540 744 547 746 540 z m 778 540 l 785 540 l 785 583 l 778 583 z m 797 540 l 806 540 l 807 576 l 817 576 l 815 583 l 788 583 l 789 576 l 799 576 z m 667 625 l 678 625 l 686 667 l 693 625 l 707 625 l 719 683 l 708 683 l 700 643 l 693 683 l 679 683 z m 719 625 l 751 625 l 756 635 l 733 635 l 743 683 l 731 683 z m 499 747 l 579 747 l 644 833 l 564 833 z m 804 625 l 815 625 l 818 635 l 807 635 z m 765 625 l 778 625 l 783 649 l 806 683 l 793 683 l 781 661 l 776 683 l 763 683 l 771 649 z m 810 642 l 818 642 l 825 665 l 828 683 l 817 683 l 813 665 z m 639 747 l 719 747 l 785 833 l 706 833 z m 781 747 l 849 747 l 850 833 l 846 833 z "},"8":{"ha":864,"x_min":0,"x_max":0,"o":"m 210 367 b 224 375 214 368 222 372 b 226 385 226 378 226 382 b 221 390 225 386 221 389 l 222 392 l 224 392 b 483 456 256 400 442 435 b 496 461 489 457 493 460 l 501 467 b 499 467 503 468 501 468 b 233 403 451 447 265 414 b 224 397 228 401 226 399 l 215 390 b 217 381 213 386 213 383 b 215 372 219 376 218 374 b 210 368 214 372 211 369 b 210 367 210 368 208 367 z m 15 0 l 17 0 l 83 86 l 15 86 z m 78 0 l 158 0 l 224 86 l 144 86 z m 44 142 l 58 142 l 58 190 l 75 142 l 90 142 l 90 210 l 79 210 l 78 164 l 63 210 l 46 210 z m 101 142 l 117 142 l 118 157 l 136 157 l 140 142 l 154 142 l 138 210 l 121 210 z m 218 0 l 299 0 l 364 86 l 286 86 z m 121 168 l 128 199 l 135 168 z m 167 142 l 178 142 l 179 197 l 192 142 l 201 142 l 214 197 l 213 142 l 226 142 l 226 210 l 207 210 l 196 161 l 188 210 l 167 210 z m 243 142 l 282 142 l 281 153 l 256 153 l 256 172 l 279 172 l 281 183 l 257 183 l 256 199 l 279 199 l 281 210 l 243 210 z m 360 0 l 439 0 l 506 86 l 425 86 z m 294 142 l 333 142 l 333 153 l 308 153 l 308 210 l 296 210 z m 342 142 l 354 142 l 358 157 l 376 157 l 379 142 l 393 142 l 376 210 l 358 210 z m 361 168 l 365 199 l 368 199 l 374 168 z m 199 335 l 199 269 b 211 272 199 269 208 269 b 215 281 215 275 215 281 l 215 335 b 222 343 217 339 219 342 b 235 347 226 344 231 347 b 249 340 242 347 244 344 b 253 322 251 336 253 331 l 253 281 b 254 272 253 281 254 275 b 269 269 258 268 269 269 l 268 325 b 240 360 268 349 258 360 b 215 347 229 360 219 356 b 201 340 211 343 208 344 b 199 335 199 339 199 335 z m 500 0 l 581 0 l 646 86 l 565 86 z m 411 142 l 425 142 l 424 199 l 439 199 l 440 210 l 397 210 l 396 199 l 411 199 z m 308 281 b 292 294 299 281 292 285 b 300 308 292 300 294 306 b 321 315 306 314 313 315 b 331 314 322 315 325 315 l 329 292 b 308 281 322 285 317 281 z m 301 268 b 329 278 314 268 322 272 b 338 283 332 281 335 281 b 344 292 342 285 346 289 l 344 324 b 336 351 346 335 342 344 b 314 360 331 357 324 358 b 286 342 308 360 292 347 b 288 339 283 336 288 339 b 310 344 293 343 300 344 b 329 325 324 344 329 339 b 318 326 325 325 322 326 b 288 317 307 326 296 324 b 276 294 279 311 276 303 b 285 275 276 286 281 281 b 301 268 290 269 296 268 z m 465 142 l 478 142 l 478 168 l 497 210 l 482 210 l 472 183 l 464 210 l 449 210 l 465 168 z m 279 356 b 292 378 281 356 293 376 b 279 393 285 381 279 386 b 276 393 278 394 276 393 b 274 386 275 392 274 390 l 267 374 b 279 356 265 365 274 358 z m 508 142 l 521 142 l 522 169 l 531 169 b 551 190 542 169 551 176 b 532 210 551 200 547 210 l 508 210 z m 51 540 l 58 540 l 58 560 l 74 560 l 72 565 l 58 565 l 58 576 l 75 576 l 74 583 l 51 583 z m 528 181 l 521 181 l 521 200 l 528 200 b 538 190 535 200 538 197 b 528 181 538 183 533 181 z m 640 0 l 719 0 l 786 86 l 707 86 z m 93 540 b 107 561 103 540 107 547 b 93 583 107 576 103 583 b 78 561 82 583 79 576 b 93 540 78 547 83 540 z m 93 544 b 86 561 88 544 86 547 b 93 578 88 576 88 578 b 100 561 96 578 100 576 b 93 544 100 547 96 544 z m 356 269 b 367 272 356 269 364 269 b 369 281 371 275 369 281 l 371 335 b 378 343 371 339 374 340 b 389 347 382 344 385 347 b 400 343 393 347 396 344 b 404 332 403 340 404 336 l 406 269 b 417 272 406 269 414 269 b 422 281 421 276 422 281 l 422 335 b 428 343 421 339 425 340 b 439 347 432 344 435 347 b 457 325 450 347 457 340 l 457 281 b 458 274 457 281 457 275 b 472 269 463 269 472 269 l 472 328 b 465 351 471 339 471 347 b 443 360 460 357 451 360 b 428 357 439 360 433 358 b 418 349 424 353 419 351 b 392 360 413 356 406 360 b 369 349 383 360 374 356 b 357 339 367 343 360 342 l 356 333 z m 565 142 l 603 142 l 603 153 l 578 153 l 578 172 l 599 172 l 600 183 l 579 183 l 578 199 l 601 199 l 601 210 l 565 210 z m 617 142 l 629 142 l 631 157 l 617 157 z m 113 540 l 121 540 l 121 558 l 126 558 b 132 551 131 558 133 557 b 133 543 133 549 133 547 l 133 540 l 142 540 b 140 543 142 542 140 542 l 140 553 b 133 561 139 558 136 561 b 139 572 139 561 140 567 b 128 583 140 581 135 583 l 113 583 z m 125 564 l 121 564 l 121 578 l 126 578 b 133 572 131 578 133 575 b 125 564 133 567 129 564 z m 175 540 b 189 556 185 540 188 547 l 182 556 b 174 544 181 551 179 544 b 168 561 169 544 168 549 b 175 578 168 575 169 578 b 182 569 179 578 182 575 l 189 569 b 174 583 189 575 186 583 b 160 561 163 583 161 576 b 175 540 160 547 163 540 z m 42 625 l 54 625 l 60 649 l 67 649 b 89 667 76 649 86 653 b 76 683 89 675 88 683 l 54 683 z m 782 0 l 850 0 l 850 86 l 847 86 z m 67 657 l 61 657 l 64 675 l 69 675 b 76 667 76 675 78 672 b 67 657 75 660 71 657 z m 668 142 b 690 168 685 142 689 153 l 675 168 b 667 151 675 153 672 151 b 658 175 663 151 658 156 b 667 201 658 194 660 201 b 675 186 674 201 675 197 l 688 186 b 668 211 689 197 686 211 b 644 176 646 211 646 197 b 668 142 644 156 646 142 z m 206 540 b 222 561 217 540 221 547 b 206 583 222 576 215 583 b 193 561 196 583 194 576 b 206 540 193 547 196 540 z m 206 544 b 200 561 203 544 200 547 b 206 578 200 576 203 578 b 214 561 210 578 214 576 b 206 544 213 547 210 544 z m 513 269 b 542 282 518 268 532 276 b 542 285 544 283 547 289 b 524 282 535 283 531 282 b 506 289 517 282 510 283 b 496 311 499 293 497 301 l 560 311 b 561 322 560 315 561 318 b 549 349 561 333 557 342 b 522 360 543 357 533 360 b 493 349 510 360 501 356 b 481 314 485 339 481 326 b 493 281 479 299 483 289 b 513 269 499 275 504 269 z m 90 625 l 124 625 l 126 635 l 104 635 l 106 650 l 126 650 l 131 660 l 110 660 l 113 674 l 133 674 l 135 683 l 101 683 z m 544 324 l 496 324 b 506 340 496 331 500 335 b 522 347 508 344 515 347 b 540 340 531 347 535 343 b 544 324 544 335 544 331 z m 228 540 l 233 540 l 233 576 l 243 540 l 247 540 l 257 576 l 256 540 l 263 540 l 263 583 l 253 583 l 246 551 l 244 551 l 238 583 l 228 583 z m 725 142 b 749 176 746 142 749 156 b 724 211 749 197 746 211 b 701 176 704 211 701 197 b 725 142 701 156 704 142 z m 725 151 b 717 176 717 151 717 158 b 725 201 717 194 717 201 b 735 176 733 201 735 194 b 725 151 735 158 733 151 z m 133 625 l 146 625 l 151 650 l 158 650 b 164 642 163 650 164 647 l 161 631 b 161 625 160 628 160 626 l 175 625 b 174 635 172 626 172 631 b 168 653 176 649 176 653 b 182 668 174 656 181 660 b 168 683 183 678 178 683 l 146 683 z m 158 658 l 153 658 l 156 675 l 161 675 b 168 667 168 675 169 672 b 158 658 168 660 163 658 z m 271 540 l 278 540 l 279 576 l 286 540 l 292 540 l 303 576 l 301 540 l 308 540 l 307 583 l 296 583 l 289 551 l 281 583 l 271 583 z m 626 281 b 610 294 615 281 610 285 b 618 308 610 300 613 306 b 638 315 624 314 629 315 b 647 314 639 315 643 315 l 646 292 b 626 281 642 285 635 281 z m 201 624 b 225 642 213 624 224 628 b 217 657 226 649 225 653 l 208 661 b 204 669 204 664 203 665 b 213 676 206 674 206 676 b 218 667 217 676 218 674 l 228 667 l 231 668 b 215 685 232 681 225 685 b 192 668 203 685 196 681 b 203 650 190 658 193 653 b 211 640 211 647 213 644 b 203 632 213 635 207 632 b 199 642 196 632 197 635 l 197 643 l 186 643 l 185 640 b 201 624 182 631 186 624 z m 763 142 l 776 142 l 776 197 l 788 142 l 799 142 l 813 197 l 811 142 l 824 142 l 824 210 l 804 210 l 793 161 l 783 210 l 764 210 z m 14 747 l 15 747 l 83 833 l 14 833 z m 314 540 l 338 540 l 338 547 l 321 547 l 321 560 l 338 560 l 338 565 l 321 565 l 322 576 l 339 576 l 338 583 l 314 583 z m 621 268 b 646 278 632 268 642 272 b 656 283 650 281 653 281 b 663 292 660 285 664 289 l 663 324 b 654 351 664 335 660 344 b 632 360 650 357 642 358 b 604 342 626 360 608 347 b 604 339 601 336 604 339 b 628 344 611 343 618 344 b 646 325 642 344 646 339 b 636 326 643 325 640 326 b 606 317 624 326 613 324 b 596 294 599 311 594 303 b 601 275 594 286 597 281 b 621 268 607 269 614 268 z m 600 268 b 597 272 600 268 603 272 b 585 297 590 274 585 285 l 585 482 b 572 478 585 482 575 481 b 569 468 569 475 569 468 l 571 294 b 600 268 569 276 581 268 z m 344 540 l 351 540 l 351 558 l 356 558 b 363 551 361 558 364 557 b 364 543 364 549 363 547 b 364 540 364 542 365 542 l 372 540 b 371 543 372 542 369 542 b 369 553 369 547 371 550 b 364 561 369 558 368 561 b 369 572 368 561 369 567 b 360 583 369 581 365 583 l 344 583 z m 356 564 l 350 564 l 351 578 l 356 578 b 363 572 361 578 364 575 b 356 564 363 567 361 564 z m 249 624 b 278 656 268 624 272 636 b 263 685 282 672 282 685 b 236 656 246 685 242 672 b 249 624 232 636 232 624 z m 253 632 b 247 656 244 632 244 639 b 261 676 251 669 254 676 b 264 656 268 676 268 669 b 253 632 261 639 260 632 z m 389 540 b 403 556 401 540 403 547 l 397 556 b 389 544 396 551 396 544 b 383 561 385 544 383 549 b 389 578 383 575 385 578 b 397 569 394 578 397 575 l 404 569 b 390 583 403 575 403 583 b 376 561 379 583 378 576 b 389 540 376 547 379 540 z m 408 540 l 417 540 l 415 583 l 407 583 z m 282 625 l 293 625 l 301 667 l 308 625 l 321 625 l 335 683 l 322 683 l 314 643 l 308 683 l 294 683 z m 78 747 l 157 747 l 222 833 l 143 833 z m 419 540 l 426 540 l 429 550 l 442 550 l 444 540 l 451 540 l 439 583 l 431 583 z m 431 557 l 436 576 l 440 557 z m 597 406 l 594 403 b 649 425 615 411 628 415 b 657 433 651 425 654 431 b 664 439 660 433 665 439 l 611 418 b 601 410 608 417 604 414 b 597 406 600 410 594 406 z m 483 535 l 482 532 b 489 540 488 532 490 535 l 490 549 l 483 549 l 483 540 l 485 540 b 483 535 485 536 485 535 z m 454 540 l 478 540 l 478 547 l 461 547 l 461 583 l 454 583 z m 329 625 l 343 625 l 347 636 l 363 636 l 363 625 l 376 625 l 372 683 l 358 683 z m 351 647 l 364 674 l 364 647 z m 385 625 l 418 625 l 421 635 l 399 635 l 410 683 l 397 683 z m 510 540 l 517 540 l 517 558 l 522 558 b 535 569 531 558 533 564 b 522 583 535 578 531 583 l 510 583 z m 521 564 l 515 564 l 517 578 l 521 578 b 529 569 526 578 528 575 b 521 564 528 565 524 564 z m 539 540 l 563 540 l 563 547 l 546 547 l 546 583 l 539 583 z m 218 747 l 297 747 l 363 833 l 285 833 z m 568 540 l 592 540 l 592 547 l 575 547 l 575 560 l 590 560 l 589 565 l 575 565 l 575 576 l 592 576 l 590 583 l 568 583 z m 469 624 b 493 642 479 624 490 626 l 501 683 l 489 683 l 482 642 b 471 632 479 636 476 632 b 467 642 467 632 464 636 l 475 683 l 463 683 l 456 642 b 469 624 451 626 460 624 z m 593 540 l 600 540 l 604 550 l 615 550 l 618 540 l 625 540 l 614 583 l 604 583 z m 606 557 l 611 576 l 615 557 z m 515 624 b 542 642 529 624 539 628 b 533 657 543 649 542 653 l 525 661 b 521 669 519 664 519 665 b 529 676 522 674 522 676 b 533 667 533 676 535 674 l 544 667 l 546 668 b 529 685 549 681 542 685 b 508 668 519 685 513 681 b 519 650 507 658 510 653 b 528 640 528 647 529 644 b 519 632 529 635 524 632 b 514 642 513 632 514 635 l 514 643 l 501 643 l 501 640 b 515 624 499 631 503 624 z m 639 540 b 654 551 650 540 656 543 b 646 564 654 558 651 561 l 642 565 b 635 574 636 567 635 568 b 639 578 636 576 638 578 b 646 574 644 578 647 576 l 646 572 l 653 572 l 653 574 b 640 583 654 576 651 583 b 628 572 632 583 628 581 b 636 560 628 565 632 561 l 642 558 b 649 550 646 557 649 556 b 640 544 649 549 644 544 b 635 551 636 544 635 547 l 635 553 l 628 553 b 639 540 628 547 629 540 z m 661 540 l 685 540 l 685 547 l 668 547 l 668 560 l 683 560 l 683 565 l 668 565 l 669 576 l 683 576 l 682 583 l 661 583 z m 549 625 l 582 625 l 585 635 l 563 635 l 564 650 l 585 650 l 589 660 l 568 660 l 572 674 l 592 674 l 594 683 l 561 683 z m 360 747 l 438 747 l 504 833 l 425 833 z m 710 540 l 718 540 l 728 583 l 721 583 l 714 549 l 706 583 l 699 583 z m 731 540 l 738 540 l 738 583 l 731 583 z m 635 624 b 661 656 653 624 657 636 b 649 685 667 672 667 685 b 621 656 629 685 625 672 b 635 624 618 636 615 624 z m 636 632 b 632 656 629 632 629 639 b 646 676 636 669 639 676 b 649 656 653 676 653 669 b 636 632 646 639 644 632 z m 758 540 b 771 551 767 540 772 543 b 763 564 771 558 769 561 l 758 565 b 751 574 754 567 751 568 b 758 578 753 576 754 578 b 763 574 761 578 764 576 l 763 572 l 771 572 l 771 574 b 757 583 772 576 769 583 b 744 572 749 583 744 581 b 754 560 744 565 749 561 l 758 558 b 765 550 764 557 765 556 b 757 544 765 549 763 544 b 751 551 753 544 751 547 l 751 553 l 744 553 b 758 540 744 547 746 540 z m 778 540 l 785 540 l 785 583 l 778 583 z m 797 540 l 806 540 l 807 576 l 817 576 l 815 583 l 788 583 l 789 576 l 799 576 z m 667 625 l 678 625 l 686 667 l 693 625 l 707 625 l 719 683 l 708 683 l 700 643 l 693 683 l 679 683 z m 719 625 l 751 625 l 756 635 l 733 635 l 743 683 l 731 683 z m 499 747 l 579 747 l 644 833 l 564 833 z m 804 625 l 815 625 l 818 635 l 807 635 z m 765 625 l 778 625 l 783 649 l 806 683 l 793 683 l 781 661 l 776 683 l 763 683 l 771 649 z m 810 642 l 818 642 l 825 665 l 828 683 l 817 683 l 813 665 z m 639 747 l 719 747 l 785 833 l 706 833 z m 781 747 l 849 747 l 850 833 l 846 833 z "},"9":{"ha":864,"x_min":0,"x_max":0,"o":"m 210 367 b 224 375 214 368 222 372 b 226 385 226 378 226 382 b 221 390 225 386 221 389 l 222 392 l 224 392 b 483 456 256 400 442 435 b 496 461 489 457 493 460 l 501 467 b 499 467 503 468 501 468 b 233 403 451 447 265 414 b 224 397 228 401 226 399 l 215 390 b 217 381 213 386 213 383 b 215 372 219 376 218 374 b 210 368 214 372 211 369 b 210 367 210 368 208 367 z m 15 0 l 17 0 l 83 86 l 15 86 z m 78 0 l 158 0 l 224 86 l 144 86 z m 44 142 l 58 142 l 58 190 l 75 142 l 90 142 l 90 210 l 79 210 l 78 164 l 63 210 l 46 210 z m 101 142 l 117 142 l 118 157 l 136 157 l 140 142 l 154 142 l 138 210 l 121 210 z m 218 0 l 299 0 l 364 86 l 286 86 z m 121 168 l 128 199 l 135 168 z m 167 142 l 178 142 l 179 197 l 192 142 l 201 142 l 214 197 l 213 142 l 226 142 l 226 210 l 207 210 l 196 161 l 188 210 l 167 210 z m 243 142 l 282 142 l 281 153 l 256 153 l 256 172 l 279 172 l 281 183 l 257 183 l 256 199 l 279 199 l 281 210 l 243 210 z m 360 0 l 439 0 l 506 86 l 425 86 z m 294 142 l 333 142 l 333 153 l 308 153 l 308 210 l 296 210 z m 342 142 l 354 142 l 358 157 l 376 157 l 379 142 l 393 142 l 376 210 l 358 210 z m 361 168 l 365 199 l 368 199 l 374 168 z m 199 335 l 199 269 b 211 272 199 269 208 269 b 215 281 215 275 215 281 l 215 335 b 222 343 217 339 219 342 b 235 347 226 344 231 347 b 249 340 242 347 244 344 b 253 322 251 336 253 331 l 253 281 b 254 272 253 281 254 275 b 269 269 258 268 269 269 l 268 325 b 240 360 268 349 258 360 b 215 347 229 360 219 356 b 201 340 211 343 208 344 b 199 335 199 339 199 335 z m 500 0 l 581 0 l 646 86 l 565 86 z m 411 142 l 425 142 l 424 199 l 439 199 l 440 210 l 397 210 l 396 199 l 411 199 z m 308 281 b 292 294 299 281 292 285 b 300 308 292 300 294 306 b 321 315 306 314 313 315 b 331 314 322 315 325 315 l 329 292 b 308 281 322 285 317 281 z m 301 268 b 329 278 314 268 322 272 b 338 283 332 281 335 281 b 344 292 342 285 346 289 l 344 324 b 336 351 346 335 342 344 b 314 360 331 357 324 358 b 286 342 308 360 292 347 b 288 339 283 336 288 339 b 310 344 293 343 300 344 b 329 325 324 344 329 339 b 318 326 325 325 322 326 b 288 317 307 326 296 324 b 276 294 279 311 276 303 b 285 275 276 286 281 281 b 301 268 290 269 296 268 z m 465 142 l 478 142 l 478 168 l 497 210 l 482 210 l 472 183 l 464 210 l 449 210 l 465 168 z m 279 356 b 292 378 281 356 293 376 b 279 393 285 381 279 386 b 276 393 278 394 276 393 b 274 386 275 392 274 390 l 267 374 b 279 356 265 365 274 358 z m 508 142 l 521 142 l 522 169 l 531 169 b 551 190 542 169 551 176 b 532 210 551 200 547 210 l 508 210 z m 51 540 l 58 540 l 58 560 l 74 560 l 72 565 l 58 565 l 58 576 l 75 576 l 74 583 l 51 583 z m 528 181 l 521 181 l 521 200 l 528 200 b 538 190 535 200 538 197 b 528 181 538 183 533 181 z m 640 0 l 719 0 l 786 86 l 707 86 z m 93 540 b 107 561 103 540 107 547 b 93 583 107 576 103 583 b 78 561 82 583 79 576 b 93 540 78 547 83 540 z m 93 544 b 86 561 88 544 86 547 b 93 578 88 576 88 578 b 100 561 96 578 100 576 b 93 544 100 547 96 544 z m 356 269 b 367 272 356 269 364 269 b 369 281 371 275 369 281 l 371 335 b 378 343 371 339 374 340 b 389 347 382 344 385 347 b 400 343 393 347 396 344 b 404 332 403 340 404 336 l 406 269 b 417 272 406 269 414 269 b 422 281 421 276 422 281 l 422 335 b 428 343 421 339 425 340 b 439 347 432 344 435 347 b 457 325 450 347 457 340 l 457 281 b 458 274 457 281 457 275 b 472 269 463 269 472 269 l 472 328 b 465 351 471 339 471 347 b 443 360 460 357 451 360 b 428 357 439 360 433 358 b 418 349 424 353 419 351 b 392 360 413 356 406 360 b 369 349 383 360 374 356 b 357 339 367 343 360 342 l 356 333 z m 565 142 l 603 142 l 603 153 l 578 153 l 578 172 l 599 172 l 600 183 l 579 183 l 578 199 l 601 199 l 601 210 l 565 210 z m 617 142 l 629 142 l 631 157 l 617 157 z m 113 540 l 121 540 l 121 558 l 126 558 b 132 551 131 558 133 557 b 133 543 133 549 133 547 l 133 540 l 142 540 b 140 543 142 542 140 542 l 140 553 b 133 561 139 558 136 561 b 139 572 139 561 140 567 b 128 583 140 581 135 583 l 113 583 z m 125 564 l 121 564 l 121 578 l 126 578 b 133 572 131 578 133 575 b 125 564 133 567 129 564 z m 175 540 b 189 556 185 540 188 547 l 182 556 b 174 544 181 551 179 544 b 168 561 169 544 168 549 b 175 578 168 575 169 578 b 182 569 179 578 182 575 l 189 569 b 174 583 189 575 186 583 b 160 561 163 583 161 576 b 175 540 160 547 163 540 z m 42 625 l 54 625 l 60 649 l 67 649 b 89 667 76 649 86 653 b 76 683 89 675 88 683 l 54 683 z m 782 0 l 850 0 l 850 86 l 847 86 z m 67 657 l 61 657 l 64 675 l 69 675 b 76 667 76 675 78 672 b 67 657 75 660 71 657 z m 668 142 b 690 168 685 142 689 153 l 675 168 b 667 151 675 153 672 151 b 658 175 663 151 658 156 b 667 201 658 194 660 201 b 675 186 674 201 675 197 l 688 186 b 668 211 689 197 686 211 b 644 176 646 211 646 197 b 668 142 644 156 646 142 z m 206 540 b 222 561 217 540 221 547 b 206 583 222 576 215 583 b 193 561 196 583 194 576 b 206 540 193 547 196 540 z m 206 544 b 200 561 203 544 200 547 b 206 578 200 576 203 578 b 214 561 210 578 214 576 b 206 544 213 547 210 544 z m 513 269 b 542 282 518 268 532 276 b 542 285 544 283 547 289 b 524 282 535 283 531 282 b 506 289 517 282 510 283 b 496 311 499 293 497 301 l 560 311 b 561 322 560 315 561 318 b 549 349 561 333 557 342 b 522 360 543 357 533 360 b 493 349 510 360 501 356 b 481 314 485 339 481 326 b 493 281 479 299 483 289 b 513 269 499 275 504 269 z m 90 625 l 124 625 l 126 635 l 104 635 l 106 650 l 126 650 l 131 660 l 110 660 l 113 674 l 133 674 l 135 683 l 101 683 z m 544 324 l 496 324 b 506 340 496 331 500 335 b 522 347 508 344 515 347 b 540 340 531 347 535 343 b 544 324 544 335 544 331 z m 228 540 l 233 540 l 233 576 l 243 540 l 247 540 l 257 576 l 256 540 l 263 540 l 263 583 l 253 583 l 246 551 l 244 551 l 238 583 l 228 583 z m 725 142 b 749 176 746 142 749 156 b 724 211 749 197 746 211 b 701 176 704 211 701 197 b 725 142 701 156 704 142 z m 725 151 b 717 176 717 151 717 158 b 725 201 717 194 717 201 b 735 176 733 201 735 194 b 725 151 735 158 733 151 z m 133 625 l 146 625 l 151 650 l 158 650 b 164 642 163 650 164 647 l 161 631 b 161 625 160 628 160 626 l 175 625 b 174 635 172 626 172 631 b 168 653 176 649 176 653 b 182 668 174 656 181 660 b 168 683 183 678 178 683 l 146 683 z m 158 658 l 153 658 l 156 675 l 161 675 b 168 667 168 675 169 672 b 158 658 168 660 163 658 z m 271 540 l 278 540 l 279 576 l 286 540 l 292 540 l 303 576 l 301 540 l 308 540 l 307 583 l 296 583 l 289 551 l 281 583 l 271 583 z m 626 281 b 610 294 615 281 610 285 b 618 308 610 300 613 306 b 638 315 624 314 629 315 b 647 314 639 315 643 315 l 646 292 b 626 281 642 285 635 281 z m 201 624 b 225 642 213 624 224 628 b 217 657 226 649 225 653 l 208 661 b 204 669 204 664 203 665 b 213 676 206 674 206 676 b 218 667 217 676 218 674 l 228 667 l 231 668 b 215 685 232 681 225 685 b 192 668 203 685 196 681 b 203 650 190 658 193 653 b 211 640 211 647 213 644 b 203 632 213 635 207 632 b 199 642 196 632 197 635 l 197 643 l 186 643 l 185 640 b 201 624 182 631 186 624 z m 763 142 l 776 142 l 776 197 l 788 142 l 799 142 l 813 197 l 811 142 l 824 142 l 824 210 l 804 210 l 793 161 l 783 210 l 764 210 z m 14 747 l 15 747 l 83 833 l 14 833 z m 314 540 l 338 540 l 338 547 l 321 547 l 321 560 l 338 560 l 338 565 l 321 565 l 322 576 l 339 576 l 338 583 l 314 583 z m 621 268 b 646 278 632 268 642 272 b 656 283 650 281 653 281 b 663 292 660 285 664 289 l 663 324 b 654 351 664 335 660 344 b 632 360 650 357 642 358 b 604 342 626 360 608 347 b 604 339 601 336 604 339 b 628 344 611 343 618 344 b 646 325 642 344 646 339 b 636 326 643 325 640 326 b 606 317 624 326 613 324 b 596 294 599 311 594 303 b 601 275 594 286 597 281 b 621 268 607 269 614 268 z m 600 268 b 597 272 600 268 603 272 b 585 297 590 274 585 285 l 585 482 b 572 478 585 482 575 481 b 569 468 569 475 569 468 l 571 294 b 600 268 569 276 581 268 z m 344 540 l 351 540 l 351 558 l 356 558 b 363 551 361 558 364 557 b 364 543 364 549 363 547 b 364 540 364 542 365 542 l 372 540 b 371 543 372 542 369 542 b 369 553 369 547 371 550 b 364 561 369 558 368 561 b 369 572 368 561 369 567 b 360 583 369 581 365 583 l 344 583 z m 356 564 l 350 564 l 351 578 l 356 578 b 363 572 361 578 364 575 b 356 564 363 567 361 564 z m 249 624 b 278 656 268 624 272 636 b 263 685 282 672 282 685 b 236 656 246 685 242 672 b 249 624 232 636 232 624 z m 253 632 b 247 656 244 632 244 639 b 261 676 251 669 254 676 b 264 656 268 676 268 669 b 253 632 261 639 260 632 z m 389 540 b 403 556 401 540 403 547 l 397 556 b 389 544 396 551 396 544 b 383 561 385 544 383 549 b 389 578 383 575 385 578 b 397 569 394 578 397 575 l 404 569 b 390 583 403 575 403 583 b 376 561 379 583 378 576 b 389 540 376 547 379 540 z m 408 540 l 417 540 l 415 583 l 407 583 z m 282 625 l 293 625 l 301 667 l 308 625 l 321 625 l 335 683 l 322 683 l 314 643 l 308 683 l 294 683 z m 78 747 l 157 747 l 222 833 l 143 833 z m 419 540 l 426 540 l 429 550 l 442 550 l 444 540 l 451 540 l 439 583 l 431 583 z m 431 557 l 436 576 l 440 557 z m 597 406 l 594 403 b 649 425 615 411 628 415 b 657 433 651 425 654 431 b 664 439 660 433 665 439 l 611 418 b 601 410 608 417 604 414 b 597 406 600 410 594 406 z m 483 535 l 482 532 b 489 540 488 532 490 535 l 490 549 l 483 549 l 483 540 l 485 540 b 483 535 485 536 485 535 z m 454 540 l 478 540 l 478 547 l 461 547 l 461 583 l 454 583 z m 329 625 l 343 625 l 347 636 l 363 636 l 363 625 l 376 625 l 372 683 l 358 683 z m 351 647 l 364 674 l 364 647 z m 385 625 l 418 625 l 421 635 l 399 635 l 410 683 l 397 683 z m 510 540 l 517 540 l 517 558 l 522 558 b 535 569 531 558 533 564 b 522 583 535 578 531 583 l 510 583 z m 521 564 l 515 564 l 517 578 l 521 578 b 529 569 526 578 528 575 b 521 564 528 565 524 564 z m 539 540 l 563 540 l 563 547 l 546 547 l 546 583 l 539 583 z m 218 747 l 297 747 l 363 833 l 285 833 z m 568 540 l 592 540 l 592 547 l 575 547 l 575 560 l 590 560 l 589 565 l 575 565 l 575 576 l 592 576 l 590 583 l 568 583 z m 469 624 b 493 642 479 624 490 626 l 501 683 l 489 683 l 482 642 b 471 632 479 636 476 632 b 467 642 467 632 464 636 l 475 683 l 463 683 l 456 642 b 469 624 451 626 460 624 z m 593 540 l 600 540 l 604 550 l 615 550 l 618 540 l 625 540 l 614 583 l 604 583 z m 606 557 l 611 576 l 615 557 z m 515 624 b 542 642 529 624 539 628 b 533 657 543 649 542 653 l 525 661 b 521 669 519 664 519 665 b 529 676 522 674 522 676 b 533 667 533 676 535 674 l 544 667 l 546 668 b 529 685 549 681 542 685 b 508 668 519 685 513 681 b 519 650 507 658 510 653 b 528 640 528 647 529 644 b 519 632 529 635 524 632 b 514 642 513 632 514 635 l 514 643 l 501 643 l 501 640 b 515 624 499 631 503 624 z m 639 540 b 654 551 650 540 656 543 b 646 564 654 558 651 561 l 642 565 b 635 574 636 567 635 568 b 639 578 636 576 638 578 b 646 574 644 578 647 576 l 646 572 l 653 572 l 653 574 b 640 583 654 576 651 583 b 628 572 632 583 628 581 b 636 560 628 565 632 561 l 642 558 b 649 550 646 557 649 556 b 640 544 649 549 644 544 b 635 551 636 544 635 547 l 635 553 l 628 553 b 639 540 628 547 629 540 z m 661 540 l 685 540 l 685 547 l 668 547 l 668 560 l 683 560 l 683 565 l 668 565 l 669 576 l 683 576 l 682 583 l 661 583 z m 549 625 l 582 625 l 585 635 l 563 635 l 564 650 l 585 650 l 589 660 l 568 660 l 572 674 l 592 674 l 594 683 l 561 683 z m 360 747 l 438 747 l 504 833 l 425 833 z m 710 540 l 718 540 l 728 583 l 721 583 l 714 549 l 706 583 l 699 583 z m 731 540 l 738 540 l 738 583 l 731 583 z m 635 624 b 661 656 653 624 657 636 b 649 685 667 672 667 685 b 621 656 629 685 625 672 b 635 624 618 636 615 624 z m 636 632 b 632 656 629 632 629 639 b 646 676 636 669 639 676 b 649 656 653 676 653 669 b 636 632 646 639 644 632 z m 758 540 b 771 551 767 540 772 543 b 763 564 771 558 769 561 l 758 565 b 751 574 754 567 751 568 b 758 578 753 576 754 578 b 763 574 761 578 764 576 l 763 572 l 771 572 l 771 574 b 757 583 772 576 769 583 b 744 572 749 583 744 581 b 754 560 744 565 749 561 l 758 558 b 765 550 764 557 765 556 b 757 544 765 549 763 544 b 751 551 753 544 751 547 l 751 553 l 744 553 b 758 540 744 547 746 540 z m 778 540 l 785 540 l 785 583 l 778 583 z m 797 540 l 806 540 l 807 576 l 817 576 l 815 583 l 788 583 l 789 576 l 799 576 z m 667 625 l 678 625 l 686 667 l 693 625 l 707 625 l 719 683 l 708 683 l 700 643 l 693 683 l 679 683 z m 719 625 l 751 625 l 756 635 l 733 635 l 743 683 l 731 683 z m 499 747 l 579 747 l 644 833 l 564 833 z m 804 625 l 815 625 l 818 635 l 807 635 z m 765 625 l 778 625 l 783 649 l 806 683 l 793 683 l 781 661 l 776 683 l 763 683 l 771 649 z m 810 642 l 818 642 l 825 665 l 828 683 l 817 683 l 813 665 z m 639 747 l 719 747 l 785 833 l 706 833 z m 781 747 l 849 747 l 850 833 l 846 833 z "}," ":{"ha":278,"x_min":0,"x_max":0,"o":""},"A":{"ha":994,"x_min":0,"x_max":0,"o":"m 111 -15 b 225 63 168 -28 217 8 b 276 300 239 135 256 215 b 656 283 400 296 575 282 b 732 126 681 228 707 175 b 885 -4 763 47 817 -25 b 947 110 928 4 958 53 b 633 686 906 239 725 461 b 593 846 614 732 597 774 b 679 974 643 878 676 929 b 601 1079 683 1038 649 1078 b 499 960 553 1081 517 1031 b 42 113 319 796 69 293 b 111 -15 36 53 54 -1 z m 300 389 b 490 811 340 532 399 679 b 599 415 500 694 544 553 b 300 389 504 410 408 390 z "},"Á":{"ha":994,"x_min":0,"x_max":0,"o":"m 111 -15 b 225 63 168 -28 217 8 b 276 300 239 135 256 215 b 656 283 400 296 575 282 b 732 126 681 228 707 175 b 885 -4 763 47 817 -25 b 947 110 928 4 958 53 b 633 686 906 239 725 461 b 593 846 614 732 597 774 b 679 974 643 878 676 929 b 601 1079 683 1038 649 1078 b 499 960 553 1081 517 1031 b 42 113 319 796 69 293 b 111 -15 36 53 54 -1 z m 592 1165 b 828 1432 692 1183 824 1361 b 794 1476 829 1457 813 1475 b 739 1436 775 1478 757 1467 b 563 1260 706 1374 642 1303 b 529 1192 528 1240 522 1211 b 592 1165 538 1171 558 1158 z m 300 389 b 490 811 340 532 399 679 b 599 415 500 694 544 553 b 300 389 504 410 408 390 z "},"Ă":{"ha":994,"x_min":0,"x_max":0,"o":"m 111 -15 b 225 63 168 -28 217 8 b 276 300 239 135 256 215 b 656 283 400 296 575 282 b 732 126 681 228 707 175 b 885 -4 763 47 817 -25 b 947 110 928 4 958 53 b 633 686 906 239 725 461 b 593 846 614 732 597 774 b 679 974 643 878 676 929 b 601 1079 683 1038 649 1078 b 499 960 553 1081 517 1031 b 42 113 319 796 69 293 b 111 -15 36 53 54 -1 z m 583 1143 b 749 1356 746 1143 774 1301 b 688 1400 736 1388 713 1406 b 661 1328 664 1393 654 1368 b 583 1207 675 1263 660 1207 b 506 1324 507 1207 494 1268 b 479 1394 511 1367 501 1388 b 418 1351 454 1400 431 1383 b 583 1143 393 1297 421 1144 z m 300 389 b 490 811 340 532 399 679 b 599 415 500 694 544 553 b 300 389 504 410 408 390 z "},"Ǎ":{"ha":994,"x_min":0,"x_max":0,"o":"m 111 -15 b 225 63 168 -28 217 8 b 276 300 239 135 256 215 b 656 283 400 296 575 282 b 732 126 681 228 707 175 b 885 -4 763 47 817 -25 b 947 110 928 4 958 53 b 633 686 906 239 725 461 b 593 846 614 732 597 774 b 679 974 643 878 676 929 b 601 1079 683 1038 649 1078 b 499 960 553 1081 517 1031 b 42 113 319 796 69 293 b 111 -15 36 53 54 -1 z m 751 1426 b 581 1268 697 1415 624 1343 b 410 1426 538 1343 465 1415 b 356 1400 382 1431 363 1419 b 385 1342 350 1383 356 1360 b 535 1174 456 1301 504 1231 b 582 1140 547 1151 564 1140 b 626 1174 597 1140 615 1151 b 776 1342 656 1231 706 1301 b 806 1400 806 1360 811 1383 b 751 1426 799 1419 779 1431 z m 300 389 b 490 811 340 532 399 679 b 599 415 500 694 544 553 b 300 389 504 410 408 390 z "},"Â":{"ha":994,"x_min":0,"x_max":0,"o":"m 111 -15 b 225 63 168 -28 217 8 b 276 300 239 135 256 215 b 656 283 400 296 575 282 b 732 126 681 228 707 175 b 885 -4 763 47 817 -25 b 947 110 928 4 958 53 b 633 686 906 239 725 461 b 593 846 614 732 597 774 b 679 974 643 878 676 929 b 601 1079 683 1038 649 1078 b 499 960 553 1081 517 1031 b 42 113 319 796 69 293 b 111 -15 36 53 54 -1 z m 417 1160 b 588 1318 471 1171 544 1243 b 758 1160 631 1243 703 1171 b 813 1186 786 1156 806 1167 b 783 1244 818 1203 813 1226 b 633 1413 713 1285 664 1356 b 586 1446 621 1435 604 1446 b 542 1413 571 1446 553 1435 b 392 1244 513 1356 463 1285 b 363 1186 363 1226 357 1203 b 417 1160 369 1167 389 1156 z m 300 389 b 490 811 340 532 399 679 b 599 415 500 694 544 553 b 300 389 504 410 408 390 z "},"Ä":{"ha":994,"x_min":0,"x_max":0,"o":"m 111 -15 b 225 63 168 -28 217 8 b 276 300 239 135 256 215 b 656 283 400 296 575 282 b 732 126 681 228 707 175 b 885 -4 763 47 817 -25 b 947 110 928 4 958 53 b 633 686 906 239 725 461 b 593 846 614 732 597 774 b 679 974 643 878 676 929 b 601 1079 683 1038 649 1078 b 499 960 553 1081 517 1031 b 42 113 319 796 69 293 b 111 -15 36 53 54 -1 z m 714 1165 b 779 1236 754 1165 779 1193 b 690 1318 779 1290 732 1318 b 625 1256 649 1318 625 1297 b 714 1165 625 1199 669 1165 z m 476 1165 b 542 1236 517 1165 542 1193 b 453 1318 542 1290 494 1318 b 388 1256 411 1318 388 1297 b 476 1165 388 1199 431 1165 z m 300 389 b 490 811 340 532 399 679 b 599 415 500 694 544 553 b 300 389 504 410 408 390 z "},"À":{"ha":994,"x_min":0,"x_max":0,"o":"m 111 -15 b 225 63 168 -28 217 8 b 276 300 239 135 256 215 b 656 283 400 296 575 282 b 732 126 681 228 707 175 b 885 -4 763 47 817 -25 b 947 110 928 4 958 53 b 633 686 906 239 725 461 b 593 846 614 732 597 774 b 679 974 643 878 676 929 b 601 1079 683 1038 649 1078 b 499 960 553 1081 517 1031 b 42 113 319 796 69 293 b 111 -15 36 53 54 -1 z m 586 1165 b 647 1192 618 1158 639 1171 b 614 1260 656 1211 649 1240 b 438 1436 535 1303 471 1374 b 382 1476 419 1467 401 1478 b 350 1432 364 1475 347 1457 b 586 1165 353 1361 485 1183 z m 300 389 b 490 811 340 532 399 679 b 599 415 500 694 544 553 b 300 389 504 410 408 390 z "},"Ā":{"ha":994,"x_min":0,"x_max":0,"o":"m 111 -15 b 225 63 168 -28 217 8 b 276 300 239 135 256 215 b 656 283 400 296 575 282 b 732 126 681 228 707 175 b 885 -4 763 47 817 -25 b 947 110 928 4 958 53 b 633 686 906 239 725 461 b 593 846 614 732 597 774 b 679 974 643 878 676 929 b 601 1079 683 1038 649 1078 b 499 960 553 1081 517 1031 b 42 113 319 796 69 293 b 111 -15 36 53 54 -1 z m 413 1174 b 768 1204 499 1118 718 1154 b 775 1260 786 1221 789 1246 b 707 1267 761 1274 742 1278 b 457 1263 639 1246 544 1239 b 386 1236 419 1272 394 1256 b 413 1174 378 1215 386 1192 z m 300 389 b 490 811 340 532 399 679 b 599 415 500 694 544 553 b 300 389 504 410 408 390 z "},"Ą":{"ha":994,"x_min":0,"x_max":0,"o":"m 111 -15 b 225 63 168 -28 217 8 b 276 300 239 135 256 215 b 656 283 400 296 575 282 b 732 126 681 228 707 175 b 814 8 751 78 779 31 b 746 -128 769 -35 746 -82 b 883 -251 746 -190 794 -251 b 986 -222 926 -251 967 -237 b 999 -161 1004 -206 1010 -181 b 936 -149 986 -139 963 -139 b 872 -167 914 -158 893 -167 b 825 -114 844 -165 825 -150 b 910 3 825 -76 864 -21 b 943 47 938 19 944 35 b 947 110 950 65 951 88 b 633 686 906 239 725 461 b 593 846 614 732 597 774 b 679 974 643 878 676 929 b 601 1079 683 1038 649 1078 b 499 960 553 1081 517 1031 b 42 113 319 796 69 293 b 111 -15 36 53 54 -1 z m 300 389 b 490 811 340 532 399 679 b 599 415 500 694 544 553 b 300 389 504 410 408 390 z "},"Å":{"ha":994,"x_min":0,"x_max":0,"o":"m 111 -15 b 225 63 168 -28 217 8 b 276 300 239 135 256 215 b 656 283 400 296 575 282 b 732 126 681 228 707 175 b 885 -4 763 47 817 -25 b 947 110 928 4 958 53 b 633 686 906 239 725 461 b 593 846 614 732 597 774 b 679 974 643 878 676 929 b 671 1029 681 994 678 1014 b 733 1149 714 1056 733 1103 b 579 1307 733 1228 679 1307 b 433 1161 481 1307 433 1236 b 519 1018 433 1103 465 1043 b 499 960 511 1001 504 982 b 42 113 319 796 69 293 b 111 -15 36 53 54 -1 z m 582 1093 b 492 1158 524 1093 492 1128 b 582 1221 492 1189 519 1221 b 675 1154 642 1221 675 1188 b 582 1093 675 1122 647 1093 z m 300 389 b 490 811 340 532 399 679 b 599 415 500 694 544 553 b 300 389 504 410 408 390 z "},"Ã":{"ha":994,"x_min":0,"x_max":0,"o":"m 111 -15 b 225 63 168 -28 217 8 b 276 300 239 135 256 215 b 656 283 400 296 575 282 b 732 126 681 228 707 175 b 885 -4 763 47 817 -25 b 947 110 928 4 958 53 b 633 686 906 239 725 461 b 593 846 614 732 597 774 b 679 974 643 878 676 929 b 601 1079 683 1038 649 1078 b 499 960 553 1081 517 1031 b 42 113 319 796 69 293 b 111 -15 36 53 54 -1 z m 685 1140 b 814 1276 768 1140 818 1226 b 769 1322 813 1307 792 1322 b 726 1278 749 1322 736 1310 b 667 1215 713 1239 694 1215 b 493 1306 618 1214 583 1306 b 353 1164 399 1306 350 1214 b 399 1118 356 1132 375 1118 b 442 1163 418 1118 431 1132 b 511 1229 456 1201 475 1229 b 685 1140 565 1229 601 1140 z m 300 389 b 490 811 340 532 399 679 b 599 415 500 694 544 553 b 300 389 504 410 408 390 z "},"Æ":{"ha":1363,"x_min":0,"x_max":0,"o":"m 111 -15 b 225 63 168 -28 217 8 b 274 301 239 132 254 214 b 626 283 385 296 536 285 b 613 76 615 215 607 147 b 704 -11 615 26 647 -12 b 796 72 750 -10 781 19 b 1142 -17 911 24 1043 -17 b 1314 81 1228 -17 1314 4 b 1194 160 1315 135 1279 181 b 810 165 1100 135 949 140 b 790 504 818 253 810 375 b 1139 478 919 496 1092 474 b 1236 558 1222 485 1239 521 b 1136 622 1232 610 1190 622 b 775 593 1015 622 922 586 b 692 908 754 703 725 814 b 1228 922 893 881 1139 889 b 1297 1050 1297 949 1317 997 b 1186 1104 1283 1093 1246 1126 b 465 1086 1022 1047 700 974 b 403 1081 440 1100 414 1097 b 426 999 392 1060 394 1026 b 468 971 438 989 451 979 b 42 113 293 772 69 283 b 111 -15 36 53 54 -1 z m 296 389 b 553 938 346 576 421 781 l 572 932 b 650 675 603 854 642 754 b 646 417 663 579 657 494 b 296 389 533 415 424 390 z "},"B":{"ha":1068,"x_min":0,"x_max":0,"o":"m 185 -28 b 290 93 229 -28 264 19 l 306 143 l 307 140 b 661 -17 410 22 550 -17 b 1001 264 860 -17 1001 114 b 768 542 1001 375 925 483 b 892 818 847 622 892 724 b 653 1071 892 972 789 1071 b 338 849 540 1071 414 1001 b 322 928 333 878 328 904 b 218 1065 297 1028 263 1065 b 118 939 149 1065 118 1007 b 240 467 118 807 217 615 b 104 96 161 364 107 197 b 185 -28 103 24 128 -28 z m 408 396 b 696 482 522 396 619 429 b 910 271 836 436 910 354 b 714 110 910 185 831 110 b 406 246 626 110 517 151 b 328 251 379 264 351 264 b 346 422 336 306 342 363 b 408 396 360 404 383 396 z m 351 510 l 351 526 b 351 681 353 578 354 631 b 638 982 406 896 528 982 b 783 833 714 982 783 940 b 390 536 783 711 640 576 b 351 510 374 532 360 522 z "},"C":{"ha":931,"x_min":0,"x_max":0,"o":"m 510 -26 b 865 171 654 -26 789 47 b 857 275 890 211 896 251 b 764 243 824 296 783 276 b 518 65 700 136 615 65 b 194 419 357 65 194 179 b 731 836 194 694 438 876 b 829 913 788 836 822 865 b 656 1040 853 1010 753 1040 b 74 450 314 1042 74 757 b 510 -26 74 156 282 -26 z "},"Ć":{"ha":931,"x_min":0,"x_max":0,"o":"m 510 -26 b 865 171 654 -26 789 47 b 857 275 890 211 896 251 b 764 243 824 296 783 276 b 518 65 700 136 615 65 b 194 419 357 65 194 179 b 731 836 194 694 438 876 b 829 913 788 836 822 865 b 656 1040 853 1010 753 1040 b 74 450 314 1042 74 757 b 510 -26 74 156 282 -26 z m 644 1161 b 881 1428 744 1179 876 1357 b 847 1472 882 1453 865 1471 b 792 1432 828 1474 810 1463 b 615 1256 758 1369 694 1299 b 582 1188 581 1236 575 1207 b 644 1161 590 1167 611 1154 z "},"Č":{"ha":931,"x_min":0,"x_max":0,"o":"m 510 -26 b 865 171 654 -26 789 47 b 857 275 890 211 896 251 b 764 243 824 296 783 276 b 518 65 700 136 615 65 b 194 419 357 65 194 179 b 731 836 194 694 438 876 b 829 913 788 836 822 865 b 656 1040 853 1010 753 1040 b 74 450 314 1042 74 757 b 510 -26 74 156 282 -26 z m 804 1422 b 633 1264 750 1411 676 1339 b 463 1422 590 1339 518 1411 b 408 1396 435 1426 415 1415 b 438 1338 403 1379 408 1356 b 588 1169 508 1297 557 1226 b 635 1136 600 1147 617 1136 b 679 1169 650 1136 668 1147 b 829 1338 708 1226 758 1297 b 858 1396 858 1356 864 1379 b 804 1422 851 1415 832 1426 z "},"Ç":{"ha":931,"x_min":0,"x_max":0,"o":"m 497 -346 b 638 -211 592 -346 638 -278 b 510 -96 638 -154 594 -96 b 531 -26 522 -75 529 -49 b 865 171 668 -19 793 53 b 857 275 890 211 896 251 b 764 243 824 296 783 276 b 518 65 700 136 615 65 b 194 419 357 65 194 179 b 731 836 194 694 438 876 b 829 913 788 836 822 865 b 656 1040 853 1010 753 1040 b 74 450 314 1042 74 757 b 461 -24 74 176 253 0 l 457 -31 b 413 -136 451 -58 438 -104 b 429 -164 406 -151 417 -161 b 456 -154 439 -162 449 -160 l 456 -157 b 507 -149 475 -151 493 -149 b 579 -208 556 -149 579 -179 b 524 -260 579 -237 557 -260 b 444 -243 499 -260 467 -253 b 381 -257 418 -233 393 -233 b 394 -317 371 -275 375 -300 b 497 -346 413 -332 453 -346 z "},"Ċ":{"ha":931,"x_min":0,"x_max":0,"o":"m 510 -26 b 865 171 654 -26 789 47 b 857 275 890 211 896 251 b 764 243 824 296 783 276 b 518 65 700 136 615 65 b 194 419 357 65 194 179 b 731 836 194 694 438 876 b 829 913 788 836 822 865 b 656 1040 853 1010 753 1040 b 74 450 314 1042 74 757 b 510 -26 74 156 282 -26 z m 650 1163 b 726 1246 696 1163 726 1194 b 622 1340 726 1308 672 1340 b 546 1268 575 1340 546 1317 b 650 1163 546 1203 597 1163 z "},"D":{"ha":1090,"x_min":0,"x_max":0,"o":"m 388 -4 b 1017 599 761 -31 1017 264 b 678 1063 1017 900 853 1063 b 342 806 553 1063 422 979 l 335 860 b 218 1065 321 1010 274 1065 b 118 939 149 1065 118 1007 b 238 478 118 811 211 626 b 104 96 157 365 107 196 b 185 -28 103 24 128 -28 b 279 61 224 -28 256 6 b 388 -4 292 21 339 0 z m 310 154 b 353 544 336 257 350 401 l 353 611 b 653 971 415 867 542 971 b 871 667 769 971 871 856 b 346 168 871 407 654 192 b 310 154 332 167 319 161 z "},"Ď":{"ha":1090,"x_min":0,"x_max":0,"o":"m 388 -4 b 1017 599 761 -31 1017 264 b 678 1063 1017 900 853 1063 b 342 806 553 1063 422 979 l 335 860 b 218 1065 321 1010 274 1065 b 118 939 149 1065 118 1007 b 238 478 118 811 211 626 b 104 96 157 365 107 196 b 185 -28 103 24 128 -28 b 279 61 224 -28 256 6 b 388 -4 292 21 339 0 z m 718 1422 b 547 1264 664 1411 590 1339 b 376 1422 504 1339 432 1411 b 322 1396 349 1426 329 1415 b 351 1338 317 1379 322 1356 b 501 1169 422 1297 471 1226 b 549 1136 514 1147 531 1136 b 593 1169 564 1136 582 1147 b 743 1338 622 1226 672 1297 b 772 1396 772 1356 778 1379 b 718 1422 765 1415 746 1426 z m 310 154 b 353 544 336 257 350 401 l 353 611 b 653 971 415 867 542 971 b 871 667 769 971 871 856 b 346 168 871 407 654 192 b 310 154 332 167 319 161 z "},"Đ":{"ha":1090,"x_min":0,"x_max":0,"o":"m 388 -4 b 1017 599 761 -31 1017 264 b 678 1063 1017 900 853 1063 b 342 806 553 1063 422 979 l 335 860 b 218 1065 321 1010 274 1065 b 118 939 149 1065 118 1007 b 231 515 118 821 196 656 b 172 526 210 518 190 522 b 93 500 131 536 103 518 b 122 436 85 479 93 456 b 199 414 142 425 168 418 b 104 96 142 307 107 178 b 185 -28 103 24 128 -28 b 279 61 224 -28 256 6 b 388 -4 292 21 339 0 z m 310 154 b 347 413 328 225 340 317 b 538 467 431 421 510 443 b 544 522 558 485 561 508 b 469 531 531 536 508 540 b 351 511 438 521 396 514 l 353 544 l 353 611 b 653 971 415 867 542 971 b 871 667 769 971 871 856 b 346 168 871 407 654 192 b 310 154 332 167 319 161 z "},"Ð":{"ha":1090,"x_min":0,"x_max":0,"o":"m 388 -4 b 1017 599 761 -31 1017 264 b 678 1063 1017 900 853 1063 b 342 806 553 1063 422 979 l 335 860 b 218 1065 321 1010 274 1065 b 118 939 149 1065 118 1007 b 231 515 118 821 196 656 b 172 526 210 518 190 522 b 93 500 131 536 103 518 b 122 436 85 479 93 456 b 199 414 142 425 168 418 b 104 96 142 307 107 178 b 185 -28 103 24 128 -28 b 279 61 224 -28 256 6 b 388 -4 292 21 339 0 z m 310 154 b 347 413 328 225 340 317 b 538 467 431 421 510 443 b 544 522 558 485 561 508 b 469 531 531 536 508 540 b 351 511 438 521 396 514 l 353 544 l 353 611 b 653 971 415 867 542 971 b 871 667 769 971 871 856 b 346 168 871 407 654 192 b 310 154 332 167 319 161 z "},"E":{"ha":956,"x_min":0,"x_max":0,"o":"m 228 -15 b 340 93 276 -15 314 26 b 735 -17 464 36 622 -17 b 906 81 821 -17 906 4 b 788 160 908 135 872 181 b 364 174 683 132 511 142 b 399 506 386 265 396 382 b 731 478 522 497 681 474 b 828 558 814 485 831 521 b 728 622 825 610 782 622 b 399 593 607 622 539 586 b 379 899 397 694 390 797 b 821 922 544 876 735 890 b 890 1050 889 949 910 997 b 778 1104 876 1093 839 1126 b 165 1076 615 1047 400 963 b 103 1069 140 1089 114 1088 b 126 989 92 1050 94 1015 b 190 949 143 974 165 960 b 289 340 201 801 289 560 b 274 199 289 294 285 246 b 203 215 249 210 226 215 b 114 119 146 215 114 174 b 228 -15 114 57 156 -15 z "},"É":{"ha":956,"x_min":0,"x_max":0,"o":"m 228 -15 b 340 93 276 -15 314 26 b 735 -17 464 36 622 -17 b 906 81 821 -17 906 4 b 788 160 908 135 872 181 b 364 174 683 132 511 142 b 399 506 386 265 396 382 b 731 478 522 497 681 474 b 828 558 814 485 831 521 b 728 622 825 610 782 622 b 399 593 607 622 539 586 b 379 899 397 694 390 797 b 821 922 544 876 735 890 b 890 1050 889 949 910 997 b 778 1104 876 1093 839 1126 b 165 1076 615 1047 400 963 b 103 1069 140 1089 114 1088 b 126 989 92 1050 94 1015 b 190 949 143 974 165 960 b 289 340 201 801 289 560 b 274 199 289 294 285 246 b 203 215 249 210 226 215 b 114 119 146 215 114 174 b 228 -15 114 57 156 -15 z m 499 1165 b 735 1432 599 1183 731 1361 b 701 1476 736 1457 719 1475 b 646 1436 682 1478 664 1467 b 469 1260 613 1374 549 1303 b 436 1192 435 1240 429 1211 b 499 1165 444 1171 465 1158 z "},"Ě":{"ha":956,"x_min":0,"x_max":0,"o":"m 228 -15 b 340 93 276 -15 314 26 b 735 -17 464 36 622 -17 b 906 81 821 -17 906 4 b 788 160 908 135 872 181 b 364 174 683 132 511 142 b 399 506 386 265 396 382 b 731 478 522 497 681 474 b 828 558 814 485 831 521 b 728 622 825 610 782 622 b 399 593 607 622 539 586 b 379 899 397 694 390 797 b 821 922 544 876 735 890 b 890 1050 889 949 910 997 b 778 1104 876 1093 839 1126 b 165 1076 615 1047 400 963 b 103 1069 140 1089 114 1088 b 126 989 92 1050 94 1015 b 190 949 143 974 165 960 b 289 340 201 801 289 560 b 274 199 289 294 285 246 b 203 215 249 210 226 215 b 114 119 146 215 114 174 b 228 -15 114 57 156 -15 z m 658 1426 b 488 1268 604 1415 531 1343 b 317 1426 444 1343 372 1415 b 263 1400 289 1431 269 1419 b 292 1342 257 1383 263 1360 b 442 1174 363 1301 411 1231 b 489 1140 454 1151 471 1140 b 533 1174 504 1140 522 1151 b 683 1342 563 1231 613 1301 b 713 1400 713 1360 718 1383 b 658 1426 706 1419 686 1431 z "},"Ê":{"ha":956,"x_min":0,"x_max":0,"o":"m 228 -15 b 340 93 276 -15 314 26 b 735 -17 464 36 622 -17 b 906 81 821 -17 906 4 b 788 160 908 135 872 181 b 364 174 683 132 511 142 b 399 506 386 265 396 382 b 731 478 522 497 681 474 b 828 558 814 485 831 521 b 728 622 825 610 782 622 b 399 593 607 622 539 586 b 379 899 397 694 390 797 b 821 922 544 876 735 890 b 890 1050 889 949 910 997 b 778 1104 876 1093 839 1126 b 165 1076 615 1047 400 963 b 103 1069 140 1089 114 1088 b 126 989 92 1050 94 1015 b 190 949 143 974 165 960 b 289 340 201 801 289 560 b 274 199 289 294 285 246 b 203 215 249 210 226 215 b 114 119 146 215 114 174 b 228 -15 114 57 156 -15 z m 324 1160 b 494 1318 378 1171 451 1243 b 665 1160 538 1243 610 1171 b 719 1186 693 1156 713 1167 b 690 1244 725 1203 719 1226 b 540 1413 619 1285 571 1356 b 493 1446 528 1435 511 1446 b 449 1413 478 1446 460 1435 b 299 1244 419 1356 369 1285 b 269 1186 269 1226 264 1203 b 324 1160 276 1167 296 1156 z "},"Ë":{"ha":956,"x_min":0,"x_max":0,"o":"m 228 -15 b 340 93 276 -15 314 26 b 735 -17 464 36 622 -17 b 906 81 821 -17 906 4 b 788 160 908 135 872 181 b 364 174 683 132 511 142 b 399 506 386 265 396 382 b 731 478 522 497 681 474 b 828 558 814 485 831 521 b 728 622 825 610 782 622 b 399 593 607 622 539 586 b 379 899 397 694 390 797 b 821 922 544 876 735 890 b 890 1050 889 949 910 997 b 778 1104 876 1093 839 1126 b 165 1076 615 1047 400 963 b 103 1069 140 1089 114 1088 b 126 989 92 1050 94 1015 b 190 949 143 974 165 960 b 289 340 201 801 289 560 b 274 199 289 294 285 246 b 203 215 249 210 226 215 b 114 119 146 215 114 174 b 228 -15 114 57 156 -15 z m 621 1165 b 686 1236 661 1165 686 1193 b 597 1318 686 1290 639 1318 b 532 1256 556 1318 532 1297 b 621 1165 532 1199 576 1165 z m 383 1165 b 449 1236 424 1165 449 1193 b 360 1318 449 1290 401 1318 b 294 1256 318 1318 294 1297 b 383 1165 294 1199 338 1165 z "},"Ė":{"ha":956,"x_min":0,"x_max":0,"o":"m 228 -15 b 340 93 276 -15 314 26 b 735 -17 464 36 622 -17 b 906 81 821 -17 906 4 b 788 160 908 135 872 181 b 364 174 683 132 511 142 b 399 506 386 265 396 382 b 731 478 522 497 681 474 b 828 558 814 485 831 521 b 728 622 825 610 782 622 b 399 593 607 622 539 586 b 379 899 397 694 390 797 b 821 922 544 876 735 890 b 890 1050 889 949 910 997 b 778 1104 876 1093 839 1126 b 165 1076 615 1047 400 963 b 103 1069 140 1089 114 1088 b 126 989 92 1050 94 1015 b 190 949 143 974 165 960 b 289 340 201 801 289 560 b 274 199 289 294 285 246 b 203 215 249 210 226 215 b 114 119 146 215 114 174 b 228 -15 114 57 156 -15 z m 504 1167 b 581 1250 550 1167 581 1199 b 476 1344 581 1313 526 1344 b 400 1272 429 1344 400 1321 b 504 1167 400 1207 451 1167 z "},"È":{"ha":956,"x_min":0,"x_max":0,"o":"m 228 -15 b 340 93 276 -15 314 26 b 735 -17 464 36 622 -17 b 906 81 821 -17 906 4 b 788 160 908 135 872 181 b 364 174 683 132 511 142 b 399 506 386 265 396 382 b 731 478 522 497 681 474 b 828 558 814 485 831 521 b 728 622 825 610 782 622 b 399 593 607 622 539 586 b 379 899 397 694 390 797 b 821 922 544 876 735 890 b 890 1050 889 949 910 997 b 778 1104 876 1093 839 1126 b 165 1076 615 1047 400 963 b 103 1069 140 1089 114 1088 b 126 989 92 1050 94 1015 b 190 949 143 974 165 960 b 289 340 201 801 289 560 b 274 199 289 294 285 246 b 203 215 249 210 226 215 b 114 119 146 215 114 174 b 228 -15 114 57 156 -15 z m 493 1165 b 554 1192 525 1158 546 1171 b 521 1260 563 1211 556 1240 b 344 1436 442 1303 378 1374 b 289 1476 326 1467 308 1478 b 257 1432 271 1475 254 1457 b 493 1165 260 1361 392 1183 z "},"Ē":{"ha":956,"x_min":0,"x_max":0,"o":"m 228 -15 b 340 93 276 -15 314 26 b 735 -17 464 36 622 -17 b 906 81 821 -17 906 4 b 788 160 908 135 872 181 b 364 174 683 132 511 142 b 399 506 386 265 396 382 b 731 478 522 497 681 474 b 828 558 814 485 831 521 b 728 622 825 610 782 622 b 399 593 607 622 539 586 b 379 899 397 694 390 797 b 821 922 544 876 735 890 b 890 1050 889 949 910 997 b 778 1104 876 1093 839 1126 b 165 1076 615 1047 400 963 b 103 1069 140 1089 114 1088 b 126 989 92 1050 94 1015 b 190 949 143 974 165 960 b 289 340 201 801 289 560 b 274 199 289 294 285 246 b 203 215 249 210 226 215 b 114 119 146 215 114 174 b 228 -15 114 57 156 -15 z m 319 1174 b 675 1204 406 1118 625 1154 b 682 1260 693 1221 696 1246 b 614 1267 668 1274 649 1278 b 364 1263 546 1246 451 1239 b 293 1236 326 1272 301 1256 b 319 1174 285 1215 293 1192 z "},"Ę":{"ha":956,"x_min":0,"x_max":0,"o":"m 228 -15 b 340 93 276 -15 314 26 b 735 -17 464 36 621 -17 b 688 -131 704 -53 688 -93 b 825 -254 688 -193 736 -254 b 928 -225 868 -254 908 -240 b 940 -164 946 -208 951 -183 b 878 -151 928 -142 904 -142 b 814 -169 856 -161 835 -169 b 767 -117 786 -168 767 -153 b 851 0 767 -79 806 -24 b 871 14 860 4 865 8 b 906 81 892 28 906 50 b 788 160 908 135 872 181 b 364 174 683 132 511 142 b 399 506 386 265 396 382 b 731 478 522 497 681 474 b 828 558 814 485 831 521 b 728 622 825 610 782 622 b 399 593 607 622 539 586 b 379 899 397 694 390 797 b 821 922 544 876 735 890 b 890 1050 889 949 910 997 b 778 1104 876 1093 839 1126 b 165 1076 615 1047 400 963 b 103 1069 140 1089 114 1088 b 126 989 92 1050 94 1015 b 190 949 143 974 165 960 b 289 340 201 801 289 560 b 274 199 289 294 285 246 b 203 215 249 210 226 215 b 114 119 146 215 114 174 b 228 -15 114 57 156 -15 z "},"Ẽ":{"ha":956,"x_min":0,"x_max":0,"o":"m 228 -15 b 340 93 276 -15 314 26 b 735 -17 464 36 622 -17 b 906 81 821 -17 906 4 b 788 160 908 135 872 181 b 364 174 683 132 511 142 b 399 506 386 265 396 382 b 731 478 522 497 681 474 b 828 558 814 485 831 521 b 728 622 825 610 782 622 b 399 593 607 622 539 586 b 379 899 397 694 390 797 b 821 922 544 876 735 890 b 890 1050 889 949 910 997 b 778 1104 876 1093 839 1126 b 165 1076 615 1047 400 963 b 103 1069 140 1089 114 1088 b 126 989 92 1050 94 1015 b 190 949 143 974 165 960 b 289 340 201 801 289 560 b 274 199 289 294 285 246 b 203 215 249 210 226 215 b 114 119 146 215 114 174 b 228 -15 114 57 156 -15 z m 592 1140 b 721 1276 675 1140 725 1226 b 676 1322 719 1307 699 1322 b 633 1278 656 1322 643 1310 b 574 1215 619 1239 601 1215 b 400 1306 525 1214 490 1306 b 260 1164 306 1306 257 1214 b 306 1118 263 1132 282 1118 b 349 1163 325 1118 338 1132 b 418 1229 363 1201 382 1229 b 592 1140 472 1229 508 1140 z "},"F":{"ha":939,"x_min":0,"x_max":0,"o":"m 271 -3 b 376 100 325 -3 360 40 b 376 504 400 193 397 346 b 731 478 507 497 682 475 b 828 558 814 482 831 521 b 728 622 825 610 782 622 b 364 593 606 622 513 586 b 288 911 346 706 319 818 b 499 883 353 894 426 886 b 828 926 639 882 765 901 b 897 1021 879 947 904 976 b 778 1104 889 1079 849 1126 b 153 1081 614 1047 401 958 b 99 1060 128 1094 104 1081 b 132 981 93 1038 99 1007 b 160 961 140 974 150 967 b 242 671 189 876 233 757 b 183 86 265 433 174 282 b 271 -3 188 38 218 -3 z "},"G":{"ha":1018,"x_min":0,"x_max":0,"o":"m 583 -21 b 963 267 810 -21 960 114 b 661 547 964 436 832 547 b 374 428 560 547 451 508 b 365 292 338 390 328 331 b 489 289 397 256 449 256 b 700 399 561 358 633 399 b 853 247 790 399 853 325 b 569 71 853 157 764 71 b 194 428 372 71 194 181 b 728 854 194 693 438 883 b 826 929 785 854 819 883 b 721 1050 839 999 794 1044 b 74 457 353 1093 74 781 b 583 -21 74 147 296 -21 z "},"Ğ":{"ha":1018,"x_min":0,"x_max":0,"o":"m 583 -21 b 963 267 810 -21 960 114 b 661 547 964 436 832 547 b 374 428 560 547 451 508 b 365 292 338 390 328 331 b 489 289 397 256 449 256 b 700 399 561 358 633 399 b 853 247 790 399 853 325 b 569 71 853 157 764 71 b 194 428 372 71 194 181 b 728 854 194 693 438 883 b 826 929 785 854 819 883 b 721 1050 839 999 794 1044 b 74 457 353 1093 74 781 b 583 -21 74 147 296 -21 z m 636 1139 b 801 1351 799 1139 826 1297 b 740 1396 789 1383 765 1401 b 714 1324 717 1389 707 1364 b 636 1203 728 1258 713 1203 b 558 1319 560 1203 547 1264 b 532 1390 564 1363 554 1383 b 471 1347 507 1396 483 1379 b 636 1139 446 1293 474 1140 z "},"Ģ":{"ha":1018,"x_min":0,"x_max":0,"o":"m 583 -21 b 963 267 810 -21 960 114 b 661 547 964 436 832 547 b 374 428 560 547 451 508 b 365 292 338 390 328 331 b 489 289 397 256 449 256 b 700 399 561 358 633 399 b 853 247 790 399 853 325 b 569 71 853 157 764 71 b 194 428 372 71 194 181 b 728 854 194 693 438 883 b 826 929 785 854 819 883 b 721 1050 839 999 794 1044 b 74 457 353 1093 74 781 b 583 -21 74 147 296 -21 z m 525 -92 b 428 -182 478 -92 428 -124 b 510 -250 428 -225 460 -264 b 472 -332 503 -279 490 -307 b 469 -392 457 -356 454 -381 b 517 -387 481 -400 500 -400 b 601 -182 557 -357 601 -260 b 525 -92 601 -125 568 -92 z "},"Ġ":{"ha":1018,"x_min":0,"x_max":0,"o":"m 583 -21 b 963 267 810 -21 960 114 b 661 547 964 436 832 547 b 374 428 560 547 451 508 b 365 292 338 390 328 331 b 489 289 397 256 449 256 b 700 399 561 358 633 399 b 853 247 790 399 853 325 b 569 71 853 157 764 71 b 194 428 372 71 194 181 b 728 854 194 693 438 883 b 826 929 785 854 819 883 b 721 1050 839 999 794 1044 b 74 457 353 1093 74 781 b 583 -21 74 147 296 -21 z m 650 1163 b 726 1246 696 1163 726 1194 b 622 1340 726 1308 672 1340 b 546 1268 575 1340 546 1317 b 650 1163 546 1203 597 1163 z "},"H":{"ha":1133,"x_min":0,"x_max":0,"o":"m 185 -28 b 340 382 271 -29 321 160 b 800 508 471 461 644 493 b 832 150 800 369 811 240 b 954 -10 843 44 889 -14 b 1039 92 1014 -6 1040 40 b 908 674 1025 286 914 435 b 960 993 906 768 942 908 b 915 1054 968 1039 940 1054 b 854 996 888 1054 868 1033 b 801 597 822 886 806 742 b 349 501 658 583 488 563 b 335 860 353 628 349 757 b 218 1065 321 1010 274 1065 b 118 939 149 1065 118 1007 b 232 439 118 828 206 636 b 100 131 165 357 111 236 b 185 -28 90 38 121 -28 z "},"Ħ":{"ha":1133,"x_min":0,"x_max":0,"o":"m 185 -28 b 340 382 271 -29 321 160 b 800 508 471 461 644 493 b 832 150 800 369 811 240 b 954 -10 843 44 889 -14 b 1039 92 1014 -6 1040 40 b 908 674 1025 286 914 435 b 925 831 907 719 915 775 b 1004 857 963 840 990 849 b 1029 899 1024 868 1032 885 b 957 925 1025 921 999 936 l 944 922 l 960 993 b 915 1054 968 1039 940 1054 b 854 996 888 1054 868 1033 b 832 903 846 967 839 936 b 335 864 700 885 508 869 b 218 1065 319 1011 274 1065 b 118 939 149 1065 118 1007 b 126 865 118 917 121 892 l 115 865 b 43 835 75 867 50 854 b 79 774 36 813 44 782 b 153 764 99 769 124 765 b 232 439 181 667 217 554 b 100 131 165 357 111 236 b 185 -28 90 38 121 -28 z m 344 763 b 818 810 500 768 682 788 b 801 597 810 742 804 669 b 349 501 658 583 488 563 b 344 763 351 590 350 681 z "},"I":{"ha":418,"x_min":0,"x_max":0,"o":"m 274 -12 b 311 53 299 -10 325 8 b 232 372 286 135 238 271 b 310 969 218 615 310 775 b 224 1061 310 1019 281 1060 b 111 894 156 1063 119 1000 b 208 42 79 690 121 276 b 274 -12 225 4 246 -15 z "},"Ĳ":{"ha":1143,"x_min":0,"x_max":0,"o":"m 274 -12 b 311 53 299 -10 325 8 b 232 372 286 135 238 271 b 310 969 218 615 310 775 b 224 1061 310 1019 281 1060 b 111 894 156 1063 119 1000 b 208 42 79 690 121 276 b 274 -12 225 4 246 -15 z m 667 -14 b 1004 253 818 -14 954 58 b 1018 922 1057 465 1038 732 b 915 1053 1010 1018 965 1053 b 818 938 857 1053 818 1007 b 918 288 818 797 947 572 b 744 114 906 178 838 114 b 490 222 625 114 571 222 b 404 133 438 222 404 181 b 667 -14 404 39 553 -14 z "},"Í":{"ha":418,"x_min":0,"x_max":0,"o":"m 274 -12 b 311 53 299 -10 325 8 b 232 372 286 135 238 271 b 310 969 218 615 310 775 b 224 1061 310 1019 281 1060 b 111 894 156 1063 119 1000 b 208 42 79 690 121 276 b 274 -12 225 4 246 -15 z m 232 1161 b 468 1428 332 1179 464 1357 b 435 1472 469 1453 453 1471 b 379 1432 415 1474 397 1463 b 203 1256 346 1369 282 1299 b 169 1188 168 1236 163 1207 b 232 1161 178 1167 199 1154 z "},"Î":{"ha":418,"x_min":0,"x_max":0,"o":"m 274 -12 b 311 53 299 -10 325 8 b 232 372 286 135 238 271 b 310 969 218 615 310 775 b 224 1061 310 1019 281 1060 b 111 894 156 1063 119 1000 b 208 42 79 690 121 276 b 274 -12 225 4 246 -15 z m 57 1156 b 228 1314 111 1167 185 1239 b 399 1156 271 1239 343 1167 b 453 1182 426 1151 446 1163 b 424 1240 458 1199 453 1222 b 274 1408 353 1281 304 1351 b 226 1442 261 1431 244 1442 b 182 1408 211 1442 193 1431 b 32 1240 153 1351 103 1281 b 3 1182 3 1222 -3 1199 b 57 1156 10 1163 29 1151 z "},"Ï":{"ha":418,"x_min":0,"x_max":0,"o":"m 274 -12 b 311 53 299 -10 325 8 b 232 372 286 135 238 271 b 310 969 218 615 310 775 b 224 1061 310 1019 281 1060 b 111 894 156 1063 119 1000 b 208 42 79 690 121 276 b 274 -12 225 4 246 -15 z m 354 1161 b 419 1232 394 1161 419 1189 b 331 1314 419 1286 372 1314 b 265 1251 289 1314 265 1293 b 354 1161 265 1194 310 1161 z m 117 1161 b 182 1232 157 1161 182 1189 b 93 1314 182 1286 135 1314 b 28 1251 51 1314 28 1293 b 117 1161 28 1194 71 1161 z "},"İ":{"ha":418,"x_min":0,"x_max":0,"o":"m 274 -12 b 311 53 299 -10 325 8 b 232 372 286 135 238 271 b 310 969 218 615 310 775 b 224 1061 310 1019 281 1060 b 111 894 156 1063 119 1000 b 208 42 79 690 121 276 b 274 -12 225 4 246 -15 z m 238 1163 b 314 1246 283 1163 314 1194 b 210 1340 314 1308 260 1340 b 133 1268 163 1340 133 1317 b 238 1163 133 1203 185 1163 z "},"Ì":{"ha":418,"x_min":0,"x_max":0,"o":"m 274 -12 b 311 53 299 -10 325 8 b 232 372 286 135 238 271 b 310 969 218 615 310 775 b 224 1061 310 1019 281 1060 b 111 894 156 1063 119 1000 b 208 42 79 690 121 276 b 274 -12 225 4 246 -15 z m 226 1161 b 288 1188 258 1154 279 1167 b 254 1256 296 1207 289 1236 b 78 1432 175 1299 111 1369 b 22 1472 60 1463 42 1474 b -10 1428 4 1471 -12 1453 b 226 1161 -7 1357 125 1179 z "},"Ī":{"ha":418,"x_min":0,"x_max":0,"o":"m 274 -12 b 311 53 299 -10 325 8 b 232 372 286 135 238 271 b 310 969 218 615 310 775 b 224 1061 310 1019 281 1060 b 111 894 156 1063 119 1000 b 208 42 79 690 121 276 b 274 -12 225 4 246 -15 z m 53 1169 b 408 1200 139 1114 358 1150 b 415 1256 426 1217 429 1242 b 347 1263 401 1269 382 1274 b 97 1258 279 1242 185 1235 b 26 1232 60 1268 35 1251 b 53 1169 18 1211 26 1188 z "},"Į":{"ha":418,"x_min":0,"x_max":0,"o":"m 261 -282 b 364 -253 304 -282 344 -268 b 376 -192 382 -236 388 -211 b 314 -179 364 -169 340 -169 b 250 -197 292 -189 271 -197 b 203 -144 222 -196 203 -181 b 288 -28 203 -107 242 -51 b 315 28 325 -7 325 15 b 311 53 315 35 314 43 b 232 372 286 135 238 271 b 310 969 218 615 310 775 b 224 1061 310 1019 281 1060 b 111 894 156 1063 119 1000 b 208 42 79 690 121 276 b 228 8 214 28 221 17 b 124 -158 160 -40 124 -101 b 261 -282 124 -221 172 -282 z "},"Ĩ":{"ha":418,"x_min":0,"x_max":0,"o":"m 274 -12 b 311 53 299 -10 325 8 b 232 372 286 135 238 271 b 310 969 218 615 310 775 b 224 1061 310 1019 281 1060 b 111 894 156 1063 119 1000 b 208 42 79 690 121 276 b 274 -12 225 4 246 -15 z m 325 1136 b 454 1272 408 1136 458 1222 b 410 1318 453 1303 432 1318 b 367 1274 389 1318 376 1306 b 307 1211 353 1235 335 1211 b 133 1301 258 1210 224 1301 b -7 1160 39 1301 -10 1210 b 39 1114 -4 1128 15 1114 b 82 1158 58 1114 71 1128 b 151 1225 96 1197 115 1225 b 325 1136 206 1225 242 1136 z "},"J":{"ha":779,"x_min":0,"x_max":0,"o":"m 304 -14 b 642 253 456 -14 592 58 b 656 922 694 465 675 732 b 553 1053 647 1018 603 1053 b 456 938 494 1053 456 1007 b 556 288 456 797 585 572 b 382 114 543 178 475 114 b 128 222 263 114 208 222 b 42 133 75 222 42 181 b 304 -14 42 39 190 -14 z "},"K":{"ha":1015,"x_min":0,"x_max":0,"o":"m 185 -28 b 296 107 232 -28 269 24 b 351 465 326 200 344 331 b 392 535 361 488 374 510 b 743 67 722 463 713 199 b 853 -7 756 11 799 -17 b 921 128 907 4 931 56 b 447 604 893 296 743 550 l 472 631 b 944 900 610 774 840 811 b 953 1021 982 935 985 983 b 765 1006 915 1069 843 1064 b 353 633 654 943 463 772 b 319 932 350 747 339 851 b 218 1065 296 1029 261 1065 b 118 939 149 1065 118 1007 b 239 468 118 808 215 617 b 100 115 164 378 108 225 b 185 -28 92 32 124 -28 z "},"Ķ":{"ha":1015,"x_min":0,"x_max":0,"o":"m 185 -28 b 296 107 232 -28 269 24 b 351 465 326 200 344 331 b 392 535 361 488 374 510 b 743 67 722 463 713 199 b 853 -7 756 11 799 -17 b 921 128 907 4 931 56 b 447 604 893 296 743 550 l 472 631 b 944 900 610 774 840 811 b 953 1021 982 935 985 983 b 765 1006 915 1069 843 1064 b 353 633 654 943 463 772 b 319 932 350 747 339 851 b 218 1065 296 1029 261 1065 b 118 939 149 1065 118 1007 b 239 468 118 808 215 617 b 100 115 164 378 108 225 b 185 -28 92 32 124 -28 z m 522 -35 b 425 -125 475 -35 425 -67 b 507 -193 425 -168 457 -207 b 469 -275 500 -222 488 -250 b 467 -335 454 -299 451 -324 b 514 -331 478 -343 497 -343 b 599 -125 554 -300 599 -203 b 522 -35 599 -68 565 -35 z "},"L":{"ha":915,"x_min":0,"x_max":0,"o":"m 217 -15 b 321 97 261 -15 296 28 b 703 -17 443 39 589 -17 b 871 81 788 -17 871 4 b 756 160 872 135 838 181 b 344 175 651 132 490 142 b 383 568 371 283 383 426 b 356 928 383 690 379 815 b 229 1043 333 1031 278 1049 b 151 914 167 1033 146 983 b 258 204 164 754 319 492 b 196 215 236 214 217 215 b 101 118 133 215 101 169 b 217 -15 103 56 144 -15 z "},"Ĺ":{"ha":915,"x_min":0,"x_max":0,"o":"m 217 -15 b 321 97 261 -15 296 28 b 703 -17 443 39 589 -17 b 871 81 788 -17 871 4 b 756 160 872 135 838 181 b 344 175 651 132 490 142 b 383 568 371 283 383 426 b 356 928 383 690 379 815 b 229 1043 333 1031 278 1049 b 151 914 167 1033 146 983 b 258 204 164 754 319 492 b 196 215 236 214 217 215 b 101 118 133 215 101 169 b 217 -15 103 56 144 -15 z m 238 1161 b 474 1428 338 1179 469 1357 b 440 1472 475 1453 458 1471 b 385 1432 421 1474 403 1463 b 208 1256 351 1369 288 1299 b 175 1188 174 1236 168 1207 b 238 1161 183 1167 204 1154 z "},"Ľ":{"ha":915,"x_min":0,"x_max":0,"o":"m 217 -15 b 321 97 261 -15 296 28 b 703 -17 443 39 589 -17 b 871 81 788 -17 871 4 b 756 160 872 135 838 181 b 344 175 651 132 490 142 b 383 568 371 283 383 426 b 356 928 383 690 379 815 b 229 1043 333 1031 278 1049 b 151 914 167 1033 146 983 b 258 204 164 754 319 492 b 196 215 236 214 217 215 b 101 118 133 215 101 169 b 217 -15 103 56 144 -15 z m 557 776 b 611 785 572 764 597 767 b 608 1113 656 835 674 1038 b 546 1132 588 1136 565 1140 b 525 1064 526 1124 513 1099 b 543 836 557 986 558 900 b 557 776 536 804 542 785 z "},"Ļ":{"ha":915,"x_min":0,"x_max":0,"o":"m 217 -15 b 321 97 261 -15 296 28 b 703 -17 443 39 589 -17 b 871 81 788 -17 871 4 b 756 160 872 135 838 181 b 344 175 651 132 490 142 b 383 568 371 283 383 426 b 356 928 383 690 379 815 b 229 1043 333 1031 278 1049 b 151 914 167 1033 146 983 b 258 204 164 754 319 492 b 196 215 236 214 217 215 b 101 118 133 215 101 169 b 217 -15 103 56 144 -15 z m 483 -76 b 386 -167 436 -76 386 -108 b 468 -235 386 -210 418 -249 b 431 -317 461 -264 449 -292 b 428 -376 415 -340 413 -365 b 475 -372 439 -385 458 -385 b 560 -167 515 -342 560 -244 b 483 -76 560 -110 526 -76 z "},"Ł":{"ha":915,"x_min":0,"x_max":0,"o":"m 217 -15 b 321 97 261 -15 296 28 b 703 -17 443 39 589 -17 b 871 81 788 -17 871 4 b 756 160 872 135 838 181 b 344 175 651 132 490 142 b 379 429 363 249 374 336 b 543 589 460 485 531 551 b 521 640 553 614 543 636 b 453 608 501 644 482 638 b 383 550 436 592 411 571 l 383 568 b 356 928 383 690 379 815 b 229 1043 333 1031 278 1049 b 151 914 167 1033 146 983 b 261 476 160 807 232 653 b 171 440 231 461 199 449 b 115 379 129 429 114 400 b 171 339 117 357 136 340 b 272 368 199 339 233 350 b 258 204 274 314 271 260 b 196 215 236 214 217 215 b 101 118 133 215 101 169 b 217 -15 103 56 144 -15 z "},"M":{"ha":1393,"x_min":0,"x_max":0,"o":"m 713 40 b 814 203 782 40 814 122 b 742 504 814 286 793 392 b 1092 899 818 658 967 810 b 1090 150 1046 658 1050 328 b 1213 -10 1101 44 1149 -14 b 1297 92 1272 -6 1299 40 b 1167 657 1283 286 1172 417 b 1218 976 1164 751 1200 890 b 1206 1026 1224 1001 1217 1018 b 1118 1026 1190 1040 1161 1046 b 690 603 985 965 793 790 b 265 1006 604 744 469 888 l 238 1019 b 179 1036 221 1032 201 1038 b 96 935 119 1032 93 986 b 225 369 110 740 221 610 b 175 50 229 275 193 136 b 218 -10 165 6 193 -10 b 283 53 249 -10 269 13 b 314 819 343 272 347 611 b 638 504 432 736 571 633 b 600 197 601 428 575 300 b 713 40 614 117 649 40 z "},"N":{"ha":1133,"x_min":0,"x_max":0,"o":"m 950 -28 b 1033 131 1013 -28 1043 38 b 901 438 1024 236 969 356 b 1015 939 928 636 1015 828 b 915 1065 1015 1007 986 1065 b 799 860 860 1065 813 1010 b 785 532 786 765 782 649 b 282 961 646 628 379 806 b 179 1036 261 1013 224 1039 b 96 935 119 1032 93 986 b 225 369 110 740 221 610 b 175 50 229 275 193 136 b 218 -10 165 6 193 -10 b 283 53 249 -10 269 13 b 321 763 338 254 346 554 b 790 421 469 628 681 489 b 950 -28 807 183 860 -29 z "},"Ń":{"ha":1133,"x_min":0,"x_max":0,"o":"m 950 -28 b 1033 131 1013 -28 1043 38 b 901 438 1024 236 969 356 b 1015 939 928 636 1015 828 b 915 1065 1015 1007 986 1065 b 799 860 860 1065 813 1010 b 785 532 786 765 782 649 b 282 961 646 628 379 806 b 179 1036 261 1013 224 1039 b 96 935 119 1032 93 986 b 225 369 110 740 221 610 b 175 50 229 275 193 136 b 218 -10 165 6 193 -10 b 283 53 249 -10 269 13 b 321 763 338 254 346 554 b 790 421 469 628 681 489 b 950 -28 807 183 860 -29 z m 556 1161 b 792 1428 656 1179 788 1357 b 758 1472 793 1453 776 1471 b 703 1432 739 1474 721 1463 b 526 1256 669 1369 606 1299 b 493 1188 492 1236 486 1207 b 556 1161 501 1167 522 1154 z "},"Ň":{"ha":1133,"x_min":0,"x_max":0,"o":"m 950 -28 b 1033 131 1013 -28 1043 38 b 901 438 1024 236 969 356 b 1015 939 928 636 1015 828 b 915 1065 1015 1007 986 1065 b 799 860 860 1065 813 1010 b 785 532 786 765 782 649 b 282 961 646 628 379 806 b 179 1036 261 1013 224 1039 b 96 935 119 1032 93 986 b 225 369 110 740 221 610 b 175 50 229 275 193 136 b 218 -10 165 6 193 -10 b 283 53 249 -10 269 13 b 321 763 338 254 346 554 b 790 421 469 628 681 489 b 950 -28 807 183 860 -29 z m 715 1422 b 544 1264 661 1411 588 1339 b 374 1422 501 1339 429 1411 b 319 1396 346 1426 326 1415 b 349 1338 314 1379 319 1356 b 499 1169 419 1297 468 1226 b 546 1136 511 1147 528 1136 b 590 1169 561 1136 579 1147 b 740 1338 619 1226 669 1297 b 769 1396 769 1356 775 1379 b 715 1422 763 1415 743 1426 z "},"Ņ":{"ha":1133,"x_min":0,"x_max":0,"o":"m 950 -28 b 1033 131 1013 -28 1043 38 b 901 438 1024 236 969 356 b 1015 939 928 636 1015 828 b 915 1065 1015 1007 986 1065 b 799 860 860 1065 813 1010 b 785 532 786 765 782 649 b 282 961 646 628 379 806 b 179 1036 261 1013 224 1039 b 96 935 119 1032 93 986 b 225 369 110 740 221 610 b 175 50 229 275 193 136 b 218 -10 165 6 193 -10 b 283 53 249 -10 269 13 b 321 763 338 254 346 554 b 790 421 469 628 681 489 b 950 -28 807 183 860 -29 z m 565 -69 b 468 -160 518 -69 468 -101 b 550 -228 468 -203 500 -242 b 513 -310 543 -257 531 -285 b 510 -369 497 -333 494 -358 b 557 -365 521 -378 540 -378 b 642 -160 597 -335 642 -237 b 565 -69 642 -103 608 -69 z "},"Ñ":{"ha":1133,"x_min":0,"x_max":0,"o":"m 950 -28 b 1033 131 1013 -28 1043 38 b 901 438 1024 236 969 356 b 1015 939 928 636 1015 828 b 915 1065 1015 1007 986 1065 b 799 860 860 1065 813 1010 b 785 532 786 765 782 649 b 282 961 646 628 379 806 b 179 1036 261 1013 224 1039 b 96 935 119 1032 93 986 b 225 369 110 740 221 610 b 175 50 229 275 193 136 b 218 -10 165 6 193 -10 b 283 53 249 -10 269 13 b 321 763 338 254 346 554 b 790 421 469 628 681 489 b 950 -28 807 183 860 -29 z m 649 1136 b 778 1272 732 1136 782 1222 b 733 1318 776 1303 756 1318 b 690 1274 713 1318 700 1306 b 631 1211 676 1235 658 1211 b 457 1301 582 1210 547 1301 b 317 1160 363 1301 314 1210 b 363 1114 319 1128 339 1114 b 406 1158 382 1114 394 1128 b 475 1225 419 1197 439 1225 b 649 1136 529 1225 565 1136 z "},"Ŋ":{"ha":1111,"x_min":0,"x_max":0,"o":"m 561 -469 b 836 -344 636 -525 775 -435 b 901 436 1001 -112 893 144 b 1015 939 906 624 1001 744 b 932 1049 1018 997 992 1047 b 765 638 807 1051 769 793 l 764 558 b 282 961 613 657 374 817 b 179 1036 260 1013 224 1039 b 96 935 119 1032 93 986 b 225 369 110 740 221 610 b 175 50 229 275 193 136 b 218 -10 165 6 193 -10 b 283 53 249 -10 269 13 b 321 764 338 254 346 556 b 767 449 456 644 646 521 b 794 -186 781 156 838 -86 b 538 -349 742 -303 597 -267 b 561 -469 507 -390 522 -442 z "},"O":{"ha":1083,"x_min":0,"x_max":0,"o":"m 547 -8 b 1011 517 861 -8 1011 260 b 715 956 1011 733 896 922 b 640 949 690 965 663 961 b 639 997 646 964 646 981 b 501 1053 624 1053 560 1067 b 74 511 232 1004 75 764 b 547 -8 71 247 222 -8 z m 229 464 b 594 899 231 663 357 842 l 603 903 b 668 808 594 860 622 840 b 874 471 801 743 874 615 b 557 82 874 281 768 82 b 229 464 350 82 229 271 z "},"Ó":{"ha":1083,"x_min":0,"x_max":0,"o":"m 547 -8 b 1011 517 861 -8 1011 260 b 715 956 1011 733 896 922 b 640 949 690 965 663 961 b 639 997 646 964 646 981 b 501 1053 624 1053 560 1067 b 74 511 232 1004 75 764 b 547 -8 71 247 222 -8 z m 540 1161 b 776 1428 640 1179 772 1357 b 743 1472 778 1453 761 1471 b 688 1432 724 1474 706 1463 b 511 1256 654 1369 590 1299 b 478 1188 476 1236 471 1207 b 540 1161 486 1167 507 1154 z m 229 464 b 594 899 231 663 357 842 l 603 903 b 668 808 594 860 622 840 b 874 471 801 743 874 615 b 557 82 874 281 768 82 b 229 464 350 82 229 271 z "},"Ô":{"ha":1083,"x_min":0,"x_max":0,"o":"m 547 -8 b 1011 517 861 -8 1011 260 b 715 956 1011 733 896 922 b 640 949 690 965 663 961 b 639 997 646 964 646 981 b 501 1053 624 1053 560 1067 b 74 511 232 1004 75 764 b 547 -8 71 247 222 -8 z m 365 1156 b 536 1314 419 1167 493 1239 b 707 1156 579 1239 651 1167 b 761 1182 735 1151 754 1163 b 732 1240 767 1199 761 1222 b 582 1408 661 1281 613 1351 b 535 1442 569 1431 553 1442 b 490 1408 519 1442 501 1431 b 340 1240 461 1351 411 1281 b 311 1182 311 1222 306 1199 b 365 1156 318 1163 338 1151 z m 229 464 b 594 899 231 663 357 842 l 603 903 b 668 808 594 860 622 840 b 874 471 801 743 874 615 b 557 82 874 281 768 82 b 229 464 350 82 229 271 z "},"Ö":{"ha":1083,"x_min":0,"x_max":0,"o":"m 547 -8 b 1011 517 861 -8 1011 260 b 715 956 1011 733 896 922 b 640 949 690 965 663 961 b 639 997 646 964 646 981 b 501 1053 624 1053 560 1067 b 74 511 232 1004 75 764 b 547 -8 71 247 222 -8 z m 663 1161 b 728 1232 703 1161 728 1189 b 639 1314 728 1286 681 1314 b 574 1251 597 1314 574 1293 b 663 1161 574 1194 618 1161 z m 425 1161 b 490 1232 465 1161 490 1189 b 401 1314 490 1286 443 1314 b 336 1251 360 1314 336 1293 b 425 1161 336 1194 379 1161 z m 229 464 b 594 899 231 663 357 842 l 603 903 b 668 808 594 860 622 840 b 874 471 801 743 874 615 b 557 82 874 281 768 82 b 229 464 350 82 229 271 z "},"Ò":{"ha":1083,"x_min":0,"x_max":0,"o":"m 547 -8 b 1011 517 861 -8 1011 260 b 715 956 1011 733 896 922 b 640 949 690 965 663 961 b 639 997 646 964 646 981 b 501 1053 624 1053 560 1067 b 74 511 232 1004 75 764 b 547 -8 71 247 222 -8 z m 535 1161 b 596 1188 567 1154 588 1167 b 563 1256 604 1207 597 1236 b 386 1432 483 1299 419 1369 b 331 1472 368 1463 350 1474 b 299 1428 313 1471 296 1453 b 535 1161 301 1357 433 1179 z m 229 464 b 594 899 231 663 357 842 l 603 903 b 668 808 594 860 622 840 b 874 471 801 743 874 615 b 557 82 874 281 768 82 b 229 464 350 82 229 271 z "},"Ő":{"ha":1083,"x_min":0,"x_max":0,"o":"m 547 -8 b 1011 517 861 -8 1011 260 b 715 956 1011 733 896 922 b 640 949 690 965 663 961 b 639 997 646 964 646 981 b 501 1053 624 1053 560 1067 b 74 511 232 1004 75 764 b 547 -8 71 247 222 -8 z m 411 1149 b 597 1451 507 1183 606 1381 b 557 1490 594 1476 575 1492 b 510 1440 538 1488 522 1474 b 367 1236 488 1374 436 1292 b 344 1164 335 1211 335 1181 b 411 1149 357 1144 379 1136 z m 663 1147 b 849 1450 758 1182 857 1379 b 808 1489 846 1475 826 1490 b 761 1439 789 1486 774 1472 b 618 1235 739 1372 688 1290 b 596 1163 586 1210 586 1179 b 663 1147 608 1143 631 1135 z m 229 464 b 594 899 231 663 357 842 l 603 903 b 668 808 594 860 622 840 b 874 471 801 743 874 615 b 557 82 874 281 768 82 b 229 464 350 82 229 271 z "},"Ō":{"ha":1083,"x_min":0,"x_max":0,"o":"m 547 -8 b 1011 517 861 -8 1011 260 b 715 956 1011 733 896 922 b 640 949 690 965 663 961 b 639 997 646 964 646 981 b 501 1053 624 1053 560 1067 b 74 511 232 1004 75 764 b 547 -8 71 247 222 -8 z m 361 1169 b 717 1200 447 1114 667 1150 b 724 1256 735 1217 738 1242 b 656 1263 710 1269 690 1274 b 406 1258 588 1242 493 1235 b 335 1232 368 1268 343 1251 b 361 1169 326 1211 335 1188 z m 229 464 b 594 899 231 663 357 842 l 603 903 b 668 808 594 860 622 840 b 874 471 801 743 874 615 b 557 82 874 281 768 82 b 229 464 350 82 229 271 z "},"Ø":{"ha":1099,"x_min":0,"x_max":0,"o":"m 547 -8 b 1011 517 861 -8 1011 260 b 832 907 1011 682 944 832 b 869 1040 853 965 865 1011 b 846 1085 872 1064 858 1079 b 786 1035 825 1092 799 1075 b 754 946 779 1010 768 981 b 715 956 742 950 729 953 b 640 949 690 965 663 961 b 639 997 646 964 646 981 b 501 1053 624 1053 560 1067 b 74 511 232 1004 75 764 b 303 53 72 326 146 144 l 286 28 b 276 -51 265 -7 264 -35 b 347 -50 292 -68 322 -76 b 396 13 361 -36 378 -14 b 547 -8 440 -1 492 -8 z m 229 464 b 594 899 231 663 357 842 l 603 903 b 668 808 594 860 622 840 l 690 797 b 361 153 599 593 465 332 b 229 464 276 225 229 343 z m 450 100 b 765 740 549 269 676 531 b 874 471 836 669 874 575 b 557 82 874 281 768 82 b 450 100 518 82 482 89 z "},"Õ":{"ha":1083,"x_min":0,"x_max":0,"o":"m 547 -8 b 1011 517 861 -8 1011 260 b 715 956 1011 733 896 922 b 640 949 690 965 663 961 b 639 997 646 964 646 981 b 501 1053 624 1053 560 1067 b 74 511 232 1004 75 764 b 547 -8 71 247 222 -8 z m 633 1136 b 763 1272 717 1136 767 1222 b 718 1318 761 1303 740 1318 b 675 1274 697 1318 685 1306 b 615 1211 661 1235 643 1211 b 442 1301 567 1210 532 1301 b 301 1160 347 1301 299 1210 b 347 1114 304 1128 324 1114 b 390 1158 367 1114 379 1128 b 460 1225 404 1197 424 1225 b 633 1136 514 1225 550 1136 z m 229 464 b 594 899 231 663 357 842 l 603 903 b 668 808 594 860 622 840 b 874 471 801 743 874 615 b 557 82 874 281 768 82 b 229 464 350 82 229 271 z "},"Œ":{"ha":1531,"x_min":0,"x_max":0,"o":"m 583 82 b 229 464 350 82 229 271 b 604 900 231 663 357 842 b 654 964 635 915 651 939 b 768 921 685 947 724 932 b 856 340 785 774 856 547 b 583 82 856 281 818 82 z m 1321 4 b 1481 121 1407 13 1489 46 b 1357 188 1478 175 1440 214 b 906 150 1242 147 1071 113 b 975 506 957 244 972 371 b 1307 478 1099 497 1257 474 b 1404 558 1390 485 1407 521 b 1304 622 1401 610 1358 622 b 975 593 1183 622 1115 586 b 957 893 974 693 967 794 b 1397 922 1132 879 1319 894 b 1467 1050 1465 949 1486 997 b 1354 1104 1453 1093 1415 1126 b 658 1076 1192 1047 893 963 b 596 1069 633 1089 607 1088 b 590 1053 593 1065 592 1060 b 511 1053 567 1060 539 1060 b 74 513 231 1006 75 765 b 592 -15 71 250 222 -15 b 856 81 715 -15 799 21 b 1321 4 1007 8 1182 -10 z "},"P":{"ha":994,"x_min":0,"x_max":0,"o":"m 431 403 b 929 793 719 354 929 569 b 674 1069 929 951 819 1071 b 342 821 554 1068 421 993 b 322 928 336 860 331 896 b 218 1065 297 1028 263 1065 b 118 939 149 1065 118 1007 b 240 467 118 807 217 615 b 104 96 161 364 107 197 b 185 -28 103 24 128 -28 b 290 93 229 -28 264 19 b 347 444 319 179 339 308 b 431 403 363 421 393 407 z m 351 535 l 353 636 b 646 979 413 883 536 979 b 831 794 747 979 831 899 b 411 567 831 563 578 543 b 351 535 386 569 365 556 z "},"Þ":{"ha":964,"x_min":0,"x_max":0,"o":"m 428 264 b 925 654 715 215 925 431 b 671 931 925 813 817 932 b 350 721 561 929 435 865 b 322 928 346 799 338 869 b 218 1065 297 1028 263 1065 b 118 939 149 1065 118 1007 b 240 467 118 807 217 615 b 104 96 161 364 107 197 b 185 -28 103 24 128 -28 b 290 93 229 -28 264 19 b 338 322 310 153 326 233 b 428 264 347 288 381 268 z m 344 390 b 351 526 347 435 350 481 l 351 543 b 642 840 418 757 540 840 b 826 656 743 840 826 760 b 408 428 826 424 575 404 b 344 390 379 431 357 414 z "},"Q":{"ha":1075,"x_min":0,"x_max":0,"o":"m 538 -18 b 624 -11 568 -18 596 -15 b 751 -182 658 -74 700 -132 b 857 -212 788 -218 832 -233 b 843 -128 878 -192 869 -156 b 735 22 800 -82 764 -32 b 1003 503 921 106 1003 310 b 761 904 1003 713 911 904 b 506 456 597 904 506 696 b 582 74 506 331 531 196 b 533 71 567 72 550 71 b 213 463 336 71 213 243 b 578 924 213 682 354 833 b 638 1038 647 958 654 1003 b 542 1083 622 1071 585 1085 b 74 506 351 1068 74 857 b 538 -18 74 232 225 -18 z m 636 440 b 768 779 636 601 690 779 b 896 496 851 779 896 647 b 694 107 896 336 831 178 b 636 440 654 211 636 325 z "},"R":{"ha":978,"x_min":0,"x_max":0,"o":"m 185 -28 b 290 93 229 -28 264 19 b 346 422 318 174 338 294 b 408 396 360 404 383 396 b 554 415 461 396 510 403 b 747 71 719 324 724 160 b 864 -10 764 6 813 -19 b 933 122 922 1 944 58 b 663 460 913 228 824 372 b 892 818 807 542 892 688 b 653 1071 892 972 789 1071 b 338 849 540 1071 414 1001 b 322 928 333 878 328 904 b 218 1065 297 1028 263 1065 b 118 939 149 1065 118 1007 b 240 467 118 807 217 615 b 104 96 161 364 107 197 b 185 -28 103 24 128 -28 z m 351 510 l 351 526 b 351 681 353 578 354 631 b 638 982 406 896 528 982 b 783 833 714 982 783 940 b 390 536 783 711 640 576 b 351 510 374 532 360 522 z "},"Ŕ":{"ha":978,"x_min":0,"x_max":0,"o":"m 185 -28 b 290 93 229 -28 264 19 b 346 422 318 174 338 294 b 408 396 360 404 383 396 b 554 415 461 396 510 403 b 747 71 719 324 724 160 b 864 -10 764 6 813 -19 b 933 122 922 1 944 58 b 663 460 913 228 824 372 b 892 818 807 542 892 688 b 653 1071 892 972 789 1071 b 338 849 540 1071 414 1001 b 322 928 333 878 328 904 b 218 1065 297 1028 263 1065 b 118 939 149 1065 118 1007 b 240 467 118 807 217 615 b 104 96 161 364 107 197 b 185 -28 103 24 128 -28 z m 496 1161 b 732 1428 596 1179 728 1357 b 699 1472 733 1453 717 1471 b 643 1432 679 1474 661 1463 b 467 1256 610 1369 546 1299 b 433 1188 432 1236 426 1207 b 496 1161 442 1167 463 1154 z m 351 510 l 351 526 b 351 681 353 578 354 631 b 638 982 406 896 528 982 b 783 833 714 982 783 940 b 390 536 783 711 640 576 b 351 510 374 532 360 522 z "},"Ř":{"ha":978,"x_min":0,"x_max":0,"o":"m 185 -28 b 290 93 229 -28 264 19 b 346 422 318 174 338 294 b 408 396 360 404 383 396 b 554 415 461 396 510 403 b 747 71 719 324 724 160 b 864 -10 764 6 813 -19 b 933 122 922 1 944 58 b 663 460 913 228 824 372 b 892 818 807 542 892 688 b 653 1071 892 972 789 1071 b 338 849 540 1071 414 1001 b 322 928 333 878 328 904 b 218 1065 297 1028 263 1065 b 118 939 149 1065 118 1007 b 240 467 118 807 217 615 b 104 96 161 364 107 197 b 185 -28 103 24 128 -28 z m 656 1422 b 485 1264 601 1411 528 1339 b 314 1422 442 1339 369 1411 b 260 1396 286 1426 267 1415 b 289 1338 254 1379 260 1356 b 439 1169 360 1297 408 1226 b 486 1136 451 1147 468 1136 b 531 1169 501 1136 519 1147 b 681 1338 560 1226 610 1297 b 710 1396 710 1356 715 1379 b 656 1422 703 1415 683 1426 z m 351 510 l 351 526 b 351 681 353 578 354 631 b 638 982 406 896 528 982 b 783 833 714 982 783 940 b 390 536 783 711 640 576 b 351 510 374 532 360 522 z "},"Ŗ":{"ha":978,"x_min":0,"x_max":0,"o":"m 185 -28 b 290 93 229 -28 264 19 b 346 422 318 174 338 294 b 408 396 360 404 383 396 b 554 415 461 396 510 403 b 747 71 719 324 724 160 b 864 -10 764 6 813 -19 b 933 122 922 1 944 58 b 663 460 913 228 824 372 b 892 818 807 542 892 688 b 653 1071 892 972 789 1071 b 338 849 540 1071 414 1001 b 322 928 333 878 328 904 b 218 1065 297 1028 263 1065 b 118 939 149 1065 118 1007 b 240 467 118 807 217 615 b 104 96 161 364 107 197 b 185 -28 103 24 128 -28 z m 504 -35 b 407 -125 457 -35 407 -67 b 489 -193 407 -168 439 -207 b 451 -275 482 -222 469 -250 b 449 -335 436 -299 433 -324 b 496 -331 460 -343 479 -343 b 581 -125 536 -300 581 -203 b 504 -35 581 -68 547 -35 z m 351 510 l 351 526 b 351 681 353 578 354 631 b 638 982 406 896 528 982 b 783 833 714 982 783 940 b 390 536 783 711 640 576 b 351 510 374 532 360 522 z "},"S":{"ha":919,"x_min":0,"x_max":0,"o":"m 488 -15 b 846 249 688 -15 846 93 b 283 813 846 581 283 546 b 444 951 283 903 346 951 b 678 853 518 951 599 913 b 800 867 719 824 775 825 b 756 982 828 908 804 951 b 463 1067 664 1040 564 1067 b 132 829 275 1067 133 978 b 661 271 131 513 661 522 b 518 161 661 217 617 161 b 221 267 403 161 290 221 b 89 243 172 294 113 283 b 144 89 58 188 78 132 b 488 -15 218 33 342 -15 z "},"Ś":{"ha":919,"x_min":0,"x_max":0,"o":"m 488 -15 b 846 249 688 -15 846 93 b 283 813 846 581 283 546 b 444 951 283 903 346 951 b 678 853 518 951 599 913 b 800 867 719 824 775 825 b 756 982 828 908 804 951 b 463 1067 664 1040 564 1067 b 132 829 275 1067 133 978 b 661 271 131 513 661 522 b 518 161 661 217 617 161 b 221 267 403 161 290 221 b 89 243 172 294 113 283 b 144 89 58 188 78 132 b 488 -15 218 33 342 -15 z m 471 1161 b 707 1428 571 1179 703 1357 b 674 1472 708 1453 692 1471 b 618 1432 654 1474 636 1463 b 442 1256 585 1369 521 1299 b 408 1188 407 1236 401 1207 b 471 1161 417 1167 438 1154 z "},"Š":{"ha":919,"x_min":0,"x_max":0,"o":"m 488 -15 b 846 249 688 -15 846 93 b 283 813 846 581 283 546 b 444 951 283 903 346 951 b 678 853 518 951 599 913 b 800 867 719 824 775 825 b 756 982 828 908 804 951 b 463 1067 664 1040 564 1067 b 132 829 275 1067 133 978 b 661 271 131 513 661 522 b 518 161 661 217 617 161 b 221 267 403 161 290 221 b 89 243 172 294 113 283 b 144 89 58 188 78 132 b 488 -15 218 33 342 -15 z m 631 1422 b 460 1264 576 1411 503 1339 b 289 1422 417 1339 344 1411 b 235 1396 261 1426 242 1415 b 264 1338 229 1379 235 1356 b 414 1169 335 1297 383 1226 b 461 1136 426 1147 443 1136 b 506 1169 476 1136 494 1147 b 656 1338 535 1226 585 1297 b 685 1396 685 1356 690 1379 b 631 1422 678 1415 658 1426 z "},"Ş":{"ha":919,"x_min":0,"x_max":0,"o":"m 478 -329 b 618 -194 572 -329 618 -261 b 490 -79 618 -137 575 -79 b 511 -15 501 -60 508 -36 b 846 249 700 -7 846 99 b 283 813 846 581 283 546 b 444 951 283 903 346 951 b 678 853 518 951 599 913 b 800 867 719 824 775 825 b 756 982 828 908 804 951 b 463 1067 664 1040 564 1067 b 132 829 275 1067 133 978 b 661 271 131 513 661 522 b 518 161 661 217 617 161 b 221 267 403 161 290 221 b 89 243 172 294 113 283 b 144 89 58 188 78 132 b 438 -14 210 40 314 -4 b 393 -119 432 -42 418 -87 b 410 -147 386 -135 397 -144 b 436 -137 419 -146 429 -143 l 436 -140 b 488 -132 456 -135 474 -132 b 560 -192 536 -132 560 -162 b 504 -243 560 -221 538 -243 b 425 -226 479 -243 447 -236 b 361 -240 399 -217 374 -217 b 375 -300 351 -258 356 -283 b 478 -329 393 -315 433 -329 z "},"Ș":{"ha":919,"x_min":0,"x_max":0,"o":"m 488 -15 b 846 249 688 -15 846 93 b 283 813 846 581 283 546 b 444 951 283 903 346 951 b 678 853 518 951 599 913 b 800 867 719 824 775 825 b 756 982 828 908 804 951 b 463 1067 664 1040 564 1067 b 132 829 275 1067 133 978 b 661 271 131 513 661 522 b 518 161 661 217 617 161 b 221 267 403 161 290 221 b 89 243 172 294 113 283 b 144 89 58 188 78 132 b 488 -15 218 33 342 -15 z m 506 -92 b 408 -182 458 -92 408 -124 b 490 -250 408 -225 440 -264 b 453 -332 483 -279 471 -307 b 450 -392 438 -356 435 -381 b 497 -387 461 -400 481 -400 b 582 -182 538 -357 582 -260 b 506 -92 582 -125 549 -92 z "},"ẞ":{"ha":1128,"x_min":0,"x_max":0,"o":"m 726 -17 b 1063 264 932 -17 1063 114 b 760 579 1063 394 974 535 b 847 929 853 682 886 817 b 900 1050 903 957 918 1001 b 789 1104 886 1093 849 1126 b 165 1076 625 1047 400 963 b 103 1069 140 1089 114 1088 b 126 989 92 1050 94 1015 b 179 953 140 975 158 964 b 249 42 121 736 151 290 b 311 -14 263 4 283 -15 b 350 50 336 -12 364 6 b 279 372 328 132 281 271 b 364 901 271 586 344 735 b 756 903 497 881 651 885 b 506 556 789 771 651 633 b 479 474 474 540 464 503 b 556 446 493 442 524 435 b 685 513 604 463 647 486 b 971 271 886 488 971 369 b 779 110 971 171 893 110 b 475 246 692 110 583 151 b 379 239 442 269 404 263 b 378 140 350 210 350 175 b 726 -17 478 22 617 -17 z "},"T":{"ha":1015,"x_min":0,"x_max":0,"o":"m 596 -11 b 679 99 654 -7 682 38 b 550 725 668 265 550 482 b 592 926 551 801 571 865 b 932 1032 735 946 868 982 b 972 1118 968 1060 981 1090 b 913 1139 968 1140 942 1151 b 654 1040 833 1107 758 1051 b 133 1128 449 1017 279 1131 b 40 1036 78 1125 42 1094 b 149 925 38 979 79 942 b 467 913 219 906 340 903 b 468 157 424 692 429 329 b 596 -11 482 40 531 -17 z "},"Ť":{"ha":1015,"x_min":0,"x_max":0,"o":"m 596 -11 b 679 99 654 -7 682 38 b 550 725 668 265 550 482 b 592 926 551 801 571 865 b 932 1032 735 946 868 982 b 972 1118 968 1060 981 1090 b 913 1139 968 1140 942 1151 b 654 1040 833 1107 758 1051 b 133 1128 449 1017 279 1131 b 40 1036 78 1125 42 1094 b 149 925 38 979 79 942 b 467 913 219 906 340 903 b 468 157 424 692 429 329 b 596 -11 482 40 531 -17 z m 715 1422 b 544 1264 661 1411 588 1339 b 374 1422 501 1339 429 1411 b 319 1396 346 1426 326 1415 b 349 1338 314 1379 319 1356 b 499 1169 419 1297 468 1226 b 546 1136 511 1147 528 1136 b 590 1169 561 1136 579 1147 b 740 1338 619 1226 669 1297 b 769 1396 769 1356 775 1379 b 715 1422 763 1415 743 1426 z "},"Ţ":{"ha":1015,"x_min":0,"x_max":0,"o":"m 149 925 b 467 913 219 906 340 903 b 468 157 424 692 429 329 b 550 -3 478 69 508 17 l 544 -12 b 500 -118 539 -40 525 -86 b 517 -146 493 -133 504 -143 b 543 -136 526 -144 536 -142 l 543 -139 b 594 -131 563 -133 581 -131 b 667 -190 643 -131 667 -161 b 611 -242 667 -219 644 -242 b 532 -225 586 -242 554 -235 b 468 -239 506 -215 481 -215 b 482 -299 458 -257 463 -282 b 585 -328 500 -314 540 -328 b 725 -193 679 -328 725 -260 b 597 -78 725 -136 682 -78 b 618 -7 610 -57 617 -29 b 679 99 661 6 682 46 b 550 725 668 265 550 482 b 592 926 551 801 571 865 b 932 1032 735 946 868 982 b 972 1118 968 1060 981 1090 b 913 1139 968 1140 942 1151 b 654 1040 833 1107 758 1051 b 133 1128 449 1017 279 1131 b 40 1036 78 1125 42 1094 b 149 925 38 979 79 942 z "},"Ț":{"ha":1015,"x_min":0,"x_max":0,"o":"m 596 -11 b 679 99 654 -7 682 38 b 550 725 668 265 550 482 b 592 926 551 801 571 865 b 932 1032 735 946 868 982 b 972 1118 968 1060 981 1090 b 913 1139 968 1140 942 1151 b 654 1040 833 1107 758 1051 b 133 1128 449 1017 279 1131 b 40 1036 78 1125 42 1094 b 149 925 38 979 79 942 b 467 913 219 906 340 903 b 468 157 424 692 429 329 b 596 -11 482 40 531 -17 z m 614 -58 b 517 -149 567 -58 517 -90 b 599 -217 517 -192 549 -231 b 561 -299 592 -246 579 -274 b 558 -358 546 -322 543 -347 b 606 -354 569 -367 589 -367 b 690 -149 646 -324 690 -226 b 614 -58 690 -92 657 -58 z "},"U":{"ha":1094,"x_min":0,"x_max":0,"o":"m 489 -6 b 806 160 614 -6 725 60 b 883 28 826 107 853 63 b 986 11 918 -12 964 -14 b 964 122 1007 35 1003 71 b 878 293 928 171 899 232 b 951 785 918 410 949 610 b 865 1042 954 961 931 1042 b 733 729 779 1042 738 939 b 771 276 729 569 739 410 b 508 85 708 163 618 85 b 243 475 306 85 243 271 b 315 917 243 632 289 814 b 224 1043 329 990 296 1043 b 115 907 168 1043 124 1007 b 489 -6 71 536 82 -6 z "},"Ú":{"ha":1094,"x_min":0,"x_max":0,"o":"m 489 -6 b 806 160 614 -6 725 60 b 883 28 826 107 853 63 b 986 11 918 -12 964 -14 b 964 122 1007 35 1003 71 b 878 293 928 171 899 232 b 951 785 918 410 949 610 b 865 1042 954 961 931 1042 b 733 729 779 1042 738 939 b 771 276 729 569 739 410 b 508 85 708 163 618 85 b 243 475 306 85 243 271 b 315 917 243 632 289 814 b 224 1043 329 990 296 1043 b 115 907 168 1043 124 1007 b 489 -6 71 536 82 -6 z m 550 1161 b 786 1428 650 1179 782 1357 b 753 1472 788 1453 771 1471 b 697 1432 733 1474 715 1463 b 521 1256 664 1369 600 1299 b 488 1188 486 1236 481 1207 b 550 1161 496 1167 517 1154 z "},"Ŭ":{"ha":1094,"x_min":0,"x_max":0,"o":"m 489 -6 b 806 160 614 -6 725 60 b 883 28 826 107 853 63 b 986 11 918 -12 964 -14 b 964 122 1007 35 1003 71 b 878 293 928 171 899 232 b 951 785 918 410 949 610 b 865 1042 954 961 931 1042 b 733 729 779 1042 738 939 b 771 276 729 569 739 410 b 508 85 708 163 618 85 b 243 475 306 85 243 271 b 315 917 243 632 289 814 b 224 1043 329 990 296 1043 b 115 907 168 1043 124 1007 b 489 -6 71 536 82 -6 z m 542 1139 b 707 1351 704 1139 732 1297 b 646 1396 694 1383 671 1401 b 619 1324 622 1389 613 1364 b 542 1203 633 1258 618 1203 b 464 1319 465 1203 453 1264 b 438 1390 469 1363 460 1383 b 376 1347 413 1396 389 1379 b 542 1139 351 1293 379 1140 z "},"Û":{"ha":1094,"x_min":0,"x_max":0,"o":"m 489 -6 b 806 160 614 -6 725 60 b 883 28 826 107 853 63 b 986 11 918 -12 964 -14 b 964 122 1007 35 1003 71 b 878 293 928 171 899 232 b 951 785 918 410 949 610 b 865 1042 954 961 931 1042 b 733 729 779 1042 738 939 b 771 276 729 569 739 410 b 508 85 708 163 618 85 b 243 475 306 85 243 271 b 315 917 243 632 289 814 b 224 1043 329 990 296 1043 b 115 907 168 1043 124 1007 b 489 -6 71 536 82 -6 z m 375 1156 b 546 1314 429 1167 503 1239 b 717 1156 589 1239 661 1167 b 771 1182 744 1151 764 1163 b 742 1240 776 1199 771 1222 b 592 1408 671 1281 622 1351 b 544 1442 579 1431 563 1442 b 500 1408 529 1442 511 1431 b 350 1240 471 1351 421 1281 b 321 1182 321 1222 315 1199 b 375 1156 328 1163 347 1151 z "},"Ü":{"ha":1094,"x_min":0,"x_max":0,"o":"m 489 -6 b 806 160 614 -6 725 60 b 883 28 826 107 853 63 b 986 11 918 -12 964 -14 b 964 122 1007 35 1003 71 b 878 293 928 171 899 232 b 951 785 918 410 949 610 b 865 1042 954 961 931 1042 b 733 729 779 1042 738 939 b 771 276 729 569 739 410 b 508 85 708 163 618 85 b 243 475 306 85 243 271 b 315 917 243 632 289 814 b 224 1043 329 990 296 1043 b 115 907 168 1043 124 1007 b 489 -6 71 536 82 -6 z m 672 1161 b 738 1232 713 1161 738 1189 b 649 1314 738 1286 690 1314 b 583 1251 607 1314 583 1293 b 672 1161 583 1194 628 1161 z m 435 1161 b 500 1232 475 1161 500 1189 b 411 1314 500 1286 453 1314 b 346 1251 369 1314 346 1293 b 435 1161 346 1194 389 1161 z "},"Ù":{"ha":1094,"x_min":0,"x_max":0,"o":"m 489 -6 b 806 160 614 -6 725 60 b 883 28 826 107 853 63 b 986 11 918 -12 964 -14 b 964 122 1007 35 1003 71 b 878 293 928 171 899 232 b 951 785 918 410 949 610 b 865 1042 954 961 931 1042 b 733 729 779 1042 738 939 b 771 276 729 569 739 410 b 508 85 708 163 618 85 b 243 475 306 85 243 271 b 315 917 243 632 289 814 b 224 1043 329 990 296 1043 b 115 907 168 1043 124 1007 b 489 -6 71 536 82 -6 z m 544 1161 b 606 1188 576 1154 597 1167 b 572 1256 614 1207 607 1236 b 396 1432 493 1299 429 1369 b 340 1472 378 1463 360 1474 b 308 1428 322 1471 306 1453 b 544 1161 311 1357 443 1179 z "},"Ű":{"ha":1094,"x_min":0,"x_max":0,"o":"m 489 -6 b 806 160 614 -6 725 60 b 883 28 826 107 853 63 b 986 11 918 -12 964 -14 b 964 122 1007 35 1003 71 b 878 293 928 171 899 232 b 951 785 918 410 949 610 b 865 1042 954 961 931 1042 b 733 729 779 1042 738 939 b 771 276 729 569 739 410 b 508 85 708 163 618 85 b 243 475 306 85 243 271 b 315 917 243 632 289 814 b 224 1043 329 990 296 1043 b 115 907 168 1043 124 1007 b 489 -6 71 536 82 -6 z m 421 1149 b 607 1451 517 1183 615 1381 b 567 1490 604 1476 585 1492 b 519 1440 547 1488 532 1474 b 376 1236 497 1374 446 1292 b 354 1164 344 1211 344 1181 b 421 1149 367 1144 389 1136 z m 672 1147 b 858 1450 768 1182 867 1379 b 818 1489 856 1475 836 1490 b 771 1439 799 1486 783 1472 b 628 1235 749 1372 697 1290 b 606 1163 596 1210 596 1179 b 672 1147 618 1143 640 1135 z "},"Ū":{"ha":1094,"x_min":0,"x_max":0,"o":"m 489 -6 b 806 160 614 -6 725 60 b 883 28 826 107 853 63 b 986 11 918 -12 964 -14 b 964 122 1007 35 1003 71 b 878 293 928 171 899 232 b 951 785 918 410 949 610 b 865 1042 954 961 931 1042 b 733 729 779 1042 738 939 b 771 276 729 569 739 410 b 508 85 708 163 618 85 b 243 475 306 85 243 271 b 315 917 243 632 289 814 b 224 1043 329 990 296 1043 b 115 907 168 1043 124 1007 b 489 -6 71 536 82 -6 z m 371 1169 b 726 1200 457 1114 676 1150 b 733 1256 744 1217 747 1242 b 665 1263 719 1269 700 1274 b 415 1258 597 1242 503 1235 b 344 1232 378 1268 353 1251 b 371 1169 336 1211 344 1188 z "},"Ų":{"ha":1094,"x_min":0,"x_max":0,"o":"m 489 -6 b 806 160 614 -6 725 60 b 883 28 826 107 853 63 l 892 19 b 794 -142 828 -28 794 -87 b 932 -265 794 -204 843 -265 b 1035 -236 975 -265 1015 -251 b 1047 -175 1053 -219 1058 -194 b 985 -162 1035 -153 1011 -153 b 921 -181 963 -172 942 -181 b 874 -128 893 -179 874 -164 b 958 -11 874 -90 913 -35 b 982 7 969 -6 976 1 l 986 11 b 964 122 1007 35 1003 71 b 878 293 928 171 899 232 b 951 785 918 410 949 610 b 865 1042 954 961 931 1042 b 733 729 779 1042 738 939 b 771 276 729 569 739 410 b 508 85 708 163 618 85 b 243 475 306 85 243 271 b 315 917 243 632 289 814 b 224 1043 329 990 296 1043 b 115 907 168 1043 124 1007 b 489 -6 71 536 82 -6 z "},"Ů":{"ha":1094,"x_min":0,"x_max":0,"o":"m 489 -6 b 806 160 614 -6 725 60 b 883 28 826 107 853 63 b 986 11 918 -12 964 -14 b 964 122 1007 35 1003 71 b 878 293 928 171 899 232 b 951 785 918 410 949 610 b 865 1042 954 961 931 1042 b 733 729 779 1042 738 939 b 771 276 729 569 739 410 b 508 85 708 163 618 85 b 243 475 306 85 243 271 b 315 917 243 632 289 814 b 224 1043 329 990 296 1043 b 115 907 168 1043 124 1007 b 489 -6 71 536 82 -6 z m 538 1001 b 692 1144 644 1001 692 1072 b 538 1303 692 1224 638 1303 b 392 1157 439 1303 392 1232 b 538 1001 392 1081 446 1001 z m 540 1089 b 450 1154 482 1089 450 1124 b 540 1217 450 1185 478 1217 b 633 1150 600 1217 633 1183 b 540 1089 633 1118 606 1089 z "},"Ũ":{"ha":1094,"x_min":0,"x_max":0,"o":"m 489 -6 b 806 160 614 -6 725 60 b 883 28 826 107 853 63 b 986 11 918 -12 964 -14 b 964 122 1007 35 1003 71 b 878 293 928 171 899 232 b 951 785 918 410 949 610 b 865 1042 954 961 931 1042 b 733 729 779 1042 738 939 b 771 276 729 569 739 410 b 508 85 708 163 618 85 b 243 475 306 85 243 271 b 315 917 243 632 289 814 b 224 1043 329 990 296 1043 b 115 907 168 1043 124 1007 b 489 -6 71 536 82 -6 z m 643 1136 b 772 1272 726 1136 776 1222 b 728 1318 771 1303 750 1318 b 685 1274 707 1318 694 1306 b 625 1211 671 1235 653 1211 b 451 1301 576 1210 542 1301 b 311 1160 357 1301 308 1210 b 357 1114 314 1128 333 1114 b 400 1158 376 1114 389 1128 b 469 1225 414 1197 433 1225 b 643 1136 524 1225 560 1136 z "},"V":{"ha":989,"x_min":0,"x_max":0,"o":"m 476 -8 b 499 -4 485 -8 492 -7 b 950 944 668 54 935 732 b 871 1068 951 1004 929 1058 b 763 981 813 1076 767 1036 b 572 207 738 763 711 461 b 264 918 553 411 393 713 b 103 1039 228 994 169 1063 b 50 921 61 1026 33 975 b 415 358 100 796 306 576 b 469 204 438 314 458 275 b 392 72 421 168 392 115 b 476 -8 392 28 422 -8 z "},"W":{"ha":1500,"x_min":0,"x_max":0,"o":"m 1049 -11 b 1388 907 1372 -11 1429 492 b 1279 1043 1379 1007 1335 1043 b 1188 917 1207 1043 1174 989 b 1260 475 1214 814 1260 633 b 1044 82 1260 204 1158 82 b 810 301 944 82 865 183 b 882 785 850 418 879 611 b 792 1044 885 965 856 1044 b 663 733 719 1044 668 960 b 707 290 660 601 665 433 b 456 82 638 153 543 82 b 242 475 342 82 242 204 b 313 917 242 633 288 814 b 221 1043 326 989 294 1043 b 114 907 165 1043 122 1007 b 444 -11 72 492 128 -11 b 750 179 551 -11 663 57 b 1049 -11 808 67 901 -11 z "},"Ẃ":{"ha":1500,"x_min":0,"x_max":0,"o":"m 1049 -11 b 1388 907 1372 -11 1429 492 b 1279 1043 1379 1007 1335 1043 b 1188 917 1207 1043 1174 989 b 1260 475 1214 814 1260 633 b 1044 82 1260 204 1158 82 b 810 301 944 82 865 183 b 882 785 850 418 879 611 b 792 1044 885 965 856 1044 b 663 733 719 1044 668 960 b 707 290 660 601 665 433 b 456 82 638 153 543 82 b 242 475 342 82 242 204 b 313 917 242 633 288 814 b 221 1043 326 989 294 1043 b 114 907 165 1043 122 1007 b 444 -11 72 492 128 -11 b 750 179 551 -11 663 57 b 1049 -11 808 67 901 -11 z m 796 1161 b 1032 1428 896 1179 1028 1357 b 999 1472 1033 1453 1017 1471 b 943 1432 979 1474 961 1463 b 767 1256 910 1369 846 1299 b 733 1188 732 1236 726 1207 b 796 1161 742 1167 763 1154 z "},"Ŵ":{"ha":1500,"x_min":0,"x_max":0,"o":"m 1049 -11 b 1388 907 1372 -11 1429 492 b 1279 1043 1379 1007 1335 1043 b 1188 917 1207 1043 1174 989 b 1260 475 1214 814 1260 633 b 1044 82 1260 204 1158 82 b 810 301 944 82 865 183 b 882 785 850 418 879 611 b 792 1044 885 965 856 1044 b 663 733 719 1044 668 960 b 707 290 660 601 665 433 b 456 82 638 153 543 82 b 242 475 342 82 242 204 b 313 917 242 633 288 814 b 221 1043 326 989 294 1043 b 114 907 165 1043 122 1007 b 444 -11 72 492 128 -11 b 750 179 551 -11 663 57 b 1049 -11 808 67 901 -11 z m 621 1156 b 792 1314 675 1167 749 1239 b 963 1156 835 1239 907 1167 b 1017 1182 990 1151 1010 1163 b 988 1240 1022 1199 1017 1222 b 838 1408 917 1281 868 1351 b 790 1442 825 1431 808 1442 b 746 1408 775 1442 757 1431 b 596 1240 717 1351 667 1281 b 567 1182 567 1222 561 1199 b 621 1156 574 1163 593 1151 z "},"Ẅ":{"ha":1500,"x_min":0,"x_max":0,"o":"m 1049 -11 b 1388 907 1372 -11 1429 492 b 1279 1043 1379 1007 1335 1043 b 1188 917 1207 1043 1174 989 b 1260 475 1214 814 1260 633 b 1044 82 1260 204 1158 82 b 810 301 944 82 865 183 b 882 785 850 418 879 611 b 792 1044 885 965 856 1044 b 663 733 719 1044 668 960 b 707 290 660 601 665 433 b 456 82 638 153 543 82 b 242 475 342 82 242 204 b 313 917 242 633 288 814 b 221 1043 326 989 294 1043 b 114 907 165 1043 122 1007 b 444 -11 72 492 128 -11 b 750 179 551 -11 663 57 b 1049 -11 808 67 901 -11 z m 918 1161 b 983 1232 958 1161 983 1189 b 894 1314 983 1286 936 1314 b 829 1251 853 1314 829 1293 b 918 1161 829 1194 874 1161 z m 681 1161 b 746 1232 721 1161 746 1189 b 657 1314 746 1286 699 1314 b 592 1251 615 1314 592 1293 b 681 1161 592 1194 635 1161 z "},"Ẁ":{"ha":1500,"x_min":0,"x_max":0,"o":"m 1049 -11 b 1388 907 1372 -11 1429 492 b 1279 1043 1379 1007 1335 1043 b 1188 917 1207 1043 1174 989 b 1260 475 1214 814 1260 633 b 1044 82 1260 204 1158 82 b 810 301 944 82 865 183 b 882 785 850 418 879 611 b 792 1044 885 965 856 1044 b 663 733 719 1044 668 960 b 707 290 660 601 665 433 b 456 82 638 153 543 82 b 242 475 342 82 242 204 b 313 917 242 633 288 814 b 221 1043 326 989 294 1043 b 114 907 165 1043 122 1007 b 444 -11 72 492 128 -11 b 750 179 551 -11 663 57 b 1049 -11 808 67 901 -11 z m 790 1161 b 851 1188 822 1154 843 1167 b 818 1256 860 1207 853 1236 b 642 1432 739 1299 675 1369 b 586 1472 624 1463 606 1474 b 554 1428 568 1471 551 1453 b 790 1161 557 1357 689 1179 z "},"X":{"ha":1071,"x_min":0,"x_max":0,"o":"m 975 24 b 969 106 993 40 1010 75 b 590 447 838 200 685 338 l 565 479 b 1007 903 711 697 921 793 b 1007 1014 1033 936 1040 982 b 871 1003 972 1051 922 1040 b 511 554 801 949 640 742 b 261 1019 393 733 358 886 b 136 1053 232 1058 182 1079 b 107 897 85 1025 79 967 b 439 444 147 801 279 632 b 65 126 299 261 150 231 b 63 15 39 93 31 49 b 199 24 96 -22 146 -12 b 499 376 267 75 381 210 b 857 39 626 231 758 104 b 975 24 906 7 944 -3 z "},"Y":{"ha":1001,"x_min":0,"x_max":0,"o":"m 265 -225 b 442 -126 308 -225 367 -203 b 949 883 585 17 871 614 b 885 1054 974 956 967 1039 b 778 982 844 1064 794 1028 b 571 328 731 831 665 568 b 218 993 486 585 314 886 b 76 1018 176 1033 124 1054 b 67 881 31 981 31 921 b 507 181 203 715 415 465 b 368 -49 465 94 419 15 b 172 -146 275 -31 172 -67 b 265 -225 172 -179 203 -225 z "},"Ý":{"ha":1001,"x_min":0,"x_max":0,"o":"m 265 -225 b 442 -126 308 -225 367 -203 b 949 883 585 17 871 614 b 885 1054 974 956 967 1039 b 778 982 844 1064 794 1028 b 571 328 731 831 665 568 b 218 993 486 585 314 886 b 76 1018 176 1033 124 1054 b 67 881 31 981 31 921 b 507 181 203 715 415 465 b 368 -49 465 94 419 15 b 172 -146 275 -31 172 -67 b 265 -225 172 -179 203 -225 z m 517 1161 b 753 1428 617 1179 749 1357 b 719 1472 754 1453 738 1471 b 664 1432 700 1474 682 1463 b 488 1256 631 1369 567 1299 b 454 1188 453 1236 447 1207 b 517 1161 463 1167 483 1154 z "},"Ŷ":{"ha":1001,"x_min":0,"x_max":0,"o":"m 265 -225 b 442 -126 308 -225 367 -203 b 949 883 585 17 871 614 b 885 1054 974 956 967 1039 b 778 982 844 1064 794 1028 b 571 328 731 831 665 568 b 218 993 486 585 314 886 b 76 1018 176 1033 124 1054 b 67 881 31 981 31 921 b 507 181 203 715 415 465 b 368 -49 465 94 419 15 b 172 -146 275 -31 172 -67 b 265 -225 172 -179 203 -225 z m 342 1156 b 513 1314 396 1167 469 1239 b 683 1156 556 1239 628 1167 b 738 1182 711 1151 731 1163 b 708 1240 743 1199 738 1222 b 558 1408 638 1281 589 1351 b 511 1442 546 1431 529 1442 b 467 1408 496 1442 478 1431 b 317 1240 438 1351 388 1281 b 288 1182 288 1222 282 1199 b 342 1156 294 1163 314 1151 z "},"Ÿ":{"ha":1001,"x_min":0,"x_max":0,"o":"m 265 -225 b 442 -126 308 -225 367 -203 b 949 883 585 17 871 614 b 885 1054 974 956 967 1039 b 778 982 844 1064 794 1028 b 571 328 731 831 665 568 b 218 993 486 585 314 886 b 76 1018 176 1033 124 1054 b 67 881 31 981 31 921 b 507 181 203 715 415 465 b 368 -49 465 94 419 15 b 172 -146 275 -31 172 -67 b 265 -225 172 -179 203 -225 z m 639 1161 b 704 1232 679 1161 704 1189 b 615 1314 704 1286 657 1314 b 550 1251 574 1314 550 1293 b 639 1161 550 1194 594 1161 z m 401 1161 b 467 1232 442 1161 467 1189 b 378 1314 467 1286 419 1314 b 313 1251 336 1314 313 1293 b 401 1161 313 1194 356 1161 z "},"Ỳ":{"ha":1001,"x_min":0,"x_max":0,"o":"m 265 -225 b 442 -126 308 -225 367 -203 b 949 883 585 17 871 614 b 885 1054 974 956 967 1039 b 778 982 844 1064 794 1028 b 571 328 731 831 665 568 b 218 993 486 585 314 886 b 76 1018 176 1033 124 1054 b 67 881 31 981 31 921 b 507 181 203 715 415 465 b 368 -49 465 94 419 15 b 172 -146 275 -31 172 -67 b 265 -225 172 -179 203 -225 z m 511 1161 b 572 1188 543 1154 564 1167 b 539 1256 581 1207 574 1236 b 363 1432 460 1299 396 1369 b 307 1472 344 1463 326 1474 b 275 1428 289 1471 272 1453 b 511 1161 278 1357 410 1179 z "},"Ỹ":{"ha":1001,"x_min":0,"x_max":0,"o":"m 265 -225 b 442 -126 308 -225 367 -203 b 949 883 585 17 871 614 b 885 1054 974 956 967 1039 b 778 982 844 1064 794 1028 b 571 328 731 831 665 568 b 218 993 486 585 314 886 b 76 1018 176 1033 124 1054 b 67 881 31 981 31 921 b 507 181 203 715 415 465 b 368 -49 465 94 419 15 b 172 -146 275 -31 172 -67 b 265 -225 172 -179 203 -225 z m 610 1136 b 739 1272 693 1136 743 1222 b 694 1318 738 1303 717 1318 b 651 1274 674 1318 661 1306 b 592 1211 638 1235 619 1211 b 418 1301 543 1210 508 1301 b 278 1160 324 1301 275 1210 b 324 1114 281 1128 300 1114 b 367 1158 343 1114 356 1128 b 436 1225 381 1197 400 1225 b 610 1136 490 1225 526 1136 z "},"Z":{"ha":999,"x_min":0,"x_max":0,"o":"m 836 -12 b 957 83 896 -14 954 13 b 779 206 958 139 911 188 b 457 236 689 226 569 238 b 876 874 588 476 721 731 b 940 947 917 885 942 910 b 876 988 939 978 922 1001 b 621 933 808 964 696 932 b 163 1053 421 935 326 1043 b 81 965 119 1053 82 1025 b 160 858 78 914 113 879 b 461 813 231 829 339 813 b 713 829 544 811 632 817 b 351 231 585 665 458 432 b 42 85 182 215 44 169 b 163 -3 42 21 89 -10 b 390 119 246 4 329 54 b 836 -12 572 88 735 -8 z "}}}
